<ttFont>
          <CharString index="0">
            72 26 22 24 24 -17 16 -34 -9 -11 0 -6 -25 hvcurveto
            -4 -25 -40 -3 -53 hhcurveto
            -221 892 204 hlineto
            23 17 -2 -1 15 hvcurveto
            21 10 -1 12 hhcurveto
            34 22 14 28 25 -24 15 -29 -18 -12 -2 -1 -20 hvcurveto
            -1 -16 -24 -1 -33 hhcurveto
            -182 305 221 hlineto
            53 40 -4 -5 25 hvcurveto
            -5 25 11 -1 9 hhcurveto
            34 17 23 23 26 -26 18 -49 -14 -16 -1 -1 -25 hvcurveto
            -1 -16 -19 0 -26 hhcurveto
            -754 return
          </CharString>
          <CharString index="1">
            81 522 rmoveto
            -323 270 -218 321 191 146 64 98 96 vhcurveto
            29 30 6 14 20 -15 callsubr
            14 -24 -19 -11 -8 -24 -19 vhcurveto
            -9 -11 -13 1 callgsubr
            rrcurveto
            -74 -80 -108 -45 -140 hhcurveto
            -33 -54 5 9 -45 hvcurveto
            429 660 vlineto
            1 25 1 24 23 vvcurveto
            328 -1 -253 188 -282 hhcurveto
            -382 -220 -253 -311 hvcurveto
            476 49 rmoveto
            431 vlineto
            8 35 53 3 41 hhcurveto
            45 62 -7 -12 41 hvcurveto
            -423 vlineto
            return
          </CharString>
          <CharString index="2">
            146 628 rmoveto
            -349 212 -298 428 391 240 281 389 1 vhcurveto
            598 vlineto
            25 1 26 2 25 vhcurveto
            1 18 2 14 16 vvcurveto
            28 -14 25 -30 -30 -19 -19 -33 -11 2 -17 4 -27 vhcurveto
            1 -19 2 -25 -28 vvcurveto
            -542 vlineto
            -460 -2 -241 -190 -285 hhcurveto
            -33 -67 3 8 -55 hvcurveto
            1349 -511 vlineto
            return
          </CharString>
          <CharString index="3">
            rmoveto
            110 68 52 69 71 -63 61 -110 -125 -54 -58 -68 -71 70 -56 104 hvcurveto
            -502 hmoveto
            110 67 52 69 71 -62 61 -111 -124 -55 -58 -68 -71 71 -56 104 hvcurveto
            endchar
          </CharString>
          <CharString index="4">
            rmoveto
            -459 334 -284 392 415 315 295 434 433 -304 290 -416 -423 -313 -302 -407 vhcurveto
            632 -662 rmoveto
            1290 vlineto
            6 40 36 2 27 hhcurveto
            378 263 -281 -369 -401 -296 -255 -345 -28 -37 2 6 -38 hvcurveto
            return
          </CharString>
          <CharString index="5">
            95 134 rmoveto
            -28 25 -28 52 -29 vhcurveto
            -43 74 121 -25 102 hhcurveto
            298 188 150 207 137 -68 100 -276 204 hvcurveto
            -138 100 -30 50 31 vvcurveto
            31 28 28 78 73 96 -20 -50 75 vhcurveto
            -23 31 14 -17 21 hhcurveto
            23 11 19 17 37 -46 35 -72 29 hvcurveto
            24 -60 -96 16 -81 hhcurveto
            -261 -169 -138 -165 -130 73 -110 300 -234 hvcurveto
            146 -114 22 -26 -39 vvcurveto
            -38 -51 -42 -121 -110 -116 34 57 -65 vhcurveto
            17 -18 -14 16 -18 hhcurveto
            -26 -15 -20 -20 hvcurveto
            return
          </CharString>
          <CharString index="6">
            81 545 rmoveto
            -337 249 -227 322 343 225 250 306 301 -216 248 -348 -331 -244 -235 -306 vhcurveto
            543 -489 rmoveto
            956 vlineto
            1 9 10 0 10 hhcurveto
            285 201 -192 -287 -304 -228 -175 -257 -9 -10 0 1 -11 hvcurveto
            return
          </CharString>
          <CharString index="7">
            hintmask 00000000
            hintmask 10101010
            -92 callgsubr
            hintmask 01011010
            83 -178 rlineto
            521 hlineto
            -684 1479 -499 -1212 -8 2 rlineto
            6 -33 -22 2 -7 hhcurveto
            -28 -21 -14 -27 -22 18 -19 31 -5 hvcurveto
            10 -2 13 -2 14 -1 rrcurveto
            hintmask 10101010
            -94 callgsubr
            hintmask 00000101
            return
          </CharString>
          <CharString index="8">
            88 720 rmoveto
            -432 302 -307 464 84 93 13 24 78 vhcurveto
            -40 callsubr
            52 35 14 25 22 vvcurveto
            24 -13 22 -28 -22 -14 -12 -34 -29 vhcurveto
            -102 -87 -177 -34 -135 hhcurveto
            -32 -48 4 8 -47 hvcurveto
            1282 vlineto
            8 38 39 4 46 hhcurveto
            138 181 -48 -77 69 hvcurveto
            -20 18 21 -8 15 hhcurveto
            27 18 22 25 27 -36 36 -115 51 hvcurveto
            38 -83 -131 26 -115 hhcurveto
            -442 -333 -293 -420 hvcurveto
            return
          </CharString>
          <CharString index="9">
            192 339 rmoveto
            -223 115 -135 277 91 75 19 32 59 vhcurveto
            103 58 54 82 43 vvcurveto
            28 -18 20 -23 -22 -16 -13 -49 -17 vhcurveto
            -11 -29 -20 -31 -24 -19 -55 -47 -59 -19 -81 -1 rrcurveto
            940 110 vlineto
            35 21 -1 -1 17 hvcurveto
            -1 19 13 -2 19 hhcurveto
            28 26 15 25 28 -25 14 -34 -11 -10 -1 -1 -20 hvcurveto
            -1 -16 -18 -1 -20 hhcurveto
            -134 347 hlineto
            -429 -192 rlineto
            -155 -15 vlineto
            -22 -17 -3 callgsubr
            -21 -11 1 -10 hhcurveto
            -36 -22 -14 -28 -25 24 -15 30 18 13 2 1 20 hvcurveto
            1 14 21 1 29 hhcurveto
            return
          </CharString>
          <CharString index="10">
            77 hintmask 00000000
            hintmask 10100100
            88 689 rmoveto
            -445 315 -263 367 247 222 106 213 127 vhcurveto
            -131 vlineto
            hintmask 01100100
            -33 -1 -49 -1 -14 vhcurveto
            -2 -17 -2 -14 -7 vvcurveto
            -31 16 -15 28 24 21 20 32 23 -2 21 -2 38 vhcurveto
            -1 19 -1 26 28 vvcurveto
            329 vlineto
            35 0 21 2 19 vhcurveto
            2 18 2 15 18 vvcurveto
            28 -17 22 -29 -28 -14 -22 -31 -10 1 -12 2 -16 vhcurveto
            1 -14 1 -17 -21 vvcurveto
            -96 vlineto
            hintmask 10100100
            -281 -109 -238 -126 -238 hhcurveto
            -12 -15 0 1 -15 hvcurveto
            1294 vlineto
            7 35 36 3 45 hhcurveto
            55 63 -2 -41 120 hvcurveto
            61 -22 54 -43 28 -26 rrcurveto
            -17 20 20 -10 16 hhcurveto
            25 18 22 25 27 -41 45 -114 51 hvcurveto
            38 -84 -113 26 -114 hhcurveto
            -464 -317 -342 -402 hvcurveto
            hintmask 00011000
            return
          </CharString>
          <CharString index="11">
            54 120 -157 137 hhcurveto
            139 115 128 115 27 -18 23 -21 -24 -6 -14 -51 -8 hvcurveto
            -56 -9 -25 -36 -23 hhcurveto
            return
          </CharString>
          <CharString index="12">
            439 33 rmoveto
            -27 17 -17 26 32 20 17 35 17 vhcurveto
            10 21 6 13 48 88 622 1106 rcurveline
            44 78 7 17 21 vvcurveto
            27 -15 14 -26 -23 -17 -19 -33 -12 vhcurveto
            -9 -24 -17 -40 -23 -43 -256 -455 rcurveline
            -286 603 rlineto
            -583 hlineto
            594 -1089 -51 -91 -37 -63 -29 -41 -27 -32 rlinecurve
            -25 -30 -7 -15 -21 vvcurveto
            return
          </CharString>
          <CharString index="13">
            hintmask 00000000
            hintmask 10010000
            172 324 rmoveto
            -228 113 -115 238 134 140 54 119 113 vhcurveto
            hintmask 01010000
            -154 -54 callsubr
            -804 vlineto
            hintmask 10010000
            -81 callgsubr
            hintmask 00101000
            return
          </CharString>
          <CharString index="14">
            -28 callsubr
            74 92 86 -82 93 -148 -139 -98 -79 -88 -105 83 -73 -36 callsubr
          </CharString>
          <CharString index="15">
            177 hmoveto
            510 1342 hlineto
            1 21 27 0 36 hhcurveto
            92 73 -5 -16 60 hvcurveto
            217 -57 142 -135 -222 vvcurveto
            -246 -189 -183 -233 -13 -11 1 1 -10 vhcurveto
            2 -14 -14 2 -20 hhcurveto
            -46 -24 -18 -25 -21 16 -25 53 hvcurveto
            8 8 1 8 hhcurveto
            1 7 7 1 7 hhcurveto
            21 4 -2 -23 9 hvcurveto
            7 -16 7 -21 15 -34 rrcurveto
            return
          </CharString>
          <CharString index="16">
            -291 -185 -164 -221 hvcurveto
            457 -326 rmoveto
            636 vlineto
            2 12 -28 callgsubr
            80 83 -18 -43 88 hvcurveto
            return
          </CharString>
          <CharString index="17">
            514 -45 rmoveto
            323 639 334 -639 389 889 rlineto
            73 165 2 12 25 vvcurveto
            16 -16 24 -27 -24 -20 -18 -38 -9 vhcurveto
            -9 -41 -22 -62 -35 -80 -143 -324 rcurveline
            -315 591 -302 -584 -256 538 rlineto
            -453 hlineto
            return
          </CharString>
          <CharString index="18">
            -50 callsubr
            hstemhm
            1015 79 hintmask 00000000
            hintmask 11101000
            -99 callgsubr
            hintmask 11111000
            151 -92 119 -137 67 vhcurveto
            43 46 51 32 42 hhcurveto
            9 23 -2 -5 14 hvcurveto
            -6 20 14 -3 15 hhcurveto
            27 27 14 35 34 -33 26 -67 -92 -92 -59 -78 -79 hvcurveto
            hintmask 11101000
            19 -61 -67 11 -69 hhcurveto
            -295 -203 -168 -223 -147 80 -114 123 -68 hvcurveto
            -133 -61 -70 -84 -98 vvcurveto
            506 246 rmoveto
            646 vlineto
            196 -4 218 -115 -210 vvcurveto
            -214 -220 -100 -194 -3 vhcurveto
            return
          </CharString>
          <CharString index="19">
            55 -138 66 -87 78 -47 rrcurveto
            -34 52 60 -16 53 hhcurveto
            80 44 21 32 25 -13 13 -24 -11 -9 -3 -5 -16 hvcurveto
            -6 -15 -16 -5 -12 hhcurveto
            -116 -119 80 281 -90 hvcurveto
            264 56 162 208 236 vvcurveto
            248 -182 183 -249 47 vhcurveto
            21 -116 -76 2 -293 hhcurveto
            -338 hlineto
            return
          </CharString>
          <CharString index="20">
            -45 callsubr
            hstemhm
            1366 77 10 callgsubr
            88 689 rmoveto
            -445 315 -263 367 247 222 106 213 127 vhcurveto
            -131 vlineto
            hintmask 01110000
            -33 -1 -49 -1 -14 vhcurveto
            -2 -17 -2 -14 -7 vvcurveto
            -31 16 -15 28 24 21 20 32 23 -2 21 -2 38 vhcurveto
            -1 19 -1 26 28 vvcurveto
            329 vlineto
            35 0 21 2 19 vhcurveto
            2 18 2 15 18 vvcurveto
            28 -17 22 -29 -28 -14 -22 -31 -10 1 -12 2 -16 vhcurveto
            1 -14 1 -17 -21 vvcurveto
            -96 vlineto
            hintmask 10110000
            -281 -109 -238 -126 -238 hhcurveto
            -12 -15 0 1 -15 hvcurveto
            1294 vlineto
            7 35 36 3 45 hhcurveto
            55 63 -2 -41 120 hvcurveto
            61 -22 54 -43 28 -26 rrcurveto
            -17 20 20 -10 16 hhcurveto
            25 18 22 25 27 -41 45 -114 51 hvcurveto
            38 -84 -113 26 -114 hhcurveto
            -464 -317 -342 -402 hvcurveto
            return
          </CharString>
          <CharString index="21">
            177 hmoveto
            338 hlineto
            304 134 22 65 135 hvcurveto
            250 124 152 222 293 vvcurveto
            271 -136 240 -242 103 vhcurveto
            52 -120 -119 23 -280 hhcurveto
            -416 hlineto
            return
          </CharString>
          <CharString index="22">
            -94 71 -78 118 112 75 67 46 19 -13 17 -19 -19 -7 -5 -30 -27 vhcurveto
            -29 -25 -30 -11 -42 hhcurveto
            -76 return
          </CharString>
          <CharString index="23">
            41 hmoveto
            931 hlineto
            73 28 22 24 24 -19 -1 callgsubr
            -6 -25 hvcurveto
            -4 -25 -40 -3 -52 hhcurveto
            -329 hlineto
            554 995 rlineto
            -866 hlineto
            -69 -30 -16 -31 -22 18 -18 35 8 12 1 5 25 hvcurveto
            4 25 41 4 51 hhcurveto
            301 hlineto
            return
          </CharString>
          <CharString index="24">
            rmoveto
            154 hlineto
            -117 284 rlineto
            -281 hlineto
            endchar
          </CharString>
          <CharString index="25">
            26 17 18 24 16 -1 13 -2 24 hvcurveto
            -3 37 -2 17 50 vvcurveto
            162 157 vlineto
            29 32 0 -1 28 hvcurveto
            20 -1 31 -3 11 -1 rrcurveto
            31 -2 23 22 25 vvcurveto
            26 -20 17 -24 -16 -13 -1 -1 -23 vhcurveto
            -3 -38 -15 -3 -50 hhcurveto
            -163 165 hlineto
            50 2 13 3 37 vhcurveto
            2 24 1 14 16 vvcurveto
            24 -17 18 -26 -27 -20 -20 -32 2 vhcurveto
            -11 2 -33 1 -19 vhcurveto
            1 -28 1 -32 -28 vvcurveto
            -158 -164 vlineto
            -51 -13 3 3 -37 hvcurveto
            1 -24 -12 1 -17 hhcurveto
            -24 -17 -17 -26 -25 19 -22 33 2 hvcurveto
            10 1 32 3 19 1 rrcurveto
            1 28 32 0 30 hhcurveto
            156 -158 hlineto
            -28 -1 -31 -1 -30 vhcurveto
            -1 -19 -2 -31 -11 vvcurveto
            return
          </CharString>
          <CharString index="26">
            rmoveto
            156 -57 callsubr
            -281 hlineto
            endchar
          </CharString>
          <CharString index="27">
            -26 callsubr
            193 284 rlineto
            -231 hlineto
            -492 -284 -26 callsubr
            193 284 rlineto
            -231 hlineto
            endchar
          </CharString>
          <CharString index="28">
            vvcurveto
            -85 callsubr
            return
          </CharString>
          <CharString index="29">
            129 90 92 108 98 -81 102 -137 -55 -44 -13 -22 -32 hvcurveto
            2 33 10 30 12 18 22 33 39 41 36 16 rrcurveto
            33 14 15 2 21 vvcurveto
            27 -17 17 -30 -22 -24 -10 -17 -23 vhcurveto
            -89 -70 -79 -126 -153 vvcurveto
            -138 91 -103 154 vhcurveto
            return
          </CharString>
          <CharString index="30">
            -4 -24 -40 -4 -53 hhcurveto
            -892 hlineto
            -78 -21 -21 -26 -22 15 -18 36 8 12 1 5 26 hvcurveto
            5 23 41 4 51 hhcurveto
            150 return
          </CharString>
          <CharString index="31">
            rmoveto
            -80 90 126 -15 100 hhcurveto
            443 155 225 328 hvcurveto
            881 -511 -1358 vlineto
            -7 -28 -19 -2 -33 hhcurveto
            -110 -121 33 78 -43 hvcurveto
            -18 30 -15 9 -24 4 -21 3 -16 -14 -3 -22 -6 -39 35 -35 19 -19 rrcurveto
            return
          </CharString>
          <CharString index="32">
            vlineto
            -42 17 -12 46 -1 vhcurveto
            106 -1 49 -27 -29 vvcurveto
            -31 -48 -35 -98 -58 -64 15 26 -31 vhcurveto
            16 -19 -10 11 -23 hhcurveto
            return
          </CharString>
          <CharString index="33">
            5 -19 -67 callgsubr
            return
          </CharString>
          <CharString index="34">
            rmoveto
            543 hlineto
            65 33 12 29 21 -18 15 -26 -6 -16 -2 -2 -14 hvcurveto
            -4 -19 -20 -1 -29 hhcurveto
            -106 hlineto
            15 47 27 54 61 102 rrcurveto
            114 198 12 36 79 vvcurveto
            105 -126 92 -195 -91 -70 -21 -34 -58 vhcurveto
            -45 -26 -23 -25 -25 vvcurveto
            -16 11 -17 19 15 14 9 18 13 vhcurveto
            44 30 71 27 65 hhcurveto
            64 41 -20 -38 -28 -12 -27 -129 -189 hvcurveto
            -157 -231 -45 -99 -8 -83 rrcurveto
            endchar
          </CharString>
          <CharString index="35">
            -71 callsubr
            795 hlineto
            108 78 101 72 64 hhcurveto
            22 22 1 -6 14 hvcurveto
            -970 429 744 vlineto
            16 -1 16 -1 16 vhcurveto
            109 79 102 74 65 hhcurveto
            21 22 2 -6 14 hvcurveto
            -971 429 -3 callsubr
            -114 114 -237 -139 -145 -69 -131 -114 vhcurveto
            133 -42 -110 67 -181 hhcurveto
            -131 -137 -62 -117 -110 hvcurveto
            161 -430 vlineto
            return
          </CharString>
          <CharString index="36">
            173 hmoveto
            430 return
          </CharString>
          <CharString index="37">
            -365 -217 -251 -294 hvcurveto
            503 -480 rmoveto
            948 vlineto
            3 19 20 1 20 hhcurveto
            96 95 return
          </CharString>
          <CharString index="38">
            31 26 -1 -2 21 hvcurveto
            -2 23 -11 callgsubr
            22 18 25 27 -22 17 -35 -22 -15 -1 -2 -21 hvcurveto
            -2 -22 -37 -4 -43 hhcurveto
            -1 189 hlineto
            -24 callgsubr
            -24 -17 -16 -34 vhcurveto
            -37 8 -5 -121 vvcurveto
            -156 -28 vlineto
            -29 -28 4 -20 callgsubr
            1 -17 hhcurveto
            -35 -22 -17 -27 -25 26 -18 31 28 22 3 2 24 hvcurveto
            2 22 26 0 28 hhcurveto
            19 return
          </CharString>
          <CharString index="39">
            39 -51 callgsubr
            17 -35 return
          </CharString>
          <CharString index="40">
            -79 callsubr
            -30 49 54 return
          </CharString>
          <CharString index="41">
            -50 10 -21 32 -21 178 73 -66 92 1202 -20 return
          </CharString>
          <CharString index="42">
            177 hmoveto
            510 911 224 hlineto
            23 18 -1 -1 15 hvcurveto
            20 11 -1 10 hhcurveto
            34 24 12 28 26 -26 14 -28 -18 -14 -2 -1 -18 hvcurveto
            -1 -18 -20 -1 -36 hhcurveto
            -201 360 263 hlineto
            50 41 -4 -5 24 hvcurveto
            -5 25 12 -1 8 hhcurveto
            35 18 23 23 26 -27 18 -48 -12 -11 0 -1 -14 hvcurveto
            -1 -20 -25 -1 -35 hhcurveto
            -794 hlineto
            return
          </CharString>
          <CharString index="43">
            81 vstem
            649 441 rmoveto
            343 225 250 306 301 -216 248 -348 -343 -225 -250 -306 -301 216 -248 348 hvcurveto
            2 74 rmoveto
            -284 -1 -201 192 287 vvcurveto
            304 228 175 257 vhcurveto
            -1 1 rlineto
            285 201 -192 -287 -304 -228 -175 -257 hvcurveto
            return
          </CharString>
          <CharString index="44">
            rmoveto
            338 781 hlineto
            -346 -86 -42 -11 -55 -15 -14 -5 rlinecurve
            -39 -14 -7 -13 -18 vvcurveto
            -20 16 -13 23 13 12 5 6 14 vhcurveto
            18 6 13 7 34 10 22 7 rcurveline
            return
          </CharString>
          <CharString index="45">
            -41 -36 -16 rrcurveto
            -33 -14 -15 -2 -21 vvcurveto
            return
          </CharString>
          <CharString index="46">
            19 29 10 45 7 hvcurveto
            41 250 76 128 63 vvcurveto
            74 -64 51 -105 -124 -51 -60 -65 -76 75 -115 37 -253 vhcurveto
            -45 7 35 -7 18 hhcurveto
            return
          </CharString>
          <CharString index="47">
            hintmask 00000000
            hintmask 11001000
            363 hmoveto
            512 1343 232 hlineto
            77 20 20 26 hvcurveto
            hintmask 10101000
            23 -15 -1 callgsubr
            -5 -25 vhcurveto
            hintmask 11001000
            -77 callsubr
            hlineto
            hintmask 00010100
            return
          </CharString>
          <CharString index="48">
            -11 32 58 -6 46 hhcurveto
            147 81 68 76 71 -60 52 -156 2 hvcurveto
            return
          </CharString>
          <CharString index="49">
            24 rmoveto
            -25 17 -18 23 38 13 22 161 105 vhcurveto
            626 986 72 112 19 29 24 34 rlinecurve
            20 29 11 19 23 vvcurveto
            23 -18 14 -22 -30 -14 -21 -29 -15 vhcurveto
            -14 -27 -17 -39 -27 -41 -666 -1037 rcurveline
            -35 -54 -33 -48 -25 -27 rrcurveto
            -41 -45 -11 -18 -23 vvcurveto
            return
          </CharString>
          <CharString index="50">
            hlineto
            243 284 rlineto
            return
          </CharString>
          <CharString index="51">
            57 82 96 25 88 hhcurveto
            24 28 -2 -4 25 hvcurveto
            -950 vlineto
            -2 -14 -16 0 -19 hhcurveto
            return
          </CharString>
          <CharString index="52">
            -105 -19 -50 callgsubr
            return
          </CharString>
          <CharString index="53">
            430 1068 -430 return
          </CharString>
          <CharString index="54">
            84 541 rmoveto
            -328 227 -232 344 96 91 22 52 88 vhcurveto
            return
          </CharString>
          <CharString index="55">
            268 -19 73 1306 73 return
          </CharString>
          <CharString index="56">
            -21 20 -15 32 10 18 2 2 11 vhcurveto
            1 7 9 1 9 hhcurveto
            8 14 0 -1 13 hvcurveto
            -340 vlineto
            -2 -11 -12 0 -14 hhcurveto
            -93 -103 43 46 -30 hvcurveto
            24 -13 -15 10 -17 hhcurveto
            -22 -11 -16 -19 hvcurveto
            return
          </CharString>
          <CharString index="57">
            -211 -355 70 581 73 646 71 14 93 return
          </CharString>
          <CharString index="58">
            130 -34 -21 65 -39 callgsubr
            73 -20 return
          </CharString>
          <CharString index="59">
            404 -720 384 800 248 -764 rlineto
            537 hlineto
            -513 1479 -429 -854 -442 854 -411 -1231 -34 -82 -11 -23 -21 -40 rlinecurve
            return
          </CharString>
          <CharString index="60">
            -187 141 -130 192 2 vhcurveto
            177 1 148 130 179 vvcurveto
            187 -147 122 -176 -190 -145 -128 -176 vhcurveto
            return
          </CharString>
          <CharString index="61">
            -19 -47 -17 -30 -13 -21 rrcurveto
            -18 -25 -11 -19 -13 vvcurveto
            193 229 rmoveto
            409 958 rlineto
            1 -966 -238 hlineto
            -37 -72 3 5 -63 hvcurveto
            return
          </CharString>
          <CharString index="62">
            214 -19 74 -45 -21 1371 73 return
          </CharString>
          <CharString index="63">
            hlineto
            32 25 -1 -1 22 hvcurveto
            -2 22 -11 callgsubr
            23 19 25 27 -23 16 -35 -22 -16 -2 4 callsubr
            -2 -23 -37 -3 -43 hhcurveto
            return
          </CharString>
          <CharString index="64">
            135 102 89 111 105 -81 112 -150 -138 -97 -97 -105 return
          </CharString>
          <CharString index="65">
            -31 -10 callgsubr
            2 -21 -21 2 -17 hhcurveto
            return
          </CharString>
          <CharString index="66">
            -58 -83 -93 -30 -89 hhcurveto
            -25 -29 2 4 -24 hvcurveto
            return
          </CharString>
          <CharString index="67">
            64 18 60 30 66 43 rrcurveto
            return
          </CharString>
          <CharString index="68">
            -2 -2 -19 hvcurveto
            return
          </CharString>
          <CharString index="69">
            8 30 rmoveto
            -22 18 -19 25 30 17 16 58 21 vhcurveto
            9 26 18 39 22 53 rrcurveto
            -2 59 79 -1 113 hhcurveto
            192 hlineto
            return
          </CharString>
          <CharString index="70">
            96 -19 72 -32 -21 399 80 864 72 return
          </CharString>
          <CharString index="71">
            -10 callsubr
            endchar
          </CharString>
          <CharString index="72">
            71 369 -20 hstem
            308 77 vstem
            296 28 rmoveto
            -26 16 -21 27 26 23 21 34 vhcurveto
            19 -3 6 77 vvcurveto
            return
          </CharString>
          <CharString index="73">
            -382 -19 69 969 67 return
          </CharString>
          <CharString index="74">
            -128 83 -88 148 -74 callgsubr
            vhcurveto
            endchar
          </CharString>
          <CharString index="75">
            558 -34 -21 1481 -20 73 -20 return
          </CharString>
          <CharString index="76">
            21 -21 995 73 292 73 return
          </CharString>
          <CharString index="77">
            1068 -430 hlineto
            return
          </CharString>
          <CharString index="78">
            hstemhm
            9 1302 return
          </CharString>
          <CharString index="79">
            rmoveto
            133 103 return
          </CharString>
          <CharString index="80">
            hlineto
            -29 -28 3 -20 callgsubr
            2 -18 hhcurveto
            -35 -22 -17 -27 -25 25 -19 32 hvcurveto
            endchar
          </CharString>
          <CharString index="81">
            rmoveto
            156 hlineto
            return
          </CharString>
          <CharString index="82">
            rmoveto
            -109 69 -75 127 116 87 76 95 90 -69 96 -129 -118 -83 -83 -90 vhcurveto
            return
          </CharString>
          <CharString index="83">
            hstemhm
            160 945 return
          </CharString>
          <CharString index="84">
            hstemhm
            81 1138 return
          </CharString>
          <CharString index="85">
            vhcurveto
            -5 -21 -3 -18 -15 vvcurveto
            return
          </CharString>
          <CharString index="86">
            21 -23 callgsubr
            return
          </CharString>
          <CharString index="87">
            -648 21 -21 return
          </CharString>
          <CharString index="88">
            -25 25 -36 35 -24 vhcurveto
            322 661 rmoveto
            -6 2 rlineto
            2 2 -1 -1 2 hvcurveto
            return
          </CharString>
          <CharString index="89">
            157 323 hstemhm
            return
          </CharString>
          <CharString index="90">
            -27 -24 25 return
          </CharString>
          <CharString index="91">
            -338 73 123 73 return
          </CharString>
          <CharString index="92">
            vvcurveto
            22 -15 return
          </CharString>
          <CharString index="93">
            186 -147 122 -177 -188 -149 -128 -175 vhcurveto
            return
          </CharString>
          <CharString index="94">
            92 -21 callsubr
            return
          </CharString>
          <CharString index="95">
            2 -21 1452 -20 hstem
            return
          </CharString>
          <CharString index="96">
            2 -24 hvcurveto
            2 -23 return
          </CharString>
          <CharString index="97">
            148 hvcurveto
            return
          </CharString>
          <CharString index="98">
            116 70 hstemhm
            return
          </CharString>
          <CharString index="99">
            hlineto
            32 23 -1 -1 23 hvcurveto
            -2 23 -11 callgsubr
            21 return
          </CharString>
          <CharString index="100">
            -154 vhcurveto
            return
          </CharString>
          <CharString index="101">
            27 37 12 23 -4 20 -6 24 -25 8 -20 -4 -26 -6 return
          </CharString>
          <CharString index="102">
            173 0 82 1257 76 return
          </CharString>
          <CharString index="103">
            -299 -21 301 74 return
          </CharString>
          <CharString index="104">
            744 vlineto
            228 return
          </CharString>
          <CharString index="105">
            21 -21 hstem
            173 return
          </CharString>
          <CharString index="106">
            hstemhm
            1 1203 return
          </CharString>
          <CharString index="107">
            hstemhm
            173 430 return
          </CharString>
          <CharString index="108">
            -391 332 73 319 73 hstem
            97 796 vstem
            return
          </CharString>
          <CharString index="109">
            -186 145 -131 191 3 vhcurveto
            -20 67 rmoveto
            return
          </CharString>
          <CharString index="110">
            607 -19 -26 callgsubr
            124 72 246 73 return
          </CharString>
          <CharString index="111">
            -1 -19 hvcurveto
            return
          </CharString>
          <CharString index="112">
            55 -411 vlineto
            411 -935 rmoveto
            798 vlineto
            return
          </CharString>
          <CharString index="113">
            25 22 38 vhcurveto
            21 -3 27 66 vvcurveto
            1329 return
          </CharString>
          <CharString index="114">
            -31 callsubr
            hstemhm
            4 956 return
          </CharString>
          <CharString index="115">
            28 23 2 2 23 hvcurveto
            1 23 24 1 30 hhcurveto
            return
          </CharString>
          <CharString index="116">
            430 -3 callsubr
            return
          </CharString>
          <CharString index="117">
            hintmask 0000000000000000
            return
          </CharString>
          <CharString index="118">
            -21 1243 323 hstemhm
            164 454 return
          </CharString>
          <CharString index="119">
            hhcurveto
            561 -329 vlineto
            -314 -497 rlineto
            return
          </CharString>
          <CharString index="120">
            284 hstem
            201 723 vstem
            575 return
          </CharString>
          <CharString index="121">
            -26 hvcurveto
            2 -22 -21 1 -17 hhcurveto
            -34 -23 return
          </CharString>
          <CharString index="122">
            3 rlineto
            1 -23 -21 2 -16 hhcurveto
            -35 -22 return
          </CharString>
          <CharString index="123">
            -471 -198 76 1617 78 hstem
            return
          </CharString>
          <CharString index="124">
            -36 -22 -17 -2 4 callsubr
            -2 -21 -38 return
          </CharString>
          <CharString index="125">
            -247 21 -21 911 72 360 72 return
          </CharString>
        <CharString name=".notdef">
          -994 endchar
        </CharString>
        <CharString name=".null">
          endchar
        </CharString>
        <CharString name="A">
          -66 callsubr
          -29 callsubr
          hintmask 00000000
          hintmask 10101100
          -92 callgsubr
          hintmask 01011100
          83 -178 rlineto
          521 hlineto
          -684 1479 -499 -1212 -8 2 rlineto
          6 -33 -22 2 -7 hhcurveto
          -28 -21 -14 -27 -22 18 -19 31 -5 hvcurveto
          10 -2 13 -2 14 -1 rrcurveto
          hintmask 10101100
          -94 callgsubr
          endchar
        </CharString>
        <CharString name="AE">
          -14 callgsubr
          hstemhm
          1 1555 hintmask 00000000
          hintmask 01101110
          -38 callsubr
          hintmask 10011110
          -178 847 vlineto
          -107 callsubr
          -1 hlineto
          -1 1 -490 -1148 -8 2 rlineto
          6 -33 -22 2 -7 hhcurveto
          -28 -21 -14 -27 -22 18 -19 31 -5 hvcurveto
          10 -2 12 -2 14 -1 rrcurveto
          hintmask 01101110
          -46 callsubr
          endchar
        </CharString>
        <CharString name="AEacute">
          -14 callgsubr
          113 -35 callgsubr
          1 1555 -567 398 10 callsubr
          hintmask 0110110100000000
          -38 callsubr
          hintmask 1001110100000000
          -178 847 vlineto
          -107 callsubr
          -1 hlineto
          -1 1 -490 -1148 -8 2 rlineto
          6 -33 -22 2 -7 hhcurveto
          -28 -21 -14 -27 -22 18 -19 31 -5 hvcurveto
          10 -2 12 -2 14 -1 rrcurveto
          hintmask 0110110100000000
          -46 callsubr
          hintmask 0000001010000000
          788 1269 -83 callgsubr
        </CharString>
        <CharString name="Aacute">
          -66 callsubr
          69 284 -29 callsubr
          -662 398 -100 callsubr
          440 1269 -83 callgsubr
        </CharString>
        <CharString name="Abreve">
          -66 callsubr
          70 73 -29 callsubr
          -924 531 -100 callsubr
          445 1270 -102 callgsubr
        </CharString>
        <CharString name="Acircumflex">
          -66 callsubr
          285 70 -29 callsubr
          -999 760 -100 callsubr
          142 1263 -107 callgsubr
        </CharString>
        <CharString name="Adieresis">
          -66 callsubr
          71 253 -29 callsubr
          -1089 855 -100 callsubr
          690 1271 -104 callsubr
        </CharString>
        <CharString name="Agrave">
          -50 10 -21 32 -21 178 73 -66 92 1139 284 -221 -20 -29 callsubr
          -1034 398 hintmask 00000000
          hintmask 10100110
          -92 callgsubr
          hintmask 01010110
          83 -178 rlineto
          521 hlineto
          -684 1479 -499 -1212 -8 2 rlineto
          6 -33 -22 2 -7 hhcurveto
          -28 -21 -14 -27 -22 18 -19 31 -5 hvcurveto
          10 -2 13 -2 14 -1 rrcurveto
          hintmask 10100110
          -94 callgsubr
          hintmask 00001001
          312 1157 -83 callsubr
        </CharString>
        <CharString name="Amacron">
          -66 callsubr
          262 72 -29 callsubr
          -1016 721 -100 callsubr
          143 1453 rmoveto
          28 22 3 2 24 hvcurveto
          3 22 25 1 29 hhcurveto
          311 hlineto
          32 24 -1 -3 22 hvcurveto
          -2 24 19 -2 22 hhcurveto
          -68 callsubr
          -21 -18 -39 callsubr
          -2 -22 -37 -2 -42 hhcurveto
          -307 hlineto
          -30 -28 2 -11 callsubr
          -19 2 -18 hhcurveto
          -65 callgsubr
          hvcurveto
          endchar
        </CharString>
        <CharString name="Aogonek">
          -50 -361 74 297 -21 32 -21 178 73 -66 92 1202 -20 hstemhm
          943 78 hintmask 00000000
          hintmask 11010110
          -92 callgsubr
          hintmask 10101110
          83 -178 rlineto
          228 hlineto
          -48 -32 -27 -102 -55 -79 callsubr
          -40 59 54 50 22 92 65 32 hvcurveto
          203 hlineto
          -684 1479 -499 -1212 -8 2 rlineto
          6 -33 -22 2 -7 hhcurveto
          -28 -21 -14 -27 -22 18 -19 31 -5 hvcurveto
          10 -2 13 -2 14 -1 rrcurveto
          hintmask 11010110
          -94 callgsubr
          endchar
        </CharString>
        <CharString name="Aring">
          -66 callsubr
          71 72 157 74 -29 callsubr
          -814 76 161 75 10 callsubr
          hintmask 1010100100000000
          -92 callgsubr
          hintmask 0101100100000000
          83 -178 rlineto
          521 hlineto
          -684 1479 -499 -1212 -8 2 rlineto
          6 -33 -22 2 -7 hhcurveto
          -28 -21 -14 -27 -22 18 -19 31 -5 hvcurveto
          10 -2 13 -2 14 -1 rrcurveto
          hintmask 1010100100000000
          -94 callgsubr
          hintmask 0000011011000000
          444 1271 -85 callgsubr
        </CharString>
        <CharString name="Atilde">
          -66 callsubr
          71 -45 callgsubr
          -29 callsubr
          -1002 706 10 callsubr
          hintmask 1010100100000000
          -92 callgsubr
          hintmask 0101100100000000
          83 -178 rlineto
          521 hlineto
          -684 1479 -499 -1212 -8 2 rlineto
          6 -33 -22 2 -7 hhcurveto
          -28 -21 -14 -27 -22 18 -19 31 -5 hvcurveto
          10 -2 13 -2 14 -1 rrcurveto
          hintmask 1010100100000000
          -94 callgsubr
          10 callsubr
          139 1281 rmoveto
          -75 callgsubr
          hintmask 0000001010000000
          -96 callsubr
          hintmask 0000011010000000
          -82 callgsubr
          -25 callgsubr
          hvcurveto
          endchar
        </CharString>
        <CharString name="B">
          98 0 74 771 72 426 72 hstem
          1099 84 166 86 vstem
          -80 callgsubr
          endchar
        </CharString>
        <CharString name="C">
          -21 callgsubr
          hstem
          88 1277 vstem
          -99 callsubr
          endchar
        </CharString>
        <CharString name="CR">
          endchar
        </CharString>
        <CharString name="Cacute">
          -21 callgsubr
          95 -35 callgsubr
          88 1277 -506 398 hintmask 11010000
          -99 callsubr
          hintmask 00101000
          771 808 -83 callgsubr
        </CharString>
        <CharString name="Ccaron">
          -21 callgsubr
          98 70 hstemhm
          88 1277 -875 760 hintmask 11010000
          -99 callsubr
          hintmask 00101000
          664 811 -105 callgsubr
        </CharString>
        <CharString name="Ccedilla">
          31 -16 callsubr
          50 74 1306 72 hstemhm
          88 1277 -536 78 140 76 hintmask 11110110
          656 -233 rmoveto
          0 callgsubr
          vhcurveto
          -59 callsubr
          52 vlineto
          69 4 71 12 62 19 -40 callsubr
          hintmask 11111000
          52 35 14 25 22 vvcurveto
          24 -13 22 -28 -22 -14 -12 -34 -29 vhcurveto
          -102 -87 -177 -34 -135 hhcurveto
          -32 -48 4 8 -47 hvcurveto
          1282 vlineto
          8 38 39 4 46 hhcurveto
          138 181 -48 -77 69 hvcurveto
          -20 18 21 -8 15 hhcurveto
          27 18 22 25 27 -36 36 -115 51 hvcurveto
          38 -83 -131 26 -115 hhcurveto
          -442 -333 -293 -420 hvcurveto
          hintmask 11110110
          -424 291 -303 450 -11 vhcurveto
          -69 -75 callsubr
          -26 -14 -18 -18 hvcurveto
          endchar
        </CharString>
        <CharString name="Ccircumflex">
          -21 callgsubr
          311 70 hstemhm
          88 1277 -843 760 hintmask 11010000
          -99 callsubr
          hintmask 00101000
          473 802 -107 callgsubr
        </CharString>
        <CharString name="Cdotaccent">
          -21 callgsubr
          76 345 hstemhm
          88 1277 -733 467 hintmask 11010000
          -99 callsubr
          hintmask 00101000
          775 789 -93 callsubr
        </CharString>
        <CharString name="D">
          -5 callsubr
          hstem
          1405 85 vstem
          -86 callsubr
          510 -1332 rmoveto
          1256 vlineto
          173 -3 116 -20 88 -37 rrcurveto
          219 -90 122 -222 -243 vvcurveto
          -405 -318 -237 -348 -12 -19 0 1 -21 vhcurveto
          endchar
        </CharString>
        <CharString name="Dcaron">
          -5 callsubr
          -9 callsubr
          377 760 268 85 hintmask 11001000
          -86 callsubr
          510 -1332 rmoveto
          1256 vlineto
          173 -3 116 -20 88 -37 rrcurveto
          219 -90 122 -222 -243 vvcurveto
          -405 -318 -237 -348 -12 -19 0 1 -21 vhcurveto
          hintmask 00110000
          -48 1448 -105 callgsubr
        </CharString>
        <CharString name="Dcroat">
          -86 callgsubr
        </CharString>
        <CharString name="Delta">
          -20 0 80 hstem
          97 1166 vstem
          97 55 rmoveto
          -27 15 -28 45 vhcurveto
          1041 hlineto
          49 16 22 27 17 -13 31 -27 78 hvcurveto
          -484 1360 rlineto
          34 -12 -15 24 -33 hhcurveto
          -31 -15 -18 -40 -13 hvcurveto
          -480 -1347 rlineto
          -22 -60 -21 -49 -24 vvcurveto
          99 25 rmoveto
          481 1373 484 -1373 rlineto
          endchar
        </CharString>
        <CharString name="E">
          -58 callgsubr
          hstem
          160 945 vstem
          160 hmoveto
          847 hlineto
          -107 callsubr
          hlineto
          endchar
        </CharString>
        <CharString name="Eacute">
          -58 callgsubr
          113 284 -24 callsubr
          -448 398 hintmask 11101000
          160 hmoveto
          847 hlineto
          -107 callsubr
          hlineto
          hintmask 00010100
          497 113 -83 callgsubr
        </CharString>
        <CharString name="Ebreve">
          -58 callgsubr
          114 73 -24 callsubr
          -710 531 hintmask 11101000
          160 hmoveto
          847 hlineto
          -107 callsubr
          hlineto
          hintmask 00010100
          502 114 -102 callgsubr
        </CharString>
        <CharString name="Ecaron">
          -58 callgsubr
          116 70 -24 callsubr
          -817 760 hintmask 11101000
          160 hmoveto
          847 hlineto
          -107 callsubr
          hlineto
          hintmask 00010100
          390 116 -105 callgsubr
        </CharString>
        <CharString name="Ecircumflex">
          -58 callgsubr
          329 70 -24 callsubr
          -785 760 hintmask 11101000
          160 hmoveto
          847 hlineto
          -107 callsubr
          hlineto
          hintmask 00010100
          199 107 -107 callgsubr
        </CharString>
        <CharString name="Edieresis">
          -58 callgsubr
          115 253 -24 callsubr
          -875 855 hintmask 11101000
          160 hmoveto
          847 hlineto
          -107 callsubr
          hlineto
          hintmask 00010100
          747 115 -104 callsubr
        </CharString>
        <CharString name="Edotaccent">
          -58 callgsubr
          94 345 -24 callsubr
          -675 467 hintmask 11101000
          160 hmoveto
          847 hlineto
          -107 callsubr
          hlineto
          hintmask 00010100
          501 94 -93 callsubr
        </CharString>
        <CharString name="Egrave">
          -58 callgsubr
          1 284 -24 callsubr
          -820 398 hintmask 11101000
          160 hmoveto
          847 hlineto
          -107 callsubr
          hlineto
          hintmask 00010100
          369 1 -83 callsubr
        </CharString>
        <CharString name="Emacron">
          -58 callgsubr
          306 72 -24 callsubr
          -802 721 hintmask 11101000
          160 hmoveto
          847 hlineto
          -107 callsubr
          hlineto
          hintmask 00010100
          200 297 rmoveto
          28 22 3 2 24 hvcurveto
          3 22 25 1 29 hhcurveto
          311 hlineto
          32 24 -1 -3 22 hvcurveto
          -2 24 19 -2 22 hhcurveto
          -68 callsubr
          -21 -18 -39 callsubr
          -2 -22 -37 -2 -42 hhcurveto
          -307 hlineto
          -30 -28 2 -11 callsubr
          -19 2 -18 hhcurveto
          -65 callgsubr
          hvcurveto
          endchar
        </CharString>
        <CharString name="Eng">
          130 -620 67 563 -39 callgsubr
          73 -20 hstem
          189 78 1009 78 vstem
          177 35 rmoveto
          -26 19 -20 27 25 22 20 34 10 -1 20 -1 26 vhcurveto
          -1 27 0 33 34 vvcurveto
          605 vlineto
          1009 -792 rlineto
          -49 vlineto
          -343 -97 -167 -256 -158 -96 92 78 -33 vhcurveto
          -18 30 -15 9 -24 4 -21 3 -16 -14 -3 -22 -6 -39 35 -35 19 -19 rrcurveto
          -80 70 97 -74 162 hhcurveto
          356 79 246 319 3 hvcurveto
          1254 vlineto
          66 2 30 1 24 vhcurveto
          1 18 0 13 24 vvcurveto
          37 -26 15 -22 -24 -19 -16 -34 -21 2 -9 2 -25 vhcurveto
          3 -21 2 -30 -57 vvcurveto
          -596 vlineto
          -1087 862 rlineto
          -1244 vlineto
          -72 -1 -51 -4 -23 vhcurveto
          -3 -21 -4 -18 -15 vvcurveto
          endchar
        </CharString>
        <CharString name="Eogonek">
          -209 -361 74 287 73 892 73 305 72 hstem
          739 78 vstem
          160 hmoveto
          637 hlineto
          -48 -32 -10 -102 -55 -79 callsubr
          -40 59 54 50 5 92 65 32 hvcurveto
          120 hlineto
          -107 callsubr
          hlineto
          endchar
        </CharString>
        <CharString name="Eth">
          -86 callgsubr
        </CharString>
        <CharString name="Euro">
          31 -19 74 566 89 -82 73 185 88 -82 74 395 72 hstemhm
          -55 1420 hintmask 00000000
          hintmask 11001110
          2 621 rmoveto
          28 23 3 2 23 hvcurveto
          5 6 1 6 hhcurveto
          -382 40 291 -264 430 hhcurveto
          84 93 13 24 78 hvcurveto
          -40 callsubr
          52 35 14 25 22 vvcurveto
          24 -13 22 -28 -22 -14 -12 -34 -29 vhcurveto
          -102 -87 -177 -34 -135 hhcurveto
          -32 -48 4 8 -47 hvcurveto
          hintmask 10101110
          561 191 vlineto
          32 25 -1 -3 20 hvcurveto
          -1 24 21 -2 20 hhcurveto
          41 -51 callgsubr
          18 17 callsubr
          -4 -43 hhcurveto
          -178 191 hlineto
          204 -1 83 -1 13 -1 rrcurveto
          -1 24 21 -2 20 hhcurveto
          41 21 21 24 27 -21 16 17 callsubr
          -3 -43 hhcurveto
          -210 383 hlineto
          8 38 39 4 46 hhcurveto
          138 181 -48 -77 69 hvcurveto
          -20 18 21 -8 15 hhcurveto
          27 18 22 25 27 -36 36 -115 51 hvcurveto
          38 -83 -131 26 -115 hhcurveto
          -349 -281 -182 -283 -103 hvcurveto
          hintmask 11010110
          -36 15 callsubr
          -16 -17 callsubr
          -21 32 28 22 3 1 23 hvcurveto
          -12 -54 -7 -57 -59 vvcurveto
          -16 vlineto
          -26 15 callsubr
          -18 -27 hvcurveto
          hintmask 11001110
          -24 25 -20 32 vhcurveto
          endchar
        </CharString>
        <CharString name="F">
          18 callsubr
          hstem
          177 986 vstem
          -65 callsubr
          endchar
        </CharString>
        <CharString name="G">
          -87 callsubr
          endchar
        </CharString>
        <CharString name="Gbreve">
          -45 callsubr
          96 73 hstemhm
          583 531 252 -97 callsubr
          762 840 -102 callgsubr
        </CharString>
        <CharString name="Gcircumflex">
          -45 callsubr
          311 70 hstemhm
          508 760 98 -97 callsubr
          459 833 -107 callgsubr
        </CharString>
        <CharString name="Gcommaaccent">
          -87 callsubr
          hintmask 00000000
          714 -836 -104 callgsubr
        </CharString>
        <CharString name="Gdotaccent">
          -45 callsubr
          76 345 hstemhm
          618 467 281 -97 callsubr
          761 820 -93 callsubr
        </CharString>
        <CharString name="H">
          3 callgsubr
          hstemhm
          1191 77 hintmask 00000000
          hintmask 01101100
          6 callgsubr
          hintmask 10011100
          -70 callgsubr
          hintmask 01101100
          -9 callgsubr
          endchar
        </CharString>
        <CharString name="Hbar">
          56 10 -21 32 -21 682 73 313 72 286 -20 hstemhm
          1191 77 hintmask 01111100
          177 hmoveto
          511 682 503 -447 hlineto
          -72 0 -51 -4 -23 -22 callsubr
          hintmask 10111100
          -26 16 -20 27 25 24 20 34 vhcurveto
          19 -3 24 59 vvcurveto
          923 vlineto
          20 -1 17 -1 16 -2 rrcurveto
          -2 24 19 -2 22 hhcurveto
          -68 callsubr
          -21 -18 -39 callsubr
          -15 -2 -23 -1 -26 -1 rrcurveto
          106 vlineto
          45 1 24 1 17 vhcurveto
          1 16 1 9 17 vvcurveto
          37 -27 15 -20 -25 -17 -16 -30 -13 3 -19 2 -22 vhcurveto
          2 -22 1 -31 -60 vvcurveto
          -73 -503 275 -511 -275 vlineto
          -23 -22 2 2 -19 hvcurveto
          2 -23 -19 2 -18 hhcurveto
          -65 callgsubr
          28 22 3 2 24 hvcurveto
          15 2 16 1 19 1 rrcurveto
          hintmask 01111100
          511 -313 rmoveto
          313 503 -312 vlineto
          -1 -40 -54 0 -73 hhcurveto
          endchar
        </CharString>
        <CharString name="Hcircumflex">
          3 callgsubr
          338 70 hstemhm
          425 760 6 77 hintmask 00000000
          hintmask 01101001
          6 callgsubr
          hintmask 10011001
          -70 callgsubr
          hintmask 01101001
          -9 callgsubr
          hintmask 00000110
          287 107 -107 callgsubr
        </CharString>
        <CharString name="I">
          -15 callgsubr
          hstem
          160 510 vstem
          -64 callgsubr
          endchar
        </CharString>
        <CharString name="IJ">
          564 -19 67 -27 -21 hstemhm
          160 510 160 962 hintmask 01100000
          -64 callgsubr
          hintmask 10010000
          718 -1339 -76 callsubr
          endchar
        </CharString>
        <CharString name="Iacute">
          -15 callgsubr
          1528 -35 callgsubr
          160 510 -252 398 hintmask 10100000
          -64 callgsubr
          hintmask 01010000
          258 113 -83 callgsubr
        </CharString>
        <CharString name="Ibreve">
          -15 callgsubr
          1529 73 hstemhm
          156 531 -527 510 hintmask 10010000
          -64 callgsubr
          hintmask 01100000
          263 114 -102 callgsubr
        </CharString>
        <CharString name="Icircumflex">
          -15 callgsubr
          1744 70 hstemhm
          81 760 -681 510 hintmask 10010000
          -64 callgsubr
          hintmask 01100000
          -40 107 -107 callgsubr
        </CharString>
        <CharString name="Idieresis">
          -15 callgsubr
          1530 253 hstemhm
          -9 855 -686 510 hintmask 10010000
          -64 callgsubr
          hintmask 01100000
          508 115 -104 callsubr
        </CharString>
        <CharString name="Idotaccent">
          -15 callgsubr
          1509 345 hstemhm
          160 510 -479 467 hintmask 10100000
          -64 callgsubr
          hintmask 01010000
          262 94 -93 callsubr
        </CharString>
        <CharString name="Igrave">
          -15 callgsubr
          1416 -35 callgsubr
          46 398 -284 510 hintmask 10010000
          -64 callgsubr
          hintmask 01100000
          130 1 -83 callsubr
        </CharString>
        <CharString name="Imacron">
          -15 callgsubr
          1721 72 hstemhm
          64 721 -625 510 hintmask 10010000
          -64 callgsubr
          hintmask 01100000
          -39 297 rmoveto
          28 22 3 2 24 hvcurveto
          3 22 25 1 29 hhcurveto
          311 hlineto
          32 24 -1 -3 22 hvcurveto
          -2 24 19 -2 22 hhcurveto
          -68 callsubr
          -21 -18 -39 callsubr
          -2 -22 -37 -2 -42 hhcurveto
          -307 hlineto
          -30 -28 2 -11 callsubr
          -19 2 -18 hhcurveto
          -65 callgsubr
          hvcurveto
          endchar
        </CharString>
        <CharString name="Iogonek">
          -576 -361 74 308 -21 hstemhm
          160 510 -375 88 hintmask 11100000
          160 hmoveto
          231 hlineto
          hintmask 11010000
          -53 -40 -43 -63 -86 -67 callsubr
          73 46 68 58 43 hvcurveto
          hintmask 11100000
          183 1415 -510 hlineto
          endchar
        </CharString>
        <CharString name="Itilde">
          -15 callgsubr
          1530 -45 callgsubr
          hstemhm
          78 706 -624 510 hintmask 10001000
          -64 callgsubr
          hintmask 00000000
          -43 125 rmoveto
          -75 callgsubr
          hintmask 00110000
          -96 callsubr
          hintmask 01110000
          -82 callgsubr
          -25 callgsubr
          hvcurveto
          endchar
        </CharString>
        <CharString name="J">
          -265 -19 67 hstem
          1 962 vstem
          49 76 -76 callsubr
          endchar
        </CharString>
        <CharString name="Jcircumflex">
          -265 -19 67 1696 70 hstemhm
          1 962 -593 760 hintmask 10100000
          49 76 -76 callsubr
          hintmask 01010000
          360 1446 -107 callgsubr
        </CharString>
        <CharString name="K">
          -77 callgsubr
          endchar
        </CharString>
        <CharString name="Kcommaaccent">
          -77 callgsubr
          hintmask 00000000
          572 -1562 -104 callgsubr
        </CharString>
        <CharString name="L">
          -304 0 66 hstem
          177 910 vstem
          177 hmoveto
          -76 callgsubr
          endchar
        </CharString>
        <CharString name="Lacute">
          -304 0 66 1462 -35 callgsubr
          177 910 -662 398 hintmask 10100000
          177 hmoveto
          -76 callgsubr
          hintmask 01010000
          248 113 -83 callgsubr
        </CharString>
        <CharString name="Lcaron">
          -304 0 66 1368 -20 hstemhm
          177 910 -28 105 hintmask 10100000
          177 hmoveto
          -76 callgsubr
          hintmask 01010000
          790 -598 -91 callgsubr
        </CharString>
        <CharString name="Lcommaaccent">
          -304 0 66 hstemhm
          177 910 vstemhm
          177 hmoveto
          -76 callgsubr
          366 -1562 -104 callgsubr
        </CharString>
        <CharString name="Ldot">
          -304 0 66 510 357 hstemhm
          177 910 -328 399 hintmask 01010000
          759 760 -25 callsubr
          hintmask 10100000
          -582 -760 rmoveto
          -76 callgsubr
          endchar
        </CharString>
        <CharString name="Lslash">
          -304 0 66 hstem
          1 1086 vstem
          177 hmoveto
          812 hlineto
          73 25 22 24 32 -18 13 -35 -8 -21 -7 -5 -26 hvcurveto
          -5 -23 -30 -8 -52 hhcurveto
          -187 741 hlineto
          99 51 34 17 44 17 24 7 rlinecurve
          42 12 26 16 25 vvcurveto
          30 -22 12 -26 -26 -45 -15 -39 -74 vhcurveto
          -76 -40 rlineto
          515 -510 -779 vlineto
          -40 -18 -29 -11 -43 -12 rrcurveto
          -44 -14 -20 -18 -24 vvcurveto
          -24 19 -19 26 28 28 11 38 75 vhcurveto
          endchar
        </CharString>
        <CharString name="M">
          7 callgsubr
          hstemhm
          12 1886 hintmask 00000000
          hintmask 01011000
          -33 callgsubr
          hintmask 10111000
          -48 callsubr
          hintmask 01011000
          -17 -32 -5 -13 -2 -21 rrcurveto
          endchar
        </CharString>
        <CharString name="N">
          -49 callsubr
          hstem
          189 78 1009 78 vstem
          -97 callgsubr
          endchar
        </CharString>
        <CharString name="Nacute">
          -49 callsubr
          69 -35 callgsubr
          189 78 540 398 71 78 hintmask 11110101
          -97 callgsubr
          hintmask 00001010
          630 1493 -83 callgsubr
        </CharString>
        <CharString name="Ncaron">
          -49 callsubr
          72 70 hstemhm
          189 78 171 760 78 78 hintmask 11110101
          -97 callgsubr
          hintmask 00001010
          523 1496 -105 callgsubr
        </CharString>
        <CharString name="Ncommaaccent">
          -49 callsubr
          hstemhm
          189 78 1009 78 vstemhm
          -97 callgsubr
          637 -182 -104 callgsubr
        </CharString>
        <CharString name="Ntilde">
          -49 callsubr
          71 -45 callgsubr
          hstemhm
          189 78 200 706 103 78 hintmask 1111001010000000
          -97 callgsubr
          10 callsubr
          329 1505 rmoveto
          -75 callgsubr
          hintmask 0000010100000000
          -96 callsubr
          hintmask 0000110100000000
          -82 callgsubr
          -25 callgsubr
          hvcurveto
          endchar
        </CharString>
        <CharString name="O">
          -52 callsubr
          hstem
          1485 80 vstem
          109 724 -103 callsubr
          endchar
        </CharString>
        <CharString name="OE">
          942 -19 73 -54 73 892 73 305 72 -55 73 hstemhm
          109 2159 hintmask 00000000
          hintmask 01101100
          109 724 rmoveto
          hintmask 10101100
          -459 334 -284 392 191 169 62 110 128 vhcurveto
          hintmask 01110100
          -153 847 vlineto
          -107 callsubr
          -147 hlineto
          hintmask 01101100
          105 -125 -165 60 -188 hhcurveto
          -423 -313 -302 -407 hvcurveto
          hintmask 10101100
          632 -662 rmoveto
          1290 vlineto
          6 40 36 2 27 hhcurveto
          198 167 -78 -127 114 hvcurveto
          -893 vlineto
          -133 -119 -173 -75 -187 hhcurveto
          -28 -37 2 6 -38 hvcurveto
          endchar
        </CharString>
        <CharString name="Oacute">
          -52 callsubr
          95 -35 callgsubr
          836 398 251 80 hintmask 11001000
          109 724 -103 callsubr
          hintmask 00110000
          95 1466 -83 callgsubr
        </CharString>
        <CharString name="Obreve">
          -52 callsubr
          96 73 hstemhm
          574 531 380 80 hintmask 11001000
          109 724 -103 callsubr
          hintmask 00110000
          100 1467 -102 callgsubr
        </CharString>
        <CharString name="Ocircumflex">
          -52 callsubr
          311 70 hstemhm
          499 760 226 80 hintmask 11001000
          109 724 -103 callsubr
          hintmask 00110000
          -203 1460 -107 callgsubr
        </CharString>
        <CharString name="Odieresis">
          -52 callsubr
          97 253 hstemhm
          409 855 221 80 hintmask 11001000
          109 724 -103 callsubr
          hintmask 00110000
          345 1468 -104 callsubr
        </CharString>
        <CharString name="Ograve">
          -52 callsubr
          -17 -35 callgsubr
          464 398 623 80 hintmask 11001000
          109 724 -103 callsubr
          hintmask 00110000
          -33 1354 -83 callsubr
        </CharString>
        <CharString name="Ohungarumlaut">
          -52 callsubr
          97 -35 callgsubr
          540 723 222 80 hintmask 11001000
          109 724 -103 callsubr
          hintmask 00110000
          173 1468 -80 callsubr
        </CharString>
        <CharString name="Omacron">
          -52 callsubr
          288 72 hstemhm
          482 721 282 80 hintmask 11001000
          109 724 -103 callsubr
          hintmask 00110000
          -202 1650 rmoveto
          28 22 3 2 24 hvcurveto
          3 22 25 1 29 hhcurveto
          311 hlineto
          32 24 -1 -3 22 hvcurveto
          -2 24 19 -2 22 hhcurveto
          -68 callsubr
          -21 -18 -39 callsubr
          -2 -22 -37 -2 -42 hhcurveto
          -307 hlineto
          -30 -28 2 -11 callsubr
          -19 2 -18 hhcurveto
          -65 callgsubr
          hvcurveto
          endchar
        </CharString>
        <CharString name="Omega">
          266 0 80 1432 81 hstem
          88 86 1324 85 vstem
          91 52 rmoveto
          -28 29 -24 80 vhcurveto
          438 hlineto
          68 25 19 34 37 -36 18 -51 32 hvcurveto
          -283 183 -187 272 266 vvcurveto
          396 321 255 340 341 322 -255 -396 -279 -173 -259 -299 -183 vhcurveto
          -64 -40 -22 -23 -27 vvcurveto
          -28 24 -22 68 vhcurveto
          439 hlineto
          81 28 24 28 25 -19 19 -38 -9 -12 -1 -5 -29 hvcurveto
          -5 -27 -45 -5 -57 hhcurveto
          -272 hlineto
          299 177 212 291 316 vvcurveto
          402 -312 327 -437 -436 -310 -327 -402 -301 192 -297 317 -186 vhcurveto
          -270 hlineto
          -56 -46 5 5 -27 hvcurveto
          5 -28 -13 1 -9 hhcurveto
          -38 -19 -19 -25 hvcurveto
          endchar
        </CharString>
        <CharString name="Oslash">
          268 -222 1777 -1574 73 1306 73 hstemhm
          388 1070 27 80 hintmask 10010000
          1250 1297 rmoveto
          67 -45 43 77 38 84 25 33 rlinecurve
          -6 callsubr
          -38 -103 -93 -148 rrcurveto
          -862 -1487 rmoveto
          6 -24 21 -12 26 5 29 7 57 114 74 137 -56 65 rcurveline
          -23 -40 -27 -49 -56 -107 -21 -24 rlinecurve
          -24 -31 -10 -22 4 -19 rrcurveto
          hintmask 01101000
          -279 914 -103 callsubr
          endchar
        </CharString>
        <CharString name="Otilde">
          -52 callsubr
          97 -45 callgsubr
          hstemhm
          496 706 283 80 hintmask 11000100
          109 724 -103 callsubr
          hintmask 00000000
          -206 1478 rmoveto
          -75 callgsubr
          hintmask 00011000
          -96 callsubr
          hintmask 00111000
          -82 callgsubr
          -25 callgsubr
          hvcurveto
          endchar
        </CharString>
        <CharString name="P">
          18 callgsubr
          hstem
          1382 81 vstem
          -71 callgsubr
          endchar
        </CharString>
        <CharString name="Q">
          227 -19 73 176 80 1050 73 hstem
          1464 80 vstem
          88 724 rmoveto
          -459 334 -284 392 158 144 43 77 118 vhcurveto
          -149 181 41 -21 53 hhcurveto
          34 20 16 25 21 -14 13 -37 3 hvcurveto
          -42 3 -23 7 -155 126 rrcurveto
          156 128 96 197 240 vvcurveto
          433 -304 290 -416 -423 -313 -302 -407 vhcurveto
          632 -662 rmoveto
          1290 vlineto
          6 40 36 2 27 hhcurveto
          378 263 -281 -369 -224 -92 -178 -141 -114 hvcurveto
          80 -106 -86 36 -68 hhcurveto
          -36 -18 -18 -22 -23 21 -17 38 58 53 -16 -62 84 hvcurveto
          -64 -102 -120 -34 -126 hhcurveto
          -28 -37 2 6 -38 hvcurveto
          endchar
        </CharString>
        <CharString name="R">
          -37 callsubr
          hstemhm
          1355 76 hintmask 00000000
          hintmask 01111000
          -92 callsubr
          hintmask 10111000
          -88 callsubr
          endchar
        </CharString>
        <CharString name="Racute">
          -37 callsubr
          113 -35 callgsubr
          748 398 209 76 hintmask 00000000
          hintmask 01110010
          -92 callsubr
          hintmask 10110010
          -88 callsubr
          hintmask 00001100
          571 113 -83 callgsubr
        </CharString>
        <CharString name="Rcaron">
          -37 callsubr
          -9 callsubr
          379 760 216 76 hintmask 00000000
          hintmask 01110010
          -92 callsubr
          hintmask 10110010
          -88 callsubr
          hintmask 00001100
          464 116 -105 callgsubr
        </CharString>
        <CharString name="Rcommaaccent">
          -37 callsubr
          hstemhm
          1355 76 hintmask 00000000
          hintmask 01111000
          -92 callsubr
          hintmask 10111000
          -88 callsubr
          hintmask 00000000
          585 -1569 -104 callgsubr
        </CharString>
        <CharString name="S">
          -40 callgsubr
          hstem
          91 1007 vstem
          -103 callgsubr
          endchar
        </CharString>
        <CharString name="Sacute">
          -40 callgsubr
          95 -35 callgsubr
          91 1007 -502 398 hintmask 11010000
          -103 callgsubr
          hintmask 00101000
          419 1456 -83 callgsubr
        </CharString>
        <CharString name="Scaron">
          -40 callgsubr
          98 70 hstemhm
          91 1007 -871 760 hintmask 11010000
          -103 callgsubr
          hintmask 00101000
          312 1459 -105 callgsubr
        </CharString>
        <CharString name="Scedilla">
          -215 -16 callsubr
          50 74 1305 73 hstemhm
          91 1007 -534 78 140 76 hintmask 11110110
          177 72 rmoveto
          -57 98 134 -34 143 4 4 1 4 hhcurveto
          -69 -75 callsubr
          -26 -14 -18 -18 0 callgsubr
          hvcurveto
          -59 callsubr
          55 vlineto
          hintmask 11111000
          269 30 187 169 235 vvcurveto
          158 -45 128 -380 307 vhcurveto
          -193 158 -19 42 49 vvcurveto
          57 45 41 89 133 115 -43 -50 52 vhcurveto
          -19 22 12 -6 18 hhcurveto
          23 15 17 23 37 -41 35 -109 42 hvcurveto
          23 -64 -80 14 -77 hhcurveto
          -317 -170 -170 -205 -169 77 -126 242 -187 hvcurveto
          334 -256 30 -45 -74 vvcurveto
          -85 -92 -61 -153 -149 -139 48 73 -83 vhcurveto
          26 -28 -11 7 -23 hhcurveto
          -26 -15 -18 -22 -44 39 -26 47 -27 hvcurveto
          endchar
        </CharString>
        <CharString name="Scircumflex">
          -40 callgsubr
          311 70 hstemhm
          91 1007 -839 760 hintmask 11010000
          -103 callgsubr
          hintmask 00101000
          121 1450 -107 callgsubr
        </CharString>
        <CharString name="Scommaaccent">
          -40 callgsubr
          hstemhm
          91 1007 vstemhm
          -103 callgsubr
          424 -219 -104 callgsubr
        </CharString>
        <CharString name="T">
          -63 callgsubr
          endchar
        </CharString>
        <CharString name="Tbar">
          -166 21 -21 854 72 417 72 -72 85 -1 callsubr
          -1034 891 hintmask 11100100
          363 hmoveto
          512 854 hlineto
          23 -1 20 -1 18 -2 rrcurveto
          -2 24 19 -2 22 hhcurveto
          -68 callsubr
          -21 -18 -39 callsubr
          -2 -17 -26 -2 -29 hhcurveto
          417 232 vlineto
          hintmask 11011000
          77 20 20 26 23 -15 -1 callgsubr
          -5 -25 hvcurveto
          hintmask 11101000
          -77 callsubr
          -417 hlineto
          -28 -26 2 2 -22 hvcurveto
          2 -23 -19 2 -18 hhcurveto
          hintmask 11100100
          -65 callgsubr
          28 22 3 2 24 hvcurveto
          18 2 21 1 23 1 rrcurveto
          endchar
        </CharString>
        <CharString name="Tcaron">
          -32 callgsubr
          103 70 -1 callsubr
          -959 760 -60 callsubr
          144 188 -105 callgsubr
        </CharString>
        <CharString name="Tcommaaccent">
          -63 callgsubr
          hintmask 00000000
          249 -1490 -104 callgsubr
        </CharString>
        <CharString name="Thorn">
          119 21 -21 197 85 849 75 hstem
          1391 77 vstem
          160 hmoveto
          510 1131 108 hlineto
          123 129 -11 -28 80 hvcurveto
          190 -66 91 -112 -213 vvcurveto
          -250 -200 -169 -256 -14 -18 1 1 -14 vhcurveto
          1 -14 -14 1 -15 hhcurveto
          -36 -23 -16 -24 -32 27 -17 62 28 33 3 6 44 hvcurveto
          305 47 182 199 273 vvcurveto
          221 -128 177 -278 57 vhcurveto
          -84 17 -83 7 -225 2 rrcurveto
          209 -510 vlineto
          endchar
        </CharString>
        <CharString name="U">
          -52 callgsubr
          hstem
          1340 78 vstem
          -105 callsubr
          endchar
        </CharString>
        <CharString name="Uacute">
          -52 callgsubr
          122 -35 callgsubr
          845 398 97 78 hintmask 11001000
          -105 callsubr
          hintmask 00110000
          699 113 -83 callgsubr
        </CharString>
        <CharString name="Ubreve">
          -52 callgsubr
          123 73 hstemhm
          583 531 226 78 hintmask 11001000
          -105 callsubr
          hintmask 00110000
          704 114 -102 callgsubr
        </CharString>
        <CharString name="Ucircumflex">
          -52 callgsubr
          338 70 hstemhm
          508 760 72 78 hintmask 11001000
          -105 callsubr
          hintmask 00110000
          401 107 -107 callgsubr
        </CharString>
        <CharString name="Udieresis">
          -52 callgsubr
          124 253 hstemhm
          418 855 67 78 hintmask 11001000
          -105 callsubr
          hintmask 00110000
          949 115 -104 callsubr
        </CharString>
        <CharString name="Ugrave">
          165 -19 74 1361 284 -274 -20 hstemhm
          473 398 469 78 hintmask 10101000
          -105 callsubr
          hintmask 01010000
          571 1 -83 callsubr
        </CharString>
        <CharString name="Uhungarumlaut">
          -52 callgsubr
          124 -35 callgsubr
          549 723 68 78 hintmask 11001000
          -105 callsubr
          hintmask 00110000
          777 115 -80 callsubr
        </CharString>
        <CharString name="Umacron">
          -52 callgsubr
          315 72 hstemhm
          491 721 128 78 hintmask 11001000
          -105 callsubr
          hintmask 00110000
          402 297 rmoveto
          28 22 3 2 24 hvcurveto
          3 22 25 1 29 hhcurveto
          311 hlineto
          32 24 -1 -3 22 hvcurveto
          -2 24 19 -2 22 hhcurveto
          -68 callsubr
          -21 -18 -39 callsubr
          -2 -22 -37 -2 -42 hhcurveto
          -307 hlineto
          -30 -28 2 -11 callsubr
          -19 2 -18 hhcurveto
          -65 callgsubr
          hvcurveto
          endchar
        </CharString>
        <CharString name="Uogonek">
          165 -361 74 268 74 1371 -20 hstem
          808 88 444 78 vstem
          146 628 rmoveto
          -349 212 -298 428 36 34 3 4 33 vhcurveto
          -46 -40 -35 -59 -78 vvcurveto
          -46 callgsubr
          -2 hlineto
          229 99 133 230 1 289 rrcurveto
          598 vlineto
          25 1 26 2 25 vhcurveto
          1 18 2 14 16 vvcurveto
          28 -14 25 -30 -30 -19 -19 -33 -11 2 -17 4 -27 vhcurveto
          1 -19 2 -25 -28 vvcurveto
          -542 vlineto
          -460 -2 -241 -190 -285 hhcurveto
          -33 -67 3 8 -55 hvcurveto
          1349 -511 vlineto
          endchar
        </CharString>
        <CharString name="Uring">
          -52 callgsubr
          124 72 157 74 hstemhm
          693 76 161 75 335 78 hintmask 11000010
          -105 callsubr
          hintmask 00111100
          703 115 -85 callgsubr
        </CharString>
        <CharString name="Utilde">
          -52 callgsubr
          124 -45 callgsubr
          hstemhm
          505 706 129 78 hintmask 11000100
          -105 callsubr
          hintmask 00000000
          398 125 rmoveto
          -75 callgsubr
          hintmask 00011000
          -96 callsubr
          hintmask 00111000
          -82 callgsubr
          -25 callgsubr
          hvcurveto
          endchar
        </CharString>
        <CharString name="V">
          -145 -34 -21 1481 -20 hstem
          -9 1236 vstem
          649 -55 rmoveto
          492 1218 23 56 26 66 16 31 rlinecurve
          18 40 3 10 17 vvcurveto
          20 -12 23 -29 -32 -15 -21 -41 -13 vhcurveto
          -11 -45 -17 -45 -20 -49 -223 -558 rcurveline
          -318 748 rlineto
          -546 hlineto
          endchar
        </CharString>
        <CharString name="W">
          -32 callsubr
          hstem
          -9 1940 vstem
          -89 callgsubr
          endchar
        </CharString>
        <CharString name="Wacute">
          -32 callsubr
          69 -35 callgsubr
          -9 1940 -938 398 hintmask 11101000
          -89 callgsubr
          hintmask 00010100
          1002 113 -83 callgsubr
        </CharString>
        <CharString name="Wcircumflex">
          -32 callsubr
          285 70 hstemhm
          -9 1940 -1275 760 hintmask 11101000
          -89 callgsubr
          hintmask 00010100
          704 107 -107 callgsubr
        </CharString>
        <CharString name="Wdieresis">
          -32 callsubr
          71 253 hstemhm
          -9 1940 -1365 855 hintmask 11101000
          -89 callgsubr
          hintmask 00010100
          1252 115 -104 callsubr
        </CharString>
        <CharString name="Wgrave">
          558 -34 -21 1471 284 -274 -20 73 -20 hstemhm
          -9 1940 -1310 398 hintmask 10111000
          -89 callgsubr
          hintmask 01000100
          874 1 -83 callsubr
        </CharString>
        <CharString name="X">
          -86 10 -21 32 -21 1426 -20 hstemhm
          53 1211 10 callgsubr
          73 28 rmoveto
          -22 15 -17 26 31 29 27 102 71 vhcurveto
          256 368 rlineto
          hintmask 01110000
          235 -486 rlineto
          528 hlineto
          -400 830 300 451 rlineto
          42 64 10 20 18 vvcurveto
          25 -15 18 -24 -27 -15 -11 -39 -17 vhcurveto
          -20 -53 -22 -43 -44 -65 -209 -300 rcurveline
          -240 500 rlineto
          -530 hlineto
          406 -843 -232 -341 -52 -75 -18 -22 -40 -38 rlinecurve
          hintmask 10110000
          -32 -28 -12 -19 -21 vvcurveto
          endchar
        </CharString>
        <CharString name="Y">
          -85 10 -39 callgsubr
          hstem
          21 1267 vstem
          -95 callsubr
          endchar
        </CharString>
        <CharString name="Yacute">
          -85 10 -39 callgsubr
          122 -35 callgsubr
          21 1267 -485 398 hintmask 11010000
          -95 callsubr
          hintmask 00101000
          364 1495 -83 callgsubr
        </CharString>
        <CharString name="Ycircumflex">
          -85 10 -39 callgsubr
          338 70 hstemhm
          21 1267 -822 760 hintmask 11010000
          -95 callsubr
          hintmask 00101000
          66 1489 -107 callgsubr
        </CharString>
        <CharString name="Ydieresis">
          -85 10 -39 callgsubr
          124 253 hstemhm
          21 1267 -912 855 hintmask 11010000
          -95 callsubr
          hintmask 00101000
          614 1497 -104 callsubr
        </CharString>
        <CharString name="Ygrave">
          -85 10 -21 1427 284 -274 -20 hstemhm
          21 1267 -857 398 hintmask 10110000
          -95 callsubr
          hintmask 01001000
          236 1383 -83 callsubr
        </CharString>
        <CharString name="Z">
          -18 callgsubr
          hstem
          51 1081 vstem
          -84 callgsubr
          endchar
        </CharString>
        <CharString name="Zacute">
          -18 callgsubr
          113 -35 callgsubr
          51 1081 -443 398 hintmask 11010000
          -84 callgsubr
          hintmask 00101000
          116 185 -83 callgsubr
        </CharString>
        <CharString name="Zcaron">
          -18 callgsubr
          -9 callsubr
          51 1081 -812 760 hintmask 11010000
          -84 callgsubr
          hintmask 00101000
          9 188 -105 callgsubr
        </CharString>
        <CharString name="Zdotaccent">
          -18 callgsubr
          94 345 hstemhm
          51 1081 -670 467 hintmask 11010000
          -84 callgsubr
          hintmask 00101000
          120 166 -93 callsubr
        </CharString>
        <CharString name="a">
          -74 callsubr
          -29 callgsubr
          hintmask 00000000
          hintmask 10011100
          96 382 rmoveto
          -258 191 -143 271 100 93 24 61 91 vhcurveto
          hintmask 00111100
          -66 428 627 vlineto
          -100 callgsubr
          hintmask 10011100
          -91 callsubr
          hintmask 01011100
          -482 vlineto
          hintmask 10011100
          -69 -92 -90 -28 -84 hhcurveto
          -8 -8 0 1 -7 hvcurveto
          endchar
        </CharString>
        <CharString name="aacute">
          -74 callsubr
          213 284 -29 callgsubr
          -623 399 -101 callgsubr
          94 1243 -81 callsubr
        </CharString>
        <CharString name="abreve">
          -74 callsubr
          146 73 -29 callgsubr
          -814 531 -101 callgsubr
          170 1176 -102 callgsubr
        </CharString>
        <CharString name="acircumflex">
          -74 callsubr
          428 70 -29 callgsubr
          -902 760 -101 callgsubr
          -146 1236 -107 callgsubr
        </CharString>
        <CharString name="acute">
          -824 1198 284 hstem
          201 399 vstem
          201 1198 -81 callsubr
        </CharString>
        <CharString name="acute.cap">
          -824 1528 284 hstem
          141 398 vstem
          141 1528 -83 callgsubr
        </CharString>
        <CharString name="adieresis">
          -74 callsubr
          217 253 -29 callgsubr
          -977 855 -101 callgsubr
          417 1247 -104 callsubr
        </CharString>
        <CharString name="ae">
          3 callsubr
          hstem
          96 1838 vstem
          -90 callgsubr
          endchar
        </CharString>
        <CharString name="aeacute">
          3 callsubr
          112 -35 callgsubr
          96 1838 -951 399 hintmask 11110100
          -90 callgsubr
          hintmask 00001010
          430 1142 -81 callsubr
        </CharString>
        <CharString name="agrave">
          -74 callsubr
          -29 callgsubr
          hintmask 00000000
          hintmask 10011100
          96 382 rmoveto
          -258 191 -143 271 100 93 24 61 91 vhcurveto
          hintmask 00111100
          -66 428 627 vlineto
          -100 callgsubr
          hintmask 10011100
          -91 callsubr
          hintmask 01011100
          -482 vlineto
          hintmask 10011100
          -69 -92 -90 -28 -84 hhcurveto
          -8 -8 0 1 -7 hvcurveto
          hintmask 00000000
          197 1139 -83 callsubr
        </CharString>
        <CharString name="amacron">
          -74 callsubr
          172 72 -29 callgsubr
          -906 721 -101 callgsubr
          -132 1193 rmoveto
          28 22 3 2 24 hvcurveto
          3 22 25 1 29 hhcurveto
          311 hlineto
          32 24 -1 -3 22 hvcurveto
          -2 24 19 -2 22 hhcurveto
          -68 callsubr
          -21 -18 -39 callsubr
          -2 -22 -37 -2 -42 hhcurveto
          -307 hlineto
          -30 -28 2 -11 callsubr
          -19 2 -18 hhcurveto
          -65 callgsubr
          hvcurveto
          endchar
        </CharString>
        <CharString name="ampersand">
          17 -19 74 694 80 533 71 hstem
          1158 77 vstem
          145 432 rmoveto
          -287 221 -164 326 324 219 213 230 131 -60 145 -105 58 vhcurveto
          -1 85 49 -8 57 hhcurveto
          48 21 17 21 31 -26 24 -56 -5 hvcurveto
          -7 -82 -96 -1 -133 -45 -20 7 -35 hhcurveto
          -29 -23 -11 -22 -33 25 -14 49 hvcurveto
          23 hlineto
          158 118 -133 -210 -202 -212 -162 -226 6 hvcurveto
          -17 -21 2 4 -21 hvcurveto
          1296 vlineto
          5 32 40 0 34 hhcurveto
          81 72 -14 -33 52 hvcurveto
          -12 20 21 -26 30 hhcurveto
          24 18 13 26 42 -68 50 -164 20 hvcurveto
          4 -42 -47 1 -23 hhcurveto
          -323 -195 -138 -191 -127 88 -116 135 -57 hvcurveto
          -185 -58 -116 -151 -163 vvcurveto
          endchar
        </CharString>
        <CharString name="aogonek">
          5 -361 74 268 -67 callgsubr
          -29 callgsubr
          -375 88 hintmask 11001110
          96 382 rmoveto
          -258 191 -143 271 100 93 24 61 91 vhcurveto
          hintmask 10011101
          -66 149 vlineto
          -53 -40 -43 -63 -86 -67 callsubr
          73 46 68 58 43 hvcurveto
          hintmask 10101110
          183 627 hlineto
          -100 callgsubr
          -91 callsubr
          -482 vlineto
          hintmask 11001110
          -69 -92 -90 -28 -84 hhcurveto
          -8 -8 0 1 -7 hvcurveto
          endchar
        </CharString>
        <CharString name="approxequal">
          -384 365 72 36 74 36 73 36 74 hstem
          97 803 vstem
          128 605 rmoveto
          28 8 13 28 23 hvcurveto
          33 26 36 13 12 callgsubr
          -32 87 hhcurveto
          110 101 70 54 24 -16 15 -18 -20 -11 -6 -38 -27 hvcurveto
          -29 -19 -38 -17 -59 hhcurveto
          -54 -55 19 36 -71 hvcurveto
          27 -58 -61 28 -86 hhcurveto
          -110 -100 -70 -53 -25 14 -13 17 hvcurveto
          -220 vmoveto
          28 8 15 27 23 hvcurveto
          34 26 36 12 12 callgsubr
          -31 87 hhcurveto
          110 101 69 52 26 -16 15 -18 -20 -11 -7 -38 -27 hvcurveto
          -28 -19 -38 -17 -59 hhcurveto
          -54 -55 19 35 -71 hvcurveto
          27 -58 -61 29 -86 hhcurveto
          -110 -100 -71 -52 -24 14 -15 17 hvcurveto
          endchar
        </CharString>
        <CharString name="aring">
          -74 callsubr
          198 72 157 74 -29 callgsubr
          -706 76 161 75 10 callsubr
          hintmask 1001100100000000
          96 382 rmoveto
          -258 191 -143 271 100 93 24 61 91 vhcurveto
          hintmask 0011100100000000
          -66 428 627 vlineto
          -100 callgsubr
          hintmask 1001100100000000
          -91 callsubr
          hintmask 0101100100000000
          -482 vlineto
          hintmask 1001100100000000
          -69 -92 -90 -28 -84 hhcurveto
          -8 -8 0 1 -7 hvcurveto
          hintmask 0000011011000000
          167 1228 -85 callgsubr
        </CharString>
        <CharString name="asciicircum">
          -468 1433 -20 hstem
          108 754 vstem
          146 899 rmoveto
          14 18 3 40 24 hvcurveto
          12 19 31 49 29 41 208 294 rcurveline
          165 -227 42 -60 44 -68 19 -29 rlinecurve
          -38 25 15 -24 28 hhcurveto
          23 19 17 24 19 -13 22 -19 22 hvcurveto
          -24 29 -34 48 -69 94 -152 213 rcurveline
          39 -28 -23 7 -18 hhcurveto
          -23 -22 -13 -33 -23 hvcurveto
          -206 -297 -28 -40 -17 -21 -17 -20 rlinecurve
          -27 -35 -11 -18 -17 vvcurveto
          -23 19 -17 19 vhcurveto
          endchar
        </CharString>
        <CharString name="asciitilde">
          -203 511 327 -326 72 180 73 hstemhm
          70 1034 hintmask 00000000
          hintmask 10010000
          101 581 rmoveto
          24 -2 19 10 18 47 rrcurveto
          hintmask 01110000
          43 103 58 33 78 -8 57 -6 67 -30 91 -70 153 -119 45 -19 74 -8 102 -11 82 52 54 82 22 31 13 36 3 24 2 25 -16 14 -20 2 -28 3 -15 -13 -22 -55 rrcurveto
          -41 -97 -47 -29 -71 8 -56 5 -34 15 -151 114 -99 78 -71 32 -83 9 -81 8 -74 -33 -55 -53 -39 -40 -30 -54 -3 -34 rrcurveto
          hintmask 10010000
          -3 -28 13 -20 21 -2 rrcurveto
          endchar
        </CharString>
        <CharString name="asterisk">
          -645 1137 66 275 -20 21 -20 hstemhm
          43 674 10 callgsubr
          211 854 rmoveto
          19 17 9 35 16 hvcurveto
          11 27 11 19 29 52 66 110 rcurveline
          97 -189 rlineto
          -56 29 12 -10 28 hhcurveto
          19 19 12 25 19 -7 11 -14 20 hvcurveto
          -14 18 0 0 -30 46 -84 136 rcurveline
          85 -3 73 -4 26 -1 rrcurveto
          -2 22 10 -1 11 hhcurveto
          28 27 14 29 28 -22 15 -33 -8 -13 -1 -2 -31 hvcurveto
          -28 -1 -76 -3 -70 -4 95 152 rcurveline
          32 54 7 20 16 vvcurveto
          22 -16 13 -19 -24 -16 -15 -53 -24 vhcurveto
          -90 -176 rlineto
          hintmask 11010000
          -100 197 rlineto
          36 -17 -15 10 -15 hhcurveto
          -24 -19 -14 -23 -17 3 -12 28 -44 hvcurveto
          105 -167 -105 5 -24 1 -21 2 -17 1 rlinecurve
          2 -24 -19 2 -19 hhcurveto
          -29 -26 -15 -28 -24 19 -19 33 19 9 1 1 26 hvcurveto
          24 2 70 1 81 4 -108 -156 rcurveline
          -42 -59 -2 -11 -17 vvcurveto
          hintmask 10110000
          -23 16 -17 23 vhcurveto
          endchar
        </CharString>
        <CharString name="at">
          530 -295 74 324 74 771 73 309 70 hstem
          84 79 1615 78 vstem
          84 485 rmoveto
          -507 382 -273 441 116 144 23 29 76 vhcurveto
          34 13 28 16 29 vvcurveto
          23 -18 16 -25 -16 -16 -5 -12 -31 vhcurveto
          -40 -96 -96 -18 -88 hhcurveto
          -372 -384 231 481 455 417 384 461 437 300 -189 -380 -291 -186 -228 -222 -44 hvcurveto
          140 809 rlineto
          -341 hlineto
          -10 -57 rlineto
          52 -70 -69 19 -74 hhcurveto
          -331 -173 -256 -290 -233 129 -139 215 67 84 21 51 87 hvcurveto
          -15 -84 97 -10 rlineto
          392 358 260 411 416 -341 232 -457 -522 -452 -402 -513 hvcurveto
          705 -307 rmoveto
          140 770 rlineto
          4 hlineto
          78 68 -24 -51 66 hvcurveto
          -106 -613 rlineto
          -53 -77 -82 -30 -72 hhcurveto
          -9 -6 0 1 -4 hvcurveto
          endchar
        </CharString>
        <CharString name="atilde">
          -74 callsubr
          96 -45 callgsubr
          -9 -20 -29 callgsubr
          -918 706 10 callsubr
          hintmask 1001100010000000
          96 382 rmoveto
          -258 191 -143 271 100 93 24 61 91 vhcurveto
          hintmask 0011100010000000
          -66 428 627 vlineto
          -100 callgsubr
          hintmask 1001100010000000
          -91 callsubr
          hintmask 0101100010000000
          -482 vlineto
          hintmask 1001100010000000
          -69 -92 -90 -28 -84 hhcurveto
          -8 -8 0 1 -7 hvcurveto
          10 callsubr
          -162 1136 rmoveto
          hintmask 0000010101000000
          -75 callgsubr
          hintmask 0000011001000000
          -96 callsubr
          hintmask 0000010101000000
          -82 callgsubr
          hvcurveto
          hintmask 0000011001000000
          -25 callgsubr
          vhcurveto
          endchar
        </CharString>
        <CharString name="b">
          16 callgsubr
          hstemhm
          173 1256 hintmask 00000000
          hintmask 01110000
          173 hmoveto
          411 hlineto
          hintmask 10110000
          -61 callgsubr
          endchar
        </CharString>
        <CharString name="backslash">
          -733 10 -39 callgsubr
          hstem
          82 508 vstem
          455 155 rmoveto
          -143 41 18 -23 37 hhcurveto
          21 18 14 33 19 -10 22 -14 25 hvcurveto
          -13 23 -17 44 -19 66 -301 1036 rcurveline
          134 -41 -20 21 -35 hhcurveto
          -25 -13 -21 -17 -17 1 -9 21 -40 hvcurveto
          13 -23 12 -31 11 -37 rrcurveto
          endchar
        </CharString>
        <CharString name="bar">
          -947 -317 -21 1764 -20 hstem
          194 77 vstem
          194 -91 rmoveto
          -74 -1 -51 -3 -21 vhcurveto
          17 callgsubr
          26 23 20 36 vhcurveto
          17 -3 7 76 vvcurveto
          1428 vlineto
          -24 callgsubr
          -23 -17 -16 -34 vhcurveto
          -37 7 -5 -121 vvcurveto
          endchar
        </CharString>
        <CharString name="braceleft">
          16 callsubr
          51 769 vstem
          187 568 rmoveto
          -469 31 274 -297 264 hhcurveto
          42 22 12 26 22 -19 14 -48 2 hvcurveto
          -52 2 -49 12 -45 21 rrcurveto
          466 vlineto
          167 -96 142 -234 22 vhcurveto
          231 22 99 87 203 vvcurveto
          446 vlineto
          43 19 44 10 45 -2 rrcurveto
          53 -2 28 16 27 vvcurveto
          18 -22 19 -42 -331 -215 -312 -410 -24 vhcurveto
          -4 -75 -19 -21 -63 -5 rrcurveto
          -35 -3 -14 -16 -17 vvcurveto
          -22 16 -12 39 -4 vhcurveto
          55 -6 21 -31 5 -71 rrcurveto
          endchar
        </CharString>
        <CharString name="braceright">
          16 callsubr
          91 769 vstem
          91 -160 rmoveto
          -26 22 -12 42 264 274 297 469 31 vhcurveto
          5 71 21 31 55 6 rrcurveto
          39 4 16 12 22 vvcurveto
          17 -14 16 -35 3 vhcurveto
          -63 5 -19 21 -4 75 rrcurveto
          410 -24 -215 312 -331 hhcurveto
          -42 -22 -19 -18 -27 28 -16 53 2 hvcurveto
          44 2 45 -10 43 -19 rrcurveto
          -446 vlineto
          -203 99 -87 231 -22 vhcurveto
          -234 -22 -96 -142 -167 vvcurveto
          -466 vlineto
          -46 -21 -48 -12 -52 -2 rrcurveto
          -48 -2 -19 -14 -22 vvcurveto
          endchar
        </CharString>
        <CharString name="bracketleft">
          15 callgsubr
          127 663 vstem
          127 -201 rmoveto
          577 hlineto
          64 22 21 28 19 -23 18 -39 -22 -21 -3 -3 -22 hvcurveto
          -3 -24 -27 -2 -36 hhcurveto
          -37 1589 21 hlineto
          44 35 -3 -3 24 hvcurveto
          -3 22 21 -2 22 hhcurveto
          39 23 17 25 25 -20 15 -66 hvcurveto
          -577 hlineto
          endchar
        </CharString>
        <CharString name="bracketright">
          15 callgsubr
          91 663 vstem
          91 -152 rmoveto
          -28 22 -21 64 vhcurveto
          577 1735 -577 hlineto
          -66 -20 -15 -25 -25 23 -17 39 22 21 2 3 22 hvcurveto
          3 24 35 3 44 hhcurveto
          21 -1589 -37 hlineto
          -36 -27 2 3 -24 hvcurveto
          3 -22 -21 3 -22 hhcurveto
          -39 -23 -18 -19 hvcurveto
          endchar
        </CharString>
        <CharString name="breve">
          -691 1232 73 hstem
          91 531 vstem
          358 1232 -102 callgsubr
        </CharString>
        <CharString name="breve.cap">
          -691 1531 73 hstem
          91 531 vstem
          358 1531 -102 callgsubr
        </CharString>
        <CharString name="brokenbar">
          -947 -317 -21 1764 -20 hstemhm
          182 93 -88 87 -80 77 hintmask 00000000
          hintmask 11100000
          225 666 rmoveto
          26 23 20 36 hvcurveto
          hintmask 11001000
          18 -3 7 75 vvcurveto
          424 vlineto
          hintmask 11100000
          -24 callgsubr
          vhcurveto
          hintmask 11010000
          -23 -17 -16 -34 hvcurveto
          hintmask 11001000
          -37 7 -5 -121 vvcurveto
          -300 vlineto
          -73 -1 -51 -3 -23 vhcurveto
          hintmask 11100000
          -4 -19 -4 -18 -15 vvcurveto
          -28 17 -20 26 vhcurveto
          hintmask 11001000
          -31 -757 rmoveto
          -74 -1 -51 -3 -21 vhcurveto
          hintmask 11100000
          17 callgsubr
          vhcurveto
          hintmask 11010000
          26 23 20 36 hvcurveto
          hintmask 11001000
          17 -3 7 76 vvcurveto
          424 vlineto
          hintmask 11010000
          84 4 6 37 vvcurveto
          38 -26 14 -22 vhcurveto
          hintmask 11001000
          -23 -17 -15 -35 hvcurveto
          -37 7 -4 -121 vvcurveto
          endchar
        </CharString>
        <CharString name="bullet">
          -720 536 418 hstem
          97 467 vstem
          328 536 rmoveto
          -74 callgsubr
          -128 83 -88 -36 callsubr
        </CharString>
        <CharString name="c">
          -277 -49 callgsubr
          hstem
          81 992 vstem
          81 544 rmoveto
          -329 232 -234 352 138 104 27 69 104 vhcurveto
          -98 callgsubr
          endchar
        </CharString>
        <CharString name="cacute">
          -277 -49 callgsubr
          112 -35 callgsubr
          81 992 -488 399 hintmask 11010000
          81 544 rmoveto
          -329 232 -234 352 138 104 27 69 104 vhcurveto
          -98 callgsubr
          hintmask 00101000
          504 654 -81 callsubr
        </CharString>
        <CharString name="caron">
          -462 1202 70 hstem
          91 760 vstem
          353 1202 -105 callgsubr
        </CharString>
        <CharString name="caron.cap">
          -462 1531 70 hstem
          91 760 vstem
          353 1531 -105 callgsubr
        </CharString>
        <CharString name="caronvertical">
          -726 1434 -20 hstem
          428 105 vstem
          336 817 -91 callgsubr
        </CharString>
        <CharString name="ccaron">
          -277 -49 callgsubr
          -9 callsubr
          81 992 -836 760 hintmask 11010000
          81 544 rmoveto
          -329 232 -234 352 138 104 27 69 104 vhcurveto
          -98 callgsubr
          hintmask 00101000
          418 658 -105 callgsubr
        </CharString>
        <CharString name="ccedilla">
          -277 -16 callsubr
          50 -38 callgsubr
          hstemhm
          81 992 -439 78 140 76 hintmask 11110110
          461 -233 rmoveto
          0 callgsubr
          vhcurveto
          -59 callsubr
          52 vlineto
          115 5 92 28 92 61 rrcurveto
          hintmask 11111000
          -98 callgsubr
          hintmask 11110110
          -319 218 -230 335 -13 vhcurveto
          -69 -75 callsubr
          -26 -14 -18 -18 hvcurveto
          endchar
        </CharString>
        <CharString name="ccircumflex">
          -277 -49 callgsubr
          327 70 hstemhm
          81 992 -767 760 hintmask 11010000
          81 544 rmoveto
          -329 232 -234 352 138 104 27 69 104 vhcurveto
          -98 callgsubr
          hintmask 00101000
          264 647 -107 callgsubr
        </CharString>
        <CharString name="cdotaccent">
          -277 -49 callgsubr
          -18 callsubr
          81 992 -636 454 hintmask 11010000
          81 544 rmoveto
          -329 232 -234 352 138 104 27 69 104 vhcurveto
          -98 callgsubr
          hintmask 00101000
          580 699 rmoveto
          -96 callgsubr
          endchar
        </CharString>
        <CharString name="cedilla">
          -756 -16 callsubr
          hstem
          264 78 140 76 vstem
          131 -197 rmoveto
          -26 -14 -18 -18 0 callgsubr
          hvcurveto
          -59 callsubr
          90 -78 -108 -75 callsubr
          endchar
        </CharString>
        <CharString name="cent">
          -258 -19 74 -37 -21 1016 73 hstemhm
          514 59 10 callgsubr
          418 -23 rmoveto
          -50 -134 -10 -57 9 -25 8 -27 25 -6 19 6 20 6 12 17 5 45 rrcurveto
          hintmask 01110000
          2 26 14 58 16 43 26 68 rcurveline
          hintmask 10110000
          -10 47 51 -6 53 hhcurveto
          138 104 27 69 104 hvcurveto
          44 33 18 24 24 vvcurveto
          22 -18 12 -12 -21 -13 -8 -24 -28 vhcurveto
          -63 -72 -118 -42 -121 hhcurveto
          -25 -37 3 6 -35 hvcurveto
          941 vlineto
          5 27 28 3 34 hhcurveto
          82 55 -12 -24 64 hvcurveto
          38 -15 35 -20 26 -25 rrcurveto
          -16 23 14 -7 17 hhcurveto
          19 18 15 26 39 -46 28 -56 24 hvcurveto
          -50 22 -52 16 -52 10 8 18 rcurveline
          50 134 10 57 -9 25 -8 27 -25 6 -19 -6 -20 -6 -12 -17 -5 -45 -2 -26 -14 -58 -16 -43 -22 -56 rcurveline
          1 -14 -14 1 -13 hhcurveto
          -335 -256 -225 -317 -251 135 -196 220 -79 hvcurveto
          endchar
        </CharString>
        <CharString name="circumflex">
          -462 1413 70 hstem
          91 760 vstem
          130 1191 -107 callgsubr
        </CharString>
        <CharString name="circumflex.cap">
          -462 1744 70 hstem
          131 760 vstem
          170 1522 -107 callgsubr
        </CharString>
        <CharString name="colon">
          -720 2 -21 hstem
          97 467 vstem
          328 579 rmoveto
          -74 callgsubr
          -128 83 -88 -10 callsubr
          -231 -382 rmoveto
          -33 callsubr
        </CharString>
        <CharString name="comma">
          -723 2 -21 hstemhm
          97 464 -115 -31 callgsubr
          97 181 rmoveto
          -98 81 -102 137 vhcurveto
          hintmask 10100000
          -88 callgsubr
          endchar
        </CharString>
        <CharString name="commaaccent">
          -949 -445 298 hstemhm
          16 465 hintmask 00000000
          hintmask 11000000
          241 -147 -104 callgsubr
        </CharString>
        <CharString name="copyright">
          -102 441 74 176 73 474 73 162 73 hstem
          85 81 179 285 506 -64 callsubr
          24 176 rmoveto
          83 54 16 28 41 hvcurveto
          40 27 16 24 20 vvcurveto
          21 -15 11 -20 -16 -13 -9 -15 -15 vhcurveto
          -33 -36 -45 -17 -65 hhcurveto
          -13 -21 2 3 -20 hvcurveto
          464 vlineto
          3 17 17 2 15 hhcurveto
          53 35 -9 -26 37 hvcurveto
          -21 31 13 -4 13 hhcurveto
          22 11 13 21 22 -21 25 -52 23 hvcurveto
          19 -41 -47 10 -48 hhcurveto
          -188 -152 -125 -179 -192 149 -124 181 hvcurveto
          endchar
        </CharString>
        <CharString name="currency">
          -11 120 72 794 72 hstem
          245 74 793 73 vstem
          187 35 rmoveto
          -1 -27 20 -15 20 -1 21 -1 19 11 20 40 10 24 36 51 30 33 63 70 rcurveline
          -62 80 100 -38 110 hhcurveto
          86 80 23 40 70 hvcurveto
          63 -59 108 -95 51 -29 26 -1 rlinecurve
          27 -2 15 21 1 19 1 21 -11 18 -40 21 -24 11 -50 35 -34 30 -66 58 rcurveline
          102 86 65 128 143 vvcurveto
          100 -32 92 -53 76 vhcurveto
          56 59 94 108 29 50 1 26 rlinecurve
          2 28 -21 15 -20 1 -21 1 -17 -11 -21 -41 -11 -23 -34 -50 -30 -34 -59 -66 rcurveline
          86 -85 -118 53 -130 hhcurveto
          -121 -110 -46 -75 -83 hvcurveto
          -55 53 -109 94 -50 29 -25 2 rlinecurve
          -28 1 -14 -20 -1 -21 -1 -20 10 -18 41 -22 22 -9 50 -36 34 -29 70 -63 rcurveline
          -63 -80 -37 -101 -109 vvcurveto
          -120 45 -110 75 -83 vhcurveto
          -52 -55 -95 -107 -29 -52 -2 -26 rlinecurve
          132 553 rmoveto
          220 176 178 220 219 178 -178 -220 -219 -178 -177 -219 -220 -176 177 219 vhcurveto
          endchar
        </CharString>
        <CharString name="d">
          91 -37 callgsubr
          hstemhm
          84 1258 hintmask 00000000
          hintmask 10011000
          -53 callsubr
          hintmask 00111000
          -55 412 1415 -412 -390 vlineto
          41 -84 -93 20 -87 hhcurveto
          hintmask 10011000
          -70 callsubr
          -24 -53 93 hvcurveto
          hintmask 01011000
          -793 vlineto
          hintmask 10011000
          -41 callsubr
          endchar
        </CharString>
        <CharString name="dagger">
          -721 2 -21 1005 -35 callsubr
          848 14 vlineto
          -69 callsubr
          -759 hlineto
          -72 -1 -51 -3 -22 -22 callsubr
          endchar
        </CharString>
        <CharString name="daggerdbl">
          -721 2 -21 560 71 374 -35 callsubr
          403 14 vlineto
          31 26 -1 -2 21 hvcurveto
          -2 23 -11 callgsubr
          22 18 25 27 -22 17 -35 -22 -15 -1 -2 -21 hvcurveto
          -2 -22 -37 -4 -43 hhcurveto
          -1 374 14 hlineto
          -69 callsubr
          -374 -28 hlineto
          -29 -28 4 -20 callgsubr
          1 -17 hhcurveto
          -35 -22 -17 -27 -25 26 -18 31 28 22 3 2 24 hvcurveto
          2 22 26 0 28 hhcurveto
          19 -314 hlineto
          -72 -1 -51 -3 -22 -22 callsubr
          endchar
        </CharString>
        <CharString name="dcaron">
          467 -37 callgsubr
          348 -20 hstemhm
          84 1258 381 105 -69 callgsubr
          1044 756 -91 callgsubr
        </CharString>
        <CharString name="dcroat">
          91 -37 callgsubr
          149 72 hstemhm
          84 1258 -623 736 hintmask 10011100
          -53 callsubr
          hintmask 00111100
          -55 412 1232 vlineto
          -1 21 9 -2 22 hhcurveto
          hintmask 10011010
          40 21 18 25 27 -21 17 -36 hvcurveto
          hintmask 10011100
          -21 -16 -39 callsubr
          103 -412 -108 -13 vlineto
          -42 callsubr
          hintmask 10011010
          -35 -20 -17 -27 -25 23 -18 32 -41 callgsubr
          5 -210 hlineto
          41 -84 -93 20 -87 hhcurveto
          hintmask 01011100
          -70 callsubr
          -24 -53 93 hvcurveto
          -793 vlineto
          hintmask 10011010
          -41 callsubr
          endchar
        </CharString>
        <CharString name="degree">
          -799 1029 72 260 72 hstem
          91 78 268 78 vstem
          303 1029 rmoveto
          115 97 83 120 123 -92 78 -118 -123 -91 -87 -114 -122 93 -81 119 hvcurveto
          1 72 rmoveto
          -73 -62 56 74 77 63 53 69 83 53 -57 -76 -81 -63 -46 -70 hvcurveto
          endchar
        </CharString>
        <CharString name="dieresis">
          -368 1202 253 hstem
          91 855 vstem
          768 1202 -104 callsubr
        </CharString>
        <CharString name="dieresis.cap">
          -368 1530 253 hstem
          91 855 vstem
          768 1530 -104 callsubr
        </CharString>
        <CharString name="divide">
          -380 12 -21 537 -4 callgsubr
          501 728 rmoveto
          -43 callsubr
          -128 81 -87 -10 callsubr
          -342 -207 -93 callgsubr
          113 -315 rmoveto
          -128 81 -87 148 -43 callsubr
          vhcurveto
          endchar
        </CharString>
        <CharString name="dollar">
          -256 -19 74 -47 -21 34 -21 1360 73 hstemhm
          104 971 hintmask 00000000
          hintmask 00111000
          185 86 rmoveto
          69 -39 77 -30 76 -17 -8 -39 -8 -28 -5 -14 rrcurveto
          -12 -30 -8 -20 -16 vvcurveto
          -22 20 -19 23 28 18 18 53 7 vhcurveto
          hintmask 01011000
          6 37 5 29 8 38 rrcurveto
          hintmask 10011000
          -4 28 28 -2 27 hhcurveto
          318 193 169 262 151 -51 131 -333 278 hvcurveto
          76 360 45 -16 39 -21 29 -26 rlinecurve
          -23 26 10 -5 14 hhcurveto
          21 19 15 26 34 -24 34 -127 48 hvcurveto
          -10 4 -12 3 -12 4 15 50 rcurveline
          9 39 6 23 20 vvcurveto
          28 -19 13 -19 -24 -15 -16 -36 -6 vhcurveto
          -4 -25 -8 -33 -9 -48 rrcurveto
          6 -39 -44 3 -47 hhcurveto
          -317 -160 -162 -179 -156 55 -114 177 -170 hvcurveto
          175 -168 -88 -410 -79 20 -66 36 -53 46 rlinecurve
          23 -26 -13 10 -23 hhcurveto
          -23 -17 -22 -22 hvcurveto
          hintmask 00111000
          -40 39 -26 23 -13 vhcurveto
          441 938 rmoveto
          hintmask 10011000
          -148 124 -42 74 40 vvcurveto
          54 51 44 97 39 37 -3 -7 36 vhcurveto
          -199 -1290 rmoveto
          77 362 rlineto
          171 -168 23 -37 -61 vvcurveto
          -57 -61 -44 -130 -28 -26 2 3 -26 vhcurveto
          endchar
        </CharString>
        <CharString name="dotaccent">
          -870 1243 323 hstem
          40 454 vstem
          264 1243 rmoveto
          -96 callgsubr
          endchar
        </CharString>
        <CharString name="dotaccent.cap">
          -870 1509 345 hstem
          34 467 vstem
          265 1509 -93 callsubr
        </CharString>
        <CharString name="dotlessi">
          -648 -2 callsubr
          430 vstem
          -55 callgsubr
          endchar
        </CharString>
        <CharString name="dotlessj">
          -604 -353 73 hstem
          -95 743 vstem
          -51 -203 -79 callgsubr
          endchar
        </CharString>
        <CharString name="e">
          -55 callsubr
          hstem
          81 1138 vstem
          -106 callsubr
          endchar
        </CharString>
        <CharString name="eacute">
          -55 callsubr
          213 284 -23 callsubr
          -616 399 hintmask 11101000
          -106 callsubr
          hintmask 00010100
          -231 728 -81 callsubr
        </CharString>
        <CharString name="ebreve">
          -55 callsubr
          146 73 -23 callsubr
          -807 531 hintmask 11101000
          -106 callsubr
          hintmask 00010100
          -155 661 -102 callgsubr
        </CharString>
        <CharString name="ecaron">
          -55 callsubr
          116 70 -23 callsubr
          -964 760 hintmask 11101000
          -106 callsubr
          hintmask 00010100
          -317 631 -105 callgsubr
        </CharString>
        <CharString name="ecircumflex">
          -55 callsubr
          428 70 -23 callsubr
          -895 760 hintmask 11101000
          -106 callsubr
          hintmask 00010100
          -471 721 -107 callgsubr
        </CharString>
        <CharString name="edieresis">
          -55 callsubr
          217 253 -23 callsubr
          -970 855 hintmask 11101000
          -106 callsubr
          hintmask 00010100
          92 732 -104 callsubr
        </CharString>
        <CharString name="edotaccent">
          -55 callsubr
          157 323 -23 callsubr
          -764 454 hintmask 11101000
          -106 callsubr
          hintmask 00010100
          -155 672 rmoveto
          -96 callgsubr
          endchar
        </CharString>
        <CharString name="egrave">
          -55 callsubr
          -23 callsubr
          vstemhm
          -106 callsubr
          -139 624 -83 callsubr
        </CharString>
        <CharString name="eight">
          -43 -19 68 1322 62 hstem
          103 78 935 73 vstem
          103 357 rmoveto
          -231 238 -145 296 230 414 81 360 5 vhcurveto
          171 -97 113 -383 219 vhcurveto
          -242 137 -76 99 89 vvcurveto
          97 149 24 91 138 250 -58 -189 -110 -58 -54 -70 -4 vhcurveto
          -40 -3 -15 -24 -18 vvcurveto
          -20 17 -17 22 7 7 1 2 8 vhcurveto
          105 25 90 60 179 vvcurveto
          214 -283 78 -184 -344 -239 -162 -235 -4 vhcurveto
          -181 86 -125 377 -223 vhcurveto
          313 -185 15 -65 -57 vvcurveto
          -82 -144 -69 -133 -273 -195 115 195 68 24 109 91 16 vhcurveto
          27 5 18 23 18 vvcurveto
          22 -16 20 -27 -4 vhcurveto
          -101 -15 -94 -113 -151 vvcurveto
          endchar
        </CharString>
        <CharString name="ellipsis">
          668 2 -21 hstem
          97 467 227 467 227 467 cntrmask 01110000
          1485 197 rmoveto
          -128 83 -88 148 -74 callgsubr
          vhcurveto
          -694 hmoveto
          -128 83 -88 148 -74 callgsubr
          vhcurveto
          -694 hmoveto
          -33 callsubr
        </CharString>
        <CharString name="emacron">
          -55 callsubr
          172 72 -23 callsubr
          -899 721 hintmask 11101000
          -106 callsubr
          hintmask 00010100
          -457 678 rmoveto
          28 22 3 2 24 hvcurveto
          3 22 25 1 29 hhcurveto
          311 hlineto
          32 24 -1 -3 22 hvcurveto
          -2 24 19 -2 22 hhcurveto
          -68 callsubr
          -21 -18 -39 callsubr
          -2 -22 -37 -2 -42 hhcurveto
          -307 hlineto
          -30 -28 2 -11 callsubr
          -19 2 -18 hhcurveto
          -65 callgsubr
          hvcurveto
          endchar
        </CharString>
        <CharString name="emdash">
          -45 611 72 hstem
          97 1142 -16 callgsubr
          731 hlineto
          31 26 -1 -2 21 hvcurveto
          -1 24 18 -2 23 hhcurveto
          39 22 18 25 27 -22 17 -35 -22 -16 -2 -2 -20 hvcurveto
          -2 -21 -38 -3 -43 hhcurveto
          -726 -27 callsubr
        </CharString>
        <CharString name="endash">
          -347 611 72 hstem
          97 840 -16 callgsubr
          429 hlineto
          33 25 -1 -2 22 hvcurveto
          -1 23 18 -2 22 hhcurveto
          39 22 18 25 27 -22 17 -35 -20 -17 -2 -2 -20 hvcurveto
          -2 -21 -37 -3 -45 hhcurveto
          -424 -27 callsubr
        </CharString>
        <CharString name="eng">
          92 -513 64 470 -23 callgsubr
          hstem
          173 1170 vstem
          -71 callsubr
          788 hlineto
          113 79 107 74 66 hhcurveto
          22 22 -7 -9 14 hvcurveto
          1 -1394 rlineto
          -3 -18 -19 -11 -20 hhcurveto
          -56 -42 10 10 -20 hvcurveto
          25 -47 -14 41 -35 hhcurveto
          -28 -16 -20 -26 -50 84 -54 161 282 217 133 326 hvcurveto
          798 vlineto
          228 -116 114 -237 -135 -140 -65 -124 -112 vhcurveto
          171 -430 vlineto
          endchar
        </CharString>
        <CharString name="eogonek">
          -105 -361 74 268 -50 callgsubr
          -23 callsubr
          -383 88 hintmask 11111000
          81 522 rmoveto
          -323 270 -218 321 98 87 17 30 74 vhcurveto
          hintmask 11110100
          -53 -55 -42 -79 -83 -67 callsubr
          95 142 190 61 65 hvcurveto
          -4 -3 rlineto
          14 17 3 12 15 -15 callsubr
          14 -24 -19 -11 -8 -24 -19 vhcurveto
          -9 -11 -13 1 callgsubr
          rrcurveto
          -74 -80 -108 -45 -140 hhcurveto
          -33 -54 5 9 -45 hvcurveto
          429 660 vlineto
          hintmask 11111000
          1 25 1 24 23 vvcurveto
          328 -1 -253 188 -282 hhcurveto
          -382 -220 -253 -311 hvcurveto
          476 49 rmoveto
          431 vlineto
          8 35 53 3 41 hhcurveto
          45 62 -7 -12 41 hvcurveto
          -423 vlineto
          endchar
        </CharString>
        <CharString name="equal">
          1 callsubr
          152 718 rmoveto
          8 callsubr
          385 -44 callsubr
          -380 -19 callgsubr
          hvcurveto
          -392 vmoveto
          -41 callgsubr
          385 -44 callgsubr
          -380 hlineto
          -42 callsubr
          -35 -20 -17 -28 -24 23 -19 32 hvcurveto
          endchar
        </CharString>
        <CharString name="eth">
          -107 -49 callgsubr
          382 -20 29 -20 72 84 hstemhm
          1145 79 hintmask 00000000
          hintmask 11011100
          84 541 rmoveto
          -328 227 -232 344 272 217 152 306 65 vhcurveto
          8 39 7 65 61 vvcurveto
          -2 371 -171 325 -250 177 73 72 rcurveline
          20 18 20 19 23 vvcurveto
          23 -1 -18 10 -20 hhcurveto
          -14 -16 -8 -25 -19 hvcurveto
          -11 -13 -32 -34 -42 -46 -85 50 -93 34 -97 13 rrcurveto
          -55 8 -23 -18 -25 vvcurveto
          -23 17 -20 34 -5 vhcurveto
          -2 14 12 1 12 hhcurveto
          hintmask 11101100
          17 1 11 0 18 -2 59 -8 58 -21 56 -31 -28 -28 -30 -22 -16 -14 rrcurveto
          -38 -32 -8 -14 -19 vvcurveto
          -23 19 -17 22 14 15 11 29 21 vhcurveto
          13 17 30 30 45 45 186 -130 149 -239 43 -248 -28 57 -35 44 -43 39 rrcurveto
          87 -98 -128 45 -135 hhcurveto
          hintmask 11011100
          -365 -217 -251 -294 hvcurveto
          503 -480 rmoveto
          948 vlineto
          3 21 24 1 26 hhcurveto
          257 224 -206 -249 6 hvcurveto
          -306 -5 -189 -197 -286 hhcurveto
          -25 -29 2 4 -24 hvcurveto
          endchar
        </CharString>
        <CharString name="exclam">
          -574 -12 callsubr
          97 613 vstem
          402 453 rmoveto
          15 25 13 42 9 hvcurveto
          43 172 22 68 90 160 rrcurveto
          94 167 10 32 76 vvcurveto
          148 -112 102 -195 -185 -121 -113 -137 -74 16 -42 92 -166 vhcurveto
          77 -139 38 -111 36 -143 rrcurveto
          -43 10 14 -12 22 hhcurveto
          -206 -301 rmoveto
          -100 73 -71 128 127 80 78 92 100 -67 82 -135 -127 -79 -69 -112 vhcurveto
          endchar
        </CharString>
        <CharString name="exclamdown">
          -574 -12 callsubr
          97 613 vstem
          402 1081 rmoveto
          135 67 82 100 92 -80 78 -127 -128 -73 -71 -100 -112 79 -69 127 hvcurveto
          -305 -850 rmoveto
          -137 121 -113 185 195 112 102 148 76 -10 32 -94 167 vhcurveto
          -90 160 -22 68 -43 172 rrcurveto
          42 -9 -25 13 -15 hhcurveto
          -22 -14 -12 -43 -10 hvcurveto
          -36 -143 -38 -111 -77 -139 rrcurveto
          -92 -166 -16 -42 -74 vvcurveto
          endchar
        </CharString>
        <CharString name="f">
          -570 -31 callsubr
          hstem
          4 956 vstem
          173 hmoveto
          -106 callgsubr
          endchar
        </CharString>
        <CharString name="ff">
          265 7 callsubr
          -121 956 hintmask 11110000
          173 hmoveto
          -106 callgsubr
          hintmask 11101000
          834 -995 rmoveto
          -106 callgsubr
          endchar
        </CharString>
        <CharString name="ffi">
          1022 21 -21 995 73 175 323 -206 73 hstemhm
          4 956 -121 956 39 454 hintmask 11011000
          173 hmoveto
          -106 callgsubr
          hintmask 11010100
          834 -995 rmoveto
          -106 callgsubr
          hintmask 10100010
          1049 248 rmoveto
          -96 callgsubr
          -215 -1243 rmoveto
          -12 callgsubr
          endchar
        </CharString>
        <CharString name="ffl">
          1022 7 callsubr
          -121 956 48 430 hintmask 11110000
          173 hmoveto
          -106 callgsubr
          hintmask 11101000
          834 -995 rmoveto
          -106 callgsubr
          hintmask 10000100
          -7 callgsubr
        </CharString>
        <CharString name="fi">
          187 21 -21 995 73 175 323 -206 73 hstemhm
          4 956 39 454 hintmask 11011000
          173 hmoveto
          -106 callgsubr
          hintmask 10100100
          1049 248 rmoveto
          -96 callgsubr
          -215 -1243 rmoveto
          -12 callgsubr
          endchar
        </CharString>
        <CharString name="five">
          -146 -19 70 866 73 353 71 -71 88 -88 92 hstemhm
          90 1075 hintmask 00000000
          hintmask 11010100
          191 96 rmoveto
          -84 133 118 -31 124 hhcurveto
          375 224 232 275 261 -204 241 -366 -130 -101 -28 -41 -93 hvcurveto
          49 422 rlineto
          557 hlineto
          34 42 0 4 30 hvcurveto
          hintmask 11001100
          41 5 20 14 26 vvcurveto
          20 -18 23 -23 -17 -10 -3 -1 -10 vhcurveto
          hintmask 11100100
          -9 -34 -128 -8 -172 hhcurveto
          -197 hlineto
          -60 -52 10 -35 hhcurveto
          -18 -13 -2 -8 -8 hvcurveto
          -12 -10 2 -24 -27 vvcurveto
          -11 0 -11 -2 -11 vhcurveto
          -53 -456 rlineto
          -18 -3 14 -22 25 hhcurveto
          13 14 4 13 21 hvcurveto
          45 88 109 31 97 hhcurveto
          23 24 -1 -2 22 hvcurveto
          -861 vlineto
          -2 -17 -18 0 -21 hhcurveto
          -190 -140 79 93 -56 hvcurveto
          20 -12 -21 27 -30 hhcurveto
          -23 -13 -21 -28 hvcurveto
          hintmask 11010100
          -32 44 -55 57 -38 vhcurveto
          endchar
        </CharString>
        <CharString name="fl">
          187 7 callsubr
          48 430 hintmask 11110000
          173 hmoveto
          -106 callgsubr
          hintmask 10001000
          -7 callgsubr
        </CharString>
        <CharString name="florin">
          -572 -338 73 1260 73 292 73 hstem
          173 63 vstem
          -81 -182 rmoveto
          -28 -15 -16 -26 -55 117 -59 164 289 155 151 410 hvcurveto
          772 52 vlineto
          22 17 -1 -1 16 hvcurveto
          -1 20 9 -1 12 hhcurveto
          36 23 15 27 25 -25 14 -30 -18 -13 -1 -1 -20 hvcurveto
          -1 -16 -22 -1 -34 hhcurveto
          -29 286 hlineto
          3 21 23 3 22 hhcurveto
          73 62 -7 -25 46 hvcurveto
          -20 39 34 -38 34 hhcurveto
          29 17 18 26 51 -147 68 -182 -262 -204 -114 -251 -30 hvcurveto
          -32 -21 1 1 -16 hvcurveto
          1 -19 -13 1 -19 hhcurveto
          -28 -25 -14 -25 -27 23 -15 34 12 10 1 1 20 hvcurveto
          1 15 19 1 20 hhcurveto
          17 -1259 hlineto
          -1 -4 -4 0 -4 hhcurveto
          -59 -52 15 41 -61 hvcurveto
          15 -25 -20 12 -25 hhcurveto
          endchar
        </CharString>
        <CharString name="foundryicon">
          1246 1326 201 hstem
          536 291 501 158 vstem
          536 709 rmoveto
          -452 366 -366 452 452 366 366 452 452 -366 366 -452 -452 -366 -366 -452 vhcurveto
          266 -364 rmoveto
          -1 28 19 84 5 22 rrcurveto
          6 10 29 3 25 hhcurveto
          19 16 -2 -3 5 hvcurveto
          5 -27 0 -13 11 -30 rrcurveto
          -30 11 81 -49 76 hhcurveto
          26 26 6 15 22 hvcurveto
          6 12 2 13 13 vvcurveto
          16 -4 15 -4 11 vhcurveto
          -40 94 -233 57 -66 124 rrcurveto
          -12 21 -9 32 33 vvcurveto
          28 6 30 16 27 vhcurveto
          23 43 63 46 48 19 13 3 14 5 13 3 rrcurveto
          -15 19 -9 20 22 vvcurveto
          119 241 135 244 11 vhcurveto
          150 6 22 -107 -106 -13 -1 -13 -12 vvcurveto
          -1 -13 0 -11 -10 vvcurveto
          1 -1 rlineto
          -62 vlineto
          223 9 rlineto
          10 3 -9 -12 -28 -17 -63 -11 -3 hvcurveto
          -208 hlineto
          -1 -140 0 -233 -2 vvcurveto
          -104 35 -31 52 -4 vhcurveto
          52 -3 69 17 29 7 17 4 8 -40 -6 -8 rrcurveto
          -27 -46 -88 -49 -107 hhcurveto
          -94 -89 33 -10 callsubr
          13 433 -100 1 rlineto
          -18 2 31 18 15 hvcurveto
          3 2 51 26 49 28 rrcurveto
          4 88 11 71 51 vvcurveto
          64 -17 33 -71 -3 vhcurveto
          -118 -5 -198 -81 8 -99 5 -69 91 -40 58 -24 rrcurveto
          13 -5 9 -4 0 vvcurveto
          2 -32 -17 -100 -7 -20 rrcurveto
          -3 -5 -21 -3 -21 hhcurveto
          -16 -16 2 3 -7 hvcurveto
          -6 8 -6 28 -9 32 rrcurveto
          25 -9 -60 41 -63 hhcurveto
          -24 -24 -6 -15 -22 hvcurveto
          -11 -18 -3 -36 7 -18 29 -86 208 -63 88 -100 rrcurveto
          31 -35 14 -39 -40 vvcurveto
          -17 -3 -17 -4 -17 vhcurveto
          -18 -49 -56 -60 -50 -26 -65 -36 -80 -6 -54 2 -86 4 -97 29 -13 51 rrcurveto
          endchar
        </CharString>
        <CharString name="four">
          72 21 -21 279 75 hstem
          34 98 vstem
          103 278 rmoveto
          17 14 1 63 hhcurveto
          440 -279 512 279 70 hlineto
          40 36 1 4 31 hvcurveto
          40 3 21 18 25 vvcurveto
          21 -18 17 -24 -16 -11 -3 -2 -10 vhcurveto
          -6 -26 -43 -3 -90 hhcurveto
          1060 -413 vlineto
          -620 -914 rlineto
          -59 -85 -23 -25 -50 vvcurveto
          -42 36 -20 33 vhcurveto
          70 76 rmoveto
          -43 -6 5 27 17 hvcurveto
          496 742 rlineto
          -774 vlineto
          endchar
        </CharString>
        <CharString name="fraction">
          -315 -12 callsubr
          55 968 vstem
          55 -58 callsubr
          endchar
        </CharString>
        <CharString name="g">
          -89 callsubr
          endchar
        </CharString>
        <CharString name="gbreve">
          -50 callsubr
          39 73 hstemhm
          289 531 195 79 hintmask 00000000
          hintmask 11100010
          -99 callgsubr
          hintmask 11110010
          151 -92 119 -137 67 vhcurveto
          43 46 51 32 42 hhcurveto
          9 23 -2 -5 14 hvcurveto
          -6 20 14 -3 15 hhcurveto
          27 27 14 35 34 -33 26 -67 -92 -92 -59 -78 -79 hvcurveto
          hintmask 11100010
          19 -61 -67 11 -69 hhcurveto
          -295 -203 -168 -223 -147 80 -114 123 -68 hvcurveto
          -133 -61 -70 -84 -98 vvcurveto
          506 246 rmoveto
          646 vlineto
          196 -4 218 -115 -210 vvcurveto
          -214 -220 -100 -194 -3 vhcurveto
          hintmask 00001100
          -45 863 -102 callgsubr
        </CharString>
        <CharString name="gcircumflex">
          -50 callsubr
          220 70 hstemhm
          201 760 54 79 hintmask 00000000
          hintmask 11100010
          -99 callgsubr
          hintmask 11110010
          151 -92 119 -137 67 vhcurveto
          43 46 51 32 42 hhcurveto
          9 23 -2 -5 14 hvcurveto
          -6 20 14 -3 15 hhcurveto
          27 27 14 35 34 -33 26 -67 -92 -92 -59 -78 -79 hvcurveto
          hintmask 11100010
          19 -61 -67 11 -69 hhcurveto
          -295 -203 -168 -223 -147 80 -114 123 -68 hvcurveto
          -133 -61 -70 -84 -98 vvcurveto
          506 246 rmoveto
          646 vlineto
          196 -4 218 -115 -210 vvcurveto
          -214 -220 -100 -194 -3 vhcurveto
          hintmask 00001100
          -361 822 -107 callgsubr
        </CharString>
        <CharString name="gcommaaccent">
          -89 callsubr
          hintmask 00000000
          864 vmoveto
          129 96 61 89 80 -82 68 -137 -46 -63 -18 -18 -42 hvcurveto
          21 51 62 47 34 25 29 21 27 14 -1 21 -1 27 -20 11 -31 -5 -22 -4 -19 -11 -22 -18 rrcurveto
          -86 -74 -66 -64 -125 vvcurveto
          -114 86 -64 154 vhcurveto
          endchar
        </CharString>
        <CharString name="gdotaccent">
          -50 callsubr
          50 323 hstemhm
          332 454 229 79 hintmask 00000000
          hintmask 11100010
          -99 callgsubr
          hintmask 11110010
          151 -92 119 -137 67 vhcurveto
          43 46 51 32 42 hhcurveto
          9 23 -2 -5 14 hvcurveto
          -6 20 14 -3 15 hhcurveto
          27 27 14 35 34 -33 26 -67 -92 -92 -59 -78 -79 hvcurveto
          hintmask 11100010
          19 -61 -67 11 -69 hhcurveto
          -295 -203 -168 -223 -147 80 -114 123 -68 hvcurveto
          -133 -61 -70 -84 -98 vvcurveto
          506 246 rmoveto
          646 vlineto
          196 -4 218 -115 -210 vvcurveto
          -214 -220 -100 -194 -3 vhcurveto
          hintmask 00001100
          -45 874 rmoveto
          -96 callgsubr
          endchar
        </CharString>
        <CharString name="germandbls">
          64 -24 69 -24 -21 1372 61 hstemhm
          981 81 hintmask 00000000
          hintmask 01110000
          160 hmoveto
          428 1355 hlineto
          9 31 34 8 30 hhcurveto
          195 103 -87 -86 -50 -13 -64 -129 -85 hvcurveto
          -96 -64 -43 -85 -74 vvcurveto
          -90 22 -51 189 -217 vhcurveto
          hintmask 10110000
          127 -146 41 -69 -64 vvcurveto
          -53 -57 -42 -57 -50 -34 15 37 -42 vhcurveto
          18 -20 -12 17 -18 hhcurveto
          -26 -15 -20 -20 -34 27 -14 22 -19 hvcurveto
          -34 40 67 -15 53 hhcurveto
          278 144 178 191 119 -44 115 -178 192 hvcurveto
          -129 140 -42 60 33 vvcurveto
          29 17 3 24 40 vhcurveto
          31 51 4 36 41 vvcurveto
          130 -156 99 -196 -334 -216 -187 -310 vhcurveto
          endchar
        </CharString>
        <CharString name="grave">
          -824 1195 -35 callgsubr
          91 398 hintmask 00000000
          hintmask 11000000
          335 1195 -83 callsubr
        </CharString>
        <CharString name="grave.cap">
          -824 1416 284 hstem
          41 398 vstem
          285 1416 -83 callsubr
        </CharString>
        <CharString name="greater">
          -470 2 -21 hstem
          102 788 vstem
          102 22 rmoveto
          -25 19 -16 23 19 21 12 18 22 vhcurveto
          29 23 49 35 94 69 465 337 rcurveline
          40 30 7 20 20 vvcurveto
          21 -12 23 -35 23 vhcurveto
          -548 382 -41 28 -21 16 -21 18 rlinecurve
          27 -33 -20 3 -17 hhcurveto
          -23 -17 -16 -18 -15 4 -14 39 -24 hvcurveto
          20 -12 49 -31 32 -21 553 -393 rcurveline
          -477 -348 -58 -42 -70 -43 -29 -20 rlinecurve
          -38 -24 -25 -16 -27 vvcurveto
          endchar
        </CharString>
        <CharString name="greaterequal">
          -380 255 -4 callgsubr
          229 414 rmoveto
          20 17 6 21 31 hvcurveto
          18 12 19 14 32 20 409 252 rcurveline
          43 26 18 16 29 vvcurveto
          20 -13 19 -34 22 vhcurveto
          -401 252 -59 36 -10 9 -31 22 rlinecurve
          14 -19 -21 13 -21 hhcurveto
          -17 -21 -11 -26 -17 9 -15 28 -14 hvcurveto
          30 -16 6 -5 34 -22 448 -282 rcurveline
          -388 -238 -69 -41 -18 -8 -25 -10 rlinecurve
          -41 -17 -14 -21 -22 vvcurveto
          -23 17 -15 23 vhcurveto
          -70 -166 -93 callgsubr
          endchar
        </CharString>
        <CharString name="guillemotleft">
          -380 53 961 hstem
          100 100 329 100 vstem
          529 380 -72 callgsubr
          -429 -319 -72 callgsubr
          endchar
        </CharString>
        <CharString name="guillemotright">
          -380 53 961 hstem
          396 100 329 100 vstem
          529 92 rmoveto
          -73 callgsubr
          -429 hmoveto
          -73 callgsubr
          endchar
        </CharString>
        <CharString name="guilsinglleft">
          -809 53 961 hstem
          100 100 vstem
          100 380 -72 callgsubr
          endchar
        </CharString>
        <CharString name="guilsinglright">
          -809 53 961 hstem
          396 100 vstem
          100 92 rmoveto
          -73 callgsubr
          endchar
        </CharString>
        <CharString name="h">
          91 21 -21 985 101 hstem
          173 1169 vstem
          -68 callgsubr
          516 -430 vlineto
          endchar
        </CharString>
        <CharString name="hbar">
          91 21 -21 985 101 68 89 hstem
          50 1292 vstem
          -68 callgsubr
          263 vlineto
          16 14 -1 -2 13 hvcurveto
          -2 24 19 -2 22 hhcurveto
          -68 callsubr
          -21 -18 -39 callsubr
          -14 -1 -18 -2 -22 -1 rrcurveto
          180 -430 -177 vlineto
          -2 -2 1 -2 hhcurveto
          2 -23 -19 2 -18 hhcurveto
          -65 callgsubr
          25 20 2 2 21 hvcurveto
          endchar
        </CharString>
        <CharString name="hcircumflex">
          91 21 -21 985 101 658 70 hstemhm
          173 1169 -926 760 hintmask 11010000
          -68 callgsubr
          516 -430 vlineto
          hintmask 00101000
          282 107 -107 callgsubr
        </CharString>
        <CharString name="hungarumlaut">
          -449 1232 13 callsubr
          1232 -80 callsubr
        </CharString>
        <CharString name="hungarumlaut.cap">
          -449 1530 13 callsubr
          1530 -80 callsubr
        </CharString>
        <CharString name="hyphen">
          -668 611 72 hstem
          97 519 vstem
          152 605 rmoveto
          -41 callgsubr
          109 hlineto
          32 24 -1 -2 24 hvcurveto
          -1 21 20 -2 22 hhcurveto
          40 21 18 25 27 -21 17 -36 -21 -16 -39 callsubr
          -2 -24 -37 -3 -42 hhcurveto
          -105 hlineto
          -42 callsubr
          -35 -20 -17 -27 -25 23 -18 32 hvcurveto
          endchar
        </CharString>
        <CharString name="i">
          -20 callsubr
          1243 323 hstem
          164 454 vstem
          388 1243 rmoveto
          -96 callgsubr
          -215 -1243 rmoveto
          -12 callgsubr
          endchar
        </CharString>
        <CharString name="iacute">
          -20 callsubr
          1299 284 0 callsubr
          -283 399 hintmask 10100000
          -55 callgsubr
          hintmask 01010000
          147 231 -81 callsubr
        </CharString>
        <CharString name="ibreve">
          -20 callsubr
          1232 73 hstemhm
          129 531 -487 430 hintmask 10010000
          -55 callgsubr
          hintmask 01100000
          223 164 -102 callgsubr
        </CharString>
        <CharString name="icircumflex">
          -20 callsubr
          1514 70 hstemhm
          41 760 -628 430 hintmask 10010000
          -55 callgsubr
          hintmask 01100000
          -93 224 -107 callgsubr
        </CharString>
        <CharString name="idieresis">
          -20 callsubr
          1303 253 hstemhm
          -34 855 -648 430 hintmask 10010000
          -55 callgsubr
          hintmask 01100000
          470 235 -104 callsubr
        </CharString>
        <CharString name="igrave">
          -20 callsubr
          0 callsubr
          vstemhm
          -55 callgsubr
          250 127 -83 callsubr
        </CharString>
        <CharString name="ij">
          153 -353 73 301 11 callsubr
          44 757 hintmask 01110000
          388 1243 rmoveto
          -96 callgsubr
          -215 -1243 rmoveto
          -12 callgsubr
          hintmask 10101000
          1016 175 rmoveto
          -96 callgsubr
          -483 -1446 -79 callgsubr
          endchar
        </CharString>
        <CharString name="imacron">
          -20 callsubr
          1258 72 hstemhm
          37 721 -585 430 hintmask 10010000
          -55 callgsubr
          hintmask 01100000
          -79 181 rmoveto
          28 22 3 2 24 hvcurveto
          3 22 25 1 29 hhcurveto
          311 hlineto
          32 24 -1 -3 22 hvcurveto
          -2 24 19 -2 22 hhcurveto
          -68 callsubr
          -21 -18 -39 callsubr
          -2 -22 -37 -2 -42 hhcurveto
          -307 hlineto
          -30 -28 2 -11 callsubr
          -19 2 -18 hhcurveto
          -65 callgsubr
          hvcurveto
          endchar
        </CharString>
        <CharString name="infinity">
          77 328 73 356 73 hstem
          97 78 1110 76 vstem
          375 328 rmoveto
          133 113 91 99 105 hvcurveto
          -157 168 85 -33 102 hhcurveto
          156 124 108 142 138 -109 114 -161 -117 -86 -55 -155 -160 hvcurveto
          177 -186 -74 33 -96 hhcurveto
          -164 -111 -117 -135 -141 116 -109 162 hvcurveto
          405 242 rmoveto
          137 145 68 50 93 hhcurveto
          99 100 -66 -112 -113 -90 -65 -118 -79 -78 38 131 -140 hvcurveto
          -400 -169 rmoveto
          -109 -96 77 101 107 84 71 110 77 73 -39 -149 154 hvcurveto
          -129 -140 -68 -39 -85 hhcurveto
          endchar
        </CharString>
        <CharString name="integral">
          -603 -377 78 1814 78 hstem
          346 86 vstem
          102 -233 rmoveto
          -25 -10 -23 -15 -49 58 -57 105 106 96 78 176 hvcurveto
          1466 vlineto
          111 34 61 79 31 25 -14 -18 18 vhcurveto
          -29 29 12 -5 18 hhcurveto
          23 10 21 16 49 -58 58 -105 -106 -96 -78 -177 hvcurveto
          -1465 vlineto
          -112 -34 -60 -79 -31 -25 14 17 -18 vhcurveto
          29 -29 -7 6 -21 hhcurveto
          endchar
        </CharString>
        <CharString name="iogonek">
          -648 -361 74 308 11 callsubr
          -395 88 hintmask 11101000
          173 hmoveto
          146 hlineto
          -53 -40 -43 -63 -86 -67 callsubr
          73 46 68 58 43 hvcurveto
          188 -30 callsubr
          215 175 rmoveto
          hintmask 11110000
          -96 callgsubr
          endchar
        </CharString>
        <CharString name="itilde">
          -20 callsubr
          1182 -45 callgsubr
          -9 -20 hstemhm
          26 706 -559 430 hintmask 10000100
          -55 callgsubr
          hintmask 00000000
          -108 124 rmoveto
          hintmask 01011000
          -75 callgsubr
          hintmask 01101000
          -96 callsubr
          hintmask 01011000
          -82 callgsubr
          hvcurveto
          hintmask 01101000
          -25 callgsubr
          vhcurveto
          endchar
        </CharString>
        <CharString name="j">
          -604 -353 73 1523 323 hstem
          -95 757 vstem
          432 1243 rmoveto
          -96 callgsubr
          -483 -1446 -79 callgsubr
          endchar
        </CharString>
        <CharString name="jcircumflex">
          -604 -353 73 1693 70 hstemhm
          -95 743 -573 760 hintmask 10100000
          -51 -203 -79 callgsubr
          hintmask 01010000
          165 1394 -107 callgsubr
        </CharString>
        <CharString name="k">
          -57 callgsubr
          763 -430 vlineto
          endchar
        </CharString>
        <CharString name="kcommaaccent">
          -91 21 -21 hstemhm
          173 1132 vstemhm
          -53 callgsubr
          763 -430 vlineto
          519 -1569 -104 callgsubr
        </CharString>
        <CharString name="kgreenlandic">
          -57 callgsubr
          416 -430 vlineto
          endchar
        </CharString>
        <CharString name="l">
          -648 -2 callsubr
          430 vstem
          11 callgsubr
          endchar
        </CharString>
        <CharString name="lacute">
          -20 callsubr
          1528 284 0 callsubr
          -374 398 -8 callgsubr
          56 113 -83 callgsubr
        </CharString>
        <CharString name="lcaron">
          -379 21 -21 1434 -20 0 callsubr
          357 105 -8 callgsubr
          695 -598 -91 callgsubr
        </CharString>
        <CharString name="lcommaaccent">
          -20 callsubr
          0 callsubr
          vstemhm
          11 callgsubr
          198 -1562 -104 callgsubr
        </CharString>
        <CharString name="ldot">
          -212 -2 callsubr
          990 vstem
          11 callgsubr
          591 -655 -25 callsubr
          endchar
        </CharString>
        <CharString name="less">
          -470 2 -21 hstem
          30 788 vstem
          77 475 rmoveto
          465 -337 94 -69 49 -35 29 -23 rlinecurve
          -18 22 21 -12 19 hhcurveto
          23 19 16 25 27 -25 16 -38 24 hvcurveto
          -29 20 -70 43 -58 42 -478 348 rcurveline
          554 393 32 21 49 31 20 12 rlinecurve
          39 24 4 14 15 vvcurveto
          18 -17 16 -23 -17 -20 -3 -27 -33 vhcurveto
          -21 -18 -21 -16 -41 -28 -548 -382 rcurveline
          -35 -23 -12 -23 -21 vvcurveto
          -20 7 -20 40 -30 vhcurveto
          endchar
        </CharString>
        <CharString name="lessequal">
          -380 255 -4 callgsubr
          222 739 rmoveto
          408 -252 33 -20 20 -14 18 -12 rlinecurve
          -21 30 19 -6 17 hhcurveto
          25 16 15 23 22 -13 21 -41 17 hvcurveto
          -26 10 -18 8 -69 41 -388 238 rcurveline
          449 282 33 22 6 5 30 16 rlinecurve
          28 14 9 15 17 vvcurveto
          26 -21 11 -17 -20 -22 -13 -14 -19 vhcurveto
          -31 -22 -11 -9 -58 -36 -400 -252 rcurveline
          -35 -22 -13 -19 -20 vvcurveto
          -29 19 -16 42 -26 vhcurveto
          -63 -491 -93 callgsubr
          endchar
        </CharString>
        <CharString name="logicalnot">
          -327 527 74 hstem
          888 73 vstem
          130 521 rmoveto
          11 31 3 1 9 hvcurveto
          1 16 87 1 37 hhcurveto
          567 -137 hlineto
          -28 -1 -32 -1 -27 vhcurveto
          -1 -22 -3 -30 -1 -12 rrcurveto
          -31 -1 21 -22 25 hhcurveto
          27 17 19 23 17 -3 13 -3 23 hvcurveto
          -3 39 0 34 67 vvcurveto
          121 vlineto
          60 -44 -1 -27 vhcurveto
          -619 hlineto
          -49 -10 1 4 -38 hvcurveto
          2 -23 -16 1 -16 hhcurveto
          -31 -17 -19 -24 -21 19 -24 40 hvcurveto
          endchar
        </CharString>
        <CharString name="lozenge">
          -334 0 -21 hstem
          97 853 vstem
          463 37 rmoveto
          -45 25 16 -13 20 hhcurveto
          24 13 12 46 24 hvcurveto
          332 655 rlineto
          25 51 8 28 15 vvcurveto
          11 -9 36 -24 46 vhcurveto
          -332 656 rlineto
          49 -25 -14 9 -22 hhcurveto
          -25 -11 -12 -46 -25 hvcurveto
          -325 -644 rlineto
          -40 -78 -1 -13 -15 vvcurveto
          -12 0 -10 18 -39 vhcurveto
          412 -626 rmoveto
          -348 688 341 687 347 -688 rlineto
          endchar
        </CharString>
        <CharString name="lslash">
          -20 callsubr
          hstem
          -22 818 vstem
          -71 callsubr
          784 hlineto
          24 13 36 18 36 14 30 8 rlinecurve
          48 13 19 16 22 vvcurveto
          32 -21 13 -25 -30 -33 -11 -45 -84 vhcurveto
          538 -430 -762 vlineto
          -48 -24 -34 -13 -48 -13 rrcurveto
          -43 -14 -22 -19 -23 vvcurveto
          -25 18 -17 27 30 31 12 46 89 vhcurveto
          endchar
        </CharString>
        <CharString name="m">
          812 -21 callsubr
          hstem
          173 1890 vstem
          -72 callsubr
          endchar
        </CharString>
        <CharString name="macron">
          -501 1258 72 hstem
          91 721 vstem
          148 1249 rmoveto
          28 22 3 2 24 hvcurveto
          3 22 25 1 29 hhcurveto
          311 hlineto
          32 24 -1 -3 22 hvcurveto
          -2 24 19 -2 22 hhcurveto
          -68 callsubr
          -21 -18 -39 callsubr
          -2 -22 -37 -2 -42 hhcurveto
          -307 hlineto
          -30 -28 2 -11 callsubr
          -19 2 -18 hhcurveto
          -65 callgsubr
          hvcurveto
          endchar
        </CharString>
        <CharString name="macron.cap">
          -501 1721 72 hstem
          91 721 vstem
          148 1712 rmoveto
          28 22 3 2 24 hvcurveto
          3 22 25 1 29 hhcurveto
          311 hlineto
          32 24 -1 -3 22 hvcurveto
          -2 24 19 -2 22 hhcurveto
          -68 callsubr
          -21 -18 -39 callsubr
          -2 -22 -37 -2 -42 hhcurveto
          -307 hlineto
          -30 -28 2 -11 callsubr
          -19 2 -18 hhcurveto
          -65 callgsubr
          hvcurveto
          endchar
        </CharString>
        <CharString name="minus">
          -380 528 -4 callgsubr
          159 521 -93 callgsubr
          endchar
        </CharString>
        <CharString name="mu">
          -141 -317 -21 327 73 hstem
          225 78 594 77 vstem
          225 -25 rmoveto
          -55 2 -76 6 -37 vhcurveto
          -102 17 52 -43 49 hhcurveto
          28 18 20 22 22 -8 12 -22 18 hvcurveto
          -47 36 -17 48 119 vvcurveto
          195 vlineto
          -101 53 101 -64 119 hhcurveto
          138 115 65 109 73 hvcurveto
          -116 19 63 -58 104 hhcurveto
          63 44 24 39 17 -14 16 -22 -12 -9 -5 -6 -11 hvcurveto
          -7 -11 -18 -4 -14 hhcurveto
          -54 -56 47 146 hvcurveto
          584 vlineto
          73 1 51 4 22 vhcurveto
          3 21 5 17 16 vvcurveto
          26 -16 20 -27 -26 -24 -20 -34 vhcurveto
          -19 3 -88 -63 vvcurveto
          -576 vlineto
          -155 -70 -115 -69 -122 hhcurveto
          -150 -137 141 200 hvcurveto
          437 vlineto
          73 1 51 4 22 vhcurveto
          3 21 3 17 16 vvcurveto
          26 -14 20 -29 -25 -25 -20 -34 vhcurveto
          -19 4 -25 -57 vvcurveto
          endchar
        </CharString>
        <CharString name="multiply">
          -521 234 656 hstem
          106 664 vstem
          141 234 rmoveto
          19 18 10 24 20 hvcurveto
          22 26 36 36 35 36 147 147 rcurveline
          147 -147 41 -41 27 -26 30 -37 rlinecurve
          -16 13 16 -12 20 hhcurveto
          21 17 15 21 23 -7 13 -48 41 hvcurveto
          -29 24 -11 6 -34 36 -151 151 rcurveline
          144 143 39 41 27 22 22 19 rlinecurve
          36 28 7 17 18 vvcurveto
          21 -15 17 -21 -24 -16 -10 -41 -34 vhcurveto
          -28 -35 -6 -7 -35 -34 -147 -147 rcurveline
          -138 140 -29 27 -40 45 -8 11 rlinecurve
          42 -32 -17 9 -18 hhcurveto
          -26 -15 -16 -21 -18 7 -17 31 -26 hvcurveto
          20 -15 36 -35 35 -35 142 -143 rcurveline
          -154 -153 -34 -35 -12 -8 -28 -24 rlinecurve
          -42 -31 -11 -18 -21 vvcurveto
          -25 13 -15 22 vhcurveto
          endchar
        </CharString>
        <CharString name="n">
          -13 callsubr
          hstem
          173 1170 vstem
          -87 callgsubr
          endchar
        </CharString>
        <CharString name="nacute">
          -13 callsubr
          213 -35 callgsubr
          173 1170 -611 399 hintmask 11010000
          -87 callgsubr
          hintmask 00101000
          559 231 -81 callsubr
        </CharString>
        <CharString name="nbspace">
          -949 endchar
        </CharString>
        <CharString name="ncaron">
          -13 callsubr
          -9 callsubr
          173 1170 -959 760 hintmask 11010000
          -87 callgsubr
          hintmask 00101000
          473 134 -105 callgsubr
        </CharString>
        <CharString name="ncommaaccent">
          -13 callsubr
          hstemhm
          173 1170 vstemhm
          -87 callgsubr
          568 -1215 -104 callgsubr
        </CharString>
        <CharString name="nine">
          -41 -19 68 436 71 804 73 hstem
          92 80 vstem
          203 166 rmoveto
          -34 30 -41 63 -37 vhcurveto
          -45 77 109 -28 114 hhcurveto
          363 301 271 488 483 -276 210 -324 -293 -275 -181 -322 -337 229 -99 210 -8 hvcurveto
          -1 15 15 0 14 hhcurveto
          54 46 7 39 -2 hvcurveto
          -2 30 -13 5 -33 1 -38 1 -8 -14 -47 2 rrcurveto
          -206 7 -154 116 235 vvcurveto
          239 156 207 340 20 20 -1 -3 19 vhcurveto
          -1293 vlineto
          -8 -34 -42 -6 -49 hhcurveto
          -136 -105 34 75 -62 hvcurveto
          17 -14 -15 24 -28 hhcurveto
          -25 -14 -11 -22 hvcurveto
          endchar
        </CharString>
        <CharString name="notequal">
          1 callsubr
          259 151 rmoveto
          -19 17 -18 19 32 44 97 119 57 vhcurveto
          1 2 rlineto
          259 -44 callgsubr
          -211 hlineto
          153 319 rlineto
          71 -44 callsubr
          -23 hlineto
          35 77 39 84 13 vvcurveto
          20 -15 19 -22 -21 -12 -10 -35 -12 vhcurveto
          -6 -25 -37 -78 -30 -65 rrcurveto
          -276 -19 callgsubr
          8 callsubr
          233 hlineto
          -148 -316 -2 -3 rlineto
          -91 hlineto
          -42 callsubr
          -35 -20 -17 -28 -24 23 -19 32 -41 callgsubr
          44 hlineto
          -11 -19 -34 -82 -9 -13 rrcurveto
          -23 -29 -11 -20 -18 vvcurveto
          endchar
        </CharString>
        <CharString name="ntilde">
          -13 callsubr
          96 -45 callgsubr
          -9 -20 hstemhm
          173 1170 -948 706 hintmask 11000100
          -87 callgsubr
          hintmask 00000000
          261 124 rmoveto
          hintmask 00101010
          -75 callgsubr
          hintmask 00110010
          -96 callsubr
          hintmask 00101010
          -82 callgsubr
          hvcurveto
          hintmask 00110010
          -25 callgsubr
          vhcurveto
          endchar
        </CharString>
        <CharString name="numbersign">
          -468 2 -21 575 73 210 73 521 -20 hstem
          45 845 vstem
          122 25 rmoveto
          -21 14 -23 28 31 29 23 144 28 vhcurveto
          77 408 rlineto
          207 hlineto
          -46 -250 -24 -127 -18 -49 -17 -37 rlinecurve
          -11 -27 -6 -18 -23 vvcurveto
          -21 14 -23 28 31 30 23 144 28 vhcurveto
          77 408 94 -3 rlineto
          -2 20 22 -1 10 hhcurveto
          35 22 19 24 27 -22 17 -31 -13 -17 -1 -3 -33 hvcurveto
          -2 -15 -27 -2 -31 hhcurveto
          39 210 rlineto
          31 50 -2 -2 26 hvcurveto
          -2 20 21 -1 11 hhcurveto
          35 -17 callgsubr
          28 -21 16 -31 -14 -15 -1 -3 -35 hvcurveto
          -2 -16 -30 -2 -39 hhcurveto
          61 319 8 37 13 53 9 21 rlinecurve
          7 18 6 18 14 vvcurveto
          28 -21 13 -21 -37 -19 -20 -134 -26 vhcurveto
          -68 -367 rlineto
          -205 hlineto
          61 319 8 37 14 53 8 21 rlinecurve
          7 18 6 18 14 vvcurveto
          28 -20 13 -22 -36 -19 -20 -134 -26 vhcurveto
          -67 -367 rlineto
          -38 -36 0 2 -26 hvcurveto
          2 -24 -13 1 -16 hhcurveto
          -24 -21 -13 -28 -24 24 -20 33 16 25 1 2 20 hvcurveto
          1 18 22 2 26 hhcurveto
          -38 -209 rlineto
          -52 hlineto
          -24 -20 0 2 -17 hvcurveto
          2 -24 -12 0 -18 hhcurveto
          -24 -22 -13 -17 callsubr
          -19 32 18 25 1 2 19 hvcurveto
          80 3 -45 -250 -25 -127 -18 -49 -16 -37 rlinecurve
          -12 -27 -6 -18 -23 vvcurveto
          221 604 rmoveto
          39 210 rlineto
          206 hlineto
          -39 -210 rlineto
          endchar
        </CharString>
        <CharString name="o">
          -102 -49 callgsubr
          hstem
          1139 81 vstem
          -101 callsubr
          endchar
        </CharString>
        <CharString name="oacute">
          -102 -49 callgsubr
          213 -35 callgsubr
          570 399 170 81 hintmask 11001000
          -101 callsubr
          hintmask 00110000
          -54 1243 -81 callsubr
        </CharString>
        <CharString name="obreve">
          -102 -49 callgsubr
          146 73 hstemhm
          379 531 229 81 hintmask 11001000
          -101 callsubr
          hintmask 00110000
          22 1176 -102 callgsubr
        </CharString>
        <CharString name="ocircumflex">
          -102 -49 callgsubr
          428 70 hstemhm
          291 760 88 81 hintmask 11001000
          -101 callsubr
          hintmask 00110000
          -294 1236 -107 callgsubr
        </CharString>
        <CharString name="odieresis">
          -102 -49 callgsubr
          217 253 hstemhm
          216 855 68 81 hintmask 11001000
          -101 callsubr
          hintmask 00110000
          269 1247 -104 callsubr
        </CharString>
        <CharString name="oe">
          729 -19 -50 callgsubr
          hstem
          81 1972 vstem
          81 545 rmoveto
          -337 249 -227 322 174 144 65 104 100 vhcurveto
          -107 108 157 -62 171 hhcurveto
          192 146 64 98 96 hvcurveto
          28 30 6 14 20 -15 callsubr
          14 -23 -19 -12 -8 -24 -19 vhcurveto
          -9 -11 -13 1 callgsubr
          rrcurveto
          -74 -80 -108 -45 -139 hhcurveto
          -34 -54 5 9 -45 hvcurveto
          429 660 vlineto
          1 25 1 24 23 vvcurveto
          328 -1 -253 188 -281 hhcurveto
          -192 -150 -64 -103 -103 hvcurveto
          103 -98 -142 64 -177 hhcurveto
          -331 -244 -235 -306 hvcurveto
          1310 26 rmoveto
          431 vlineto
          8 35 53 3 42 hhcurveto
          44 62 -7 -12 41 hvcurveto
          -423 vlineto
          -1044 -515 rmoveto
          956 vlineto
          1 9 10 0 10 hhcurveto
          154 129 -56 -97 86 hvcurveto
          -69 -94 -37 -117 -127 vvcurveto
          -122 38 -107 65 -86 vhcurveto
          -99 -90 -133 -53 -142 hhcurveto
          -9 -10 0 1 -11 hvcurveto
          endchar
        </CharString>
        <CharString name="ogonek">
          -845 -361 74 hstem
          91 88 vstem
          91 -189 rmoveto
          -46 callgsubr
          -51 17 rlineto
          -86 -23 -112 -77 -139 vvcurveto
          endchar
        </CharString>
        <CharString name="ograve">
          -102 -49 callgsubr
          hstemhm
          1139 81 vstemhm
          -101 callsubr
          72 1139 -83 callsubr
        </CharString>
        <CharString name="ohungarumlaut">
          -102 -49 callgsubr
          146 -35 callgsubr
          290 723 126 81 hintmask 11001000
          -101 callsubr
          hintmask 00110000
          40 1176 -80 callsubr
        </CharString>
        <CharString name="omacron">
          -102 -49 callgsubr
          172 72 hstemhm
          287 721 131 81 hintmask 11001000
          -101 callsubr
          hintmask 00110000
          -280 1193 rmoveto
          28 22 3 2 24 hvcurveto
          3 22 25 1 29 hhcurveto
          311 hlineto
          32 24 -1 -3 22 hvcurveto
          -2 24 19 -2 22 hhcurveto
          -68 callsubr
          -21 -18 -39 callsubr
          -2 -22 -37 -2 -42 hhcurveto
          -307 hlineto
          -30 -28 2 -11 callsubr
          -19 2 -18 hhcurveto
          -65 callgsubr
          hvcurveto
          endchar
        </CharString>
        <CharString name="one">
          -419 21 -21 1435 -20 hstem
          1 790 vstem
          279 hmoveto
          512 1435 hlineto
          -568 -170 -59 -18 -47 -15 -49 -13 rlinecurve
          -46 -11 -20 -18 -1 -23 -2 -23 12 -13 30 -1 24 -1 22 10 19 11 20 11 39 17 50 15 65 19 rcurveline
          endchar
        </CharString>
        <CharString name="onehalf">
          291 0 68 -66 -21 734 66 652 -20 hstemhm
          220 338 hintmask 00000000
          hintmask 01111000
          314 -58 callsubr
          -94 628 -63 callsubr
          hintmask 10111000
          743 -1279 -73 callsubr
        </CharString>
        <CharString name="onequarter">
          348 0 220 -218 -21 175 64 1213 -20 hstemhm
          220 338 621 342 hintmask 00000000
          hintmask 01111100
          318 24 rmoveto
          -25 17 -18 24 37 15 22 161 103 vhcurveto
          626 986 72 112 19 29 24 34 rlinecurve
          21 29 11 19 23 vvcurveto
          23 -18 14 -23 -29 -14 -21 -29 -15 vhcurveto
          -14 -27 -17 -39 -27 -41 -666 -1037 rcurveline
          -35 -54 -34 -48 -26 -27 rrcurveto
          -39 -45 -12 -18 -23 vvcurveto
          -98 628 -63 callsubr
          614 -1088 rmoveto
          -19 17 -16 34 vhcurveto
          294 hlineto
          hintmask 10011100
          -156 342 vlineto
          hintmask 01111100
          156 7 vlineto
          36 36 1 2 17 hvcurveto
          30 3 23 10 25 vvcurveto
          19 -14 11 -25 -9 -18 -2 -1 -4 vhcurveto
          -2 -15 -18 -2 -46 12 callsubr
          -37 -59 -7 -14 -20 vvcurveto
          92 34 rmoveto
          5 1 4 7 8 vhcurveto
          245 386 rlineto
          -408 -241 vlineto
          -8 -4 1 4 hvcurveto
          endchar
        </CharString>
        <CharString name="onesuperior">
          -764 1433 -20 hstem
          184 338 vstem
          184 652 -63 callsubr
          endchar
        </CharString>
        <CharString name="ordfeminine">
          -597 726 73 308 71 186 69 hstem
          73 246 159 238 vstem
          328 726 rmoveto
          47 53 14 29 50 hvcurveto
          -33 238 387 vlineto
          154 -35 69 -80 48 vhcurveto
          28 -56 -76 11 -67 hhcurveto
          -53 -63 -5 -26 -65 hvcurveto
          -57 -21 -31 -27 -25 vvcurveto
          -20 13 -16 25 6 20 3 14 13 vhcurveto
          33 31 65 21 80 hhcurveto
          30 34 -4 -7 28 hvcurveto
          -202 vlineto
          18 -45 -49 9 -46 hhcurveto
          -162 -103 -84 -142 -133 95 -93 160 hvcurveto
          -9 74 rmoveto
          304 vlineto
          1 10 10 2 10 hhcurveto
          47 38 -6 -21 44 hvcurveto
          -240 vlineto
          -30 -46 -43 -11 -49 hhcurveto
          -6 -7 0 1 -8 hvcurveto
          endchar
        </CharString>
        <CharString name="ordmasculine">
          -606 716 73 573 71 hstem
          61 323 270 82 vstem
          399 716 rmoveto
          164 173 121 240 227 -157 129 -177 -173 -168 -126 -224 -244 171 -123 167 hvcurveto
          -15 73 rmoveto
          572 vlineto
          1 6 5 0 5 hhcurveto
          127 127 -93 -194 -187 -121 -99 -132 hvcurveto
          endchar
        </CharString>
        <CharString name="oslash">
          -102 -222 1507 -1304 -38 callgsubr
          hstemhm
          198 904 37 81 hintmask 10011000
          228 -118 rmoveto
          -24 -31 -10 -22 4 -19 6 -24 21 -12 26 5 28 7 56 110 72 134 rrcurveto
          hintmask 01111000
          -32 73 83 -17 89 hhcurveto
          343 225 250 306 194 -90 173 -158 97 hvcurveto
          38 71 34 74 23 30 -6 callsubr
          -36 -98 -88 -142 rrcurveto
          31 -72 -82 17 -91 hhcurveto
          -331 -244 -235 -306 -213 99 -169 155 -96 hvcurveto
          -3 -5 -27 -49 -56 -107 -21 -24 rlinecurve
          396 174 rmoveto
          956 vlineto
          1 9 10 0 10 hhcurveto
          285 201 -192 -287 -304 -228 -175 -257 -9 -10 0 1 -11 hvcurveto
          endchar
        </CharString>
        <CharString name="otilde">
          -102 -49 callgsubr
          96 -45 callgsubr
          -9 -20 hstemhm
          298 706 135 81 hintmask 11000010
          -101 callsubr
          hintmask 00000000
          -287 1136 rmoveto
          hintmask 00101100
          -75 callgsubr
          hintmask 00110100
          -96 callsubr
          hintmask 00101100
          -82 callgsubr
          hvcurveto
          hintmask 00110100
          -25 callgsubr
          vhcurveto
          endchar
        </CharString>
        <CharString name="p">
          107 -4 callsubr
          876 137 -55 73 hstemhm
          173 1256 hintmask 00000000
          hintmask 11011000
          173 -320 rmoveto
          411 364 hlineto
          -59 callgsubr
          -21 -52 -93 hvcurveto
          hintmask 11101000
          5 callsubr
          hintmask 11011000
          -56 callsubr
          hintmask 11101000
          -86 -107 19 59 -101 hvcurveto
          endchar
        </CharString>
        <CharString name="paragraph">
          -317 -91 72 21 -21 1375 82 -79 74 hstemhm
          586 78 96 77 hintmask 00000000
          hintmask 10011100
          241 -25 rmoveto
          -34 52 -32 83 185 103 126 285 vhcurveto
          1039 96 -1221 vlineto
          hintmask 01011100
          -77 -3 -6 -19 vvcurveto
          -34 24 -21 25 28 15 21 26 15 -4 18 -3 20 vhcurveto
          -4 24 -1 51 72 vvcurveto
          1132 21 vlineto
          22 18 -1 -1 15 hvcurveto
          hintmask 01101100
          -1 21 11 -1 10 hhcurveto
          34 23 15 27 26 -25 14 -28 -18 -14 -2 -1 -18 hvcurveto
          hintmask 10011100
          -1 -19 -21 -1 -34 hhcurveto
          -239 hlineto
          -370 -136 -151 -220 -212 201 -154 295 -2 hvcurveto
          -365 vlineto
          -257 -78 -91 -120 -29 -17 3 11 -27 vhcurveto
          6 -14 -12 5 -15 hhcurveto
          -23 -10 -15 -16 hvcurveto
          endchar
        </CharString>
        <CharString name="parenleft">
          -466 1495 78 hstem
          111 737 vstem
          599 -75 rmoveto
          1529 vlineto
          57 28 58 15 53 -2 rrcurveto
          58 -2 23 13 30 vvcurveto
          18 -22 19 -42 -369 -304 -398 -477 -553 383 -343 290 42 22 12 26 22 -19 14 -48 2 vhcurveto
          -62 3 -61 16 -59 28 rrcurveto
          endchar
        </CharString>
        <CharString name="parenright">
          -466 1495 78 hstem
          91 737 vstem
          91 -160 rmoveto
          -26 22 -12 42 290 383 343 553 477 -304 398 -369 -42 -22 -19 -18 -30 23 -13 58 2 vhcurveto
          53 2 57 -15 58 -28 rrcurveto
          -1529 vlineto
          -59 -28 -62 -16 -61 -3 rrcurveto
          -48 -2 -19 -14 -22 vvcurveto
          endchar
        </CharString>
        <CharString name="partialdiff">
          -218 -21 82 842 81 528 81 hstem
          97 87 794 88 vstem
          97 471 rmoveto
          -290 204 -202 256 321 188 299 537 616 -301 162 -216 -182 -133 -88 -53 -26 16 -17 22 33 12 17 21 17 vhcurveto
          43 41 66 22 85 hhcurveto
          179 273 -118 -591 -28 -1 -27 -1 -26 hvcurveto
          155 -74 -138 107 -174 hhcurveto
          -278 -215 -210 -303 hvcurveto
          87 18 rmoveto
          242 171 172 216 177 144 -126 -168 76 vhcurveto
          -365 -38 -151 -183 -215 hhcurveto
          -183 -197 157 271 hvcurveto
          endchar
        </CharString>
        <CharString name="percent">
          187 1 69 -68 -21 570 69 -22 callgsubr
          10 callsubr
          hintmask 0111011101000000
          -62 callgsubr
          hintmask 1011101101000000
          -14 callsubr
          hintmask 0111011101000000
          2 callsubr
          hintmask 1011101111000000
          -27 callgsubr
          369 -540 rmoveto
          -47 callsubr
          314 -246 -34 callgsubr
        </CharString>
        <CharString name="period">
          -720 2 -21 hstem
          97 467 vstem
          97 197 rmoveto
          -33 callsubr
        </CharString>
        <CharString name="periodcentered">
          -721 517 417 hstem
          97 466 vstem
          326 517 rmoveto
          -43 callsubr
          -128 81 -87 -36 callsubr
        </CharString>
        <CharString name="perthousand">
          898 1 68 -67 -21 571 68 -22 callgsubr
          53 312 274 72 10 callsubr
          hintmask 0101011100000000
          -62 callgsubr
          hintmask 0000101100000000
          -14 callsubr
          hintmask 0101011100000000
          2 callsubr
          hintmask 1011101111110000
          -27 callgsubr
          1080 -540 rmoveto
          -188 140 -129 192 2 vhcurveto
          178 1 148 130 179 vvcurveto
          187 -147 122 -177 -190 -144 -129 -175 vhcurveto
          -711 hmoveto
          -47 callsubr
          1023 -247 rmoveto
          482 vlineto
          1 6 6 0 5 hhcurveto
          138 119 -98 -145 -157 -122 -83 -135 hvcurveto
          -726 1 -34 callgsubr
        </CharString>
        <CharString name="pi">
          70 -12 78 1041 80 hstem
          381 86 491 86 vstem
          368 39 rmoveto
          -29 16 -22 31 28 28 22 38 vhcurveto
          21 -4 27 66 vvcurveto
          945 491 -864 vlineto
          -172 75 -83 122 123 76 61 45 16 -11 20 -24 -20 -15 -7 -25 -33 vhcurveto
          -24 -31 -33 -8 -30 hhcurveto
          -60 -53 52 111 hvcurveto
          878 119 vlineto
          45 38 1 3 35 hvcurveto
          44 4 25 19 27 vvcurveto
          24 -22 18 -25 -19 -11 -4 -2 -12 vhcurveto
          -9 -39 -69 -1 -192 hhcurveto
          -471 hlineto
          -107 -74 -5 -13 -53 hvcurveto
          -109 -27 -50 -39 -46 vvcurveto
          -36 24 -17 25 28 16 15 18 15 vhcurveto
          38 45 48 19 90 5 rrcurveto
          -844 vlineto
          -5 callgsubr
          -4 -18 -18 vvcurveto
          endchar
        </CharString>
        <CharString name="plus">
          -391 527 74 hstem
          456 75 vstem
          451 219 rmoveto
          -32 -2 20 -21 27 hhcurveto
          -82 callsubr
          endchar
        </CharString>
        <CharString name="plusminus">
          -370 255 73 454 74 hstem
          456 75 vstem
          496 421 rmoveto
          -82 callsubr
          -32 -2 20 -21 27 hhcurveto
          -327 -173 -93 callgsubr
          endchar
        </CharString>
        <CharString name="product">
          12 9 -21 1503 81 hstem
          298 85 625 86 vstem
          285 39 rmoveto
          -29 17 -22 31 28 6 callsubr
          625 -1229 vlineto
          -5 callgsubr
          -5 -18 -18 vvcurveto
          -29 18 -22 30 30 6 callsubr
          17 vlineto
          44 38 1 4 34 hvcurveto
          46 4 23 18 29 vvcurveto
          22 -20 19 -27 -19 -10 -3 -2 -11 vhcurveto
          -9 -38 -70 -2 -192 hhcurveto
          -425 hlineto
          -191 -70 2 9 -39 hvcurveto
          2 -11 -11 3 -19 hhcurveto
          -26 -20 -19 -22 -29 24 -18 44 -4 hvcurveto
          -4 34 38 -1 46 hhcurveto
          15 -1229 hlineto
          -5 callgsubr
          -4 -18 -18 vvcurveto
          endchar
        </CharString>
        <CharString name="q">
          90 -4 callsubr
          882 131 -55 73 hstemhm
          83 1258 hintmask 00000000
          hintmask 11011000
          83 541 rmoveto
          -328 227 -232 344 97 92 21 48 86 vhcurveto
          -370 412 vlineto
          hintmask 11101000
          1388 -412 vlineto
          hintmask 11011000
          -43 vlineto
          41 -84 -93 20 -87 hhcurveto
          -70 callsubr
          -23 -53 93 hvcurveto
          -798 vlineto
          -57 -79 -86 -27 -100 hhcurveto
          -25 -29 2 4 -24 hvcurveto
          endchar
        </CharString>
        <CharString name="question">
          -479 2 -21 482 80 817 73 hstem
          149 653 vstem
          522 463 rmoveto
          112 3 109 63 43 vvcurveto
          20 -11 14 -20 -22 -14 -9 -26 -35 vhcurveto
          -17 -22 -27 -11 -37 hhcurveto
          -21 -15 12 22 21 11 22 43 52 hvcurveto
          144 183 85 157 135 vvcurveto
          169 -142 117 -216 -61 -56 -6 -16 -47 vhcurveto
          -79 -25 -52 -43 -37 vvcurveto
          -22 16 -14 19 15 19 8 18 18 vhcurveto
          48 53 55 16 50 hhcurveto
          37 21 -19 -25 -40 -33 -67 -100 -123 hvcurveto
          -111 -135 -41 -93 -96 vvcurveto
          -199 177 -106 178 6 vhcurveto
          -265 -311 rmoveto
          -100 76 -71 126 128 78 78 92 100 -66 82 -134 -126 -82 -69 -112 vhcurveto
          endchar
        </CharString>
        <CharString name="questiondown">
          -479 -213 73 817 80 hstem
          152 653 vstem
          468 887 rmoveto
          134 66 82 100 92 -78 78 -128 -126 -76 -71 -100 -112 82 -69 126 hvcurveto
          -316 -973 rmoveto
          -37 52 -43 79 -25 vhcurveto
          -16 47 56 -6 61 hhcurveto
          216 142 117 169 135 -85 157 -144 183 hvcurveto
          -43 52 -11 22 21 vvcurveto
          22 15 12 21 37 27 -11 -17 22 vhcurveto
          -26 35 14 -9 22 hhcurveto
          20 11 14 20 43 -109 63 -112 3 hvcurveto
          -178 6 -177 -106 -199 vvcurveto
          -96 41 -93 111 -135 vhcurveto
          100 -123 33 -67 -40 vvcurveto
          -25 -21 -19 -37 -50 -55 16 48 -53 vhcurveto
          18 -18 -19 8 -15 hhcurveto
          -19 -16 -14 -22 hvcurveto
          endchar
        </CharString>
        <CharString name="quotedbl">
          -519 1448 -20 hstem
          46 794 vstem
          668 827 rmoveto
          -61 callsubr
          -450 hmoveto
          -61 callsubr
          endchar
        </CharString>
        <CharString name="quotedblbase">
          -234 2 -21 hstemhm
          82 1007 -658 115 428 -31 callgsubr
          625 181 rmoveto
          -98 81 -102 137 vhcurveto
          hintmask 10010000
          -88 callgsubr
          -543 hmoveto
          -98 81 -102 137 vhcurveto
          hintmask 10100000
          -88 callgsubr
          endchar
        </CharString>
        <CharString name="quotedblleft">
          -248 1434 -20 hstemhm
          52 115 414 115 hintmask 00000000
          hintmask 11100000
          826 817 rmoveto
          -78 callsubr
          -529 hmoveto
          -78 callsubr
          endchar
        </CharString>
        <CharString name="quotedblright">
          -248 1434 -20 hstemhm
          82 993 -644 115 414 -31 callgsubr
          791 861 rmoveto
          -27 17 -17 30 -47 callgsubr
          vhcurveto
          hintmask 10010000
          -66 callgsubr
          hintmask 11000000
          -33 -14 -15 -2 -21 vvcurveto
          -482 -44 rmoveto
          -47 callgsubr
          hvcurveto
          hintmask 10100000
          -66 callgsubr
          -33 -14 -15 -2 -21 vvcurveto
          hintmask 11000000
          -27 17 -17 30 vhcurveto
          endchar
        </CharString>
        <CharString name="quoteleft">
          -777 1433 -20 hstemhm
          52 -31 callgsubr
          297 816 rmoveto
          -78 callsubr
          endchar
        </CharString>
        <CharString name="quoteright">
          -777 1434 -20 hstemhm
          82 464 -115 -31 callgsubr
          309 817 rmoveto
          -47 callgsubr
          hvcurveto
          hintmask 10100000
          -66 callgsubr
          -33 -14 -15 -2 -21 vvcurveto
          hintmask 11000000
          -27 17 -17 30 vhcurveto
          endchar
        </CharString>
        <CharString name="quotesinglbase">
          -777 2 -21 hstemhm
          82 464 -115 -31 callgsubr
          82 181 rmoveto
          -98 81 -102 137 vhcurveto
          hintmask 10100000
          -88 callgsubr
          endchar
        </CharString>
        <CharString name="quotesingle">
          -969 1448 -20 hstem
          46 344 vstem
          218 827 rmoveto
          -61 callsubr
          endchar
        </CharString>
        <CharString name="r">
          -42 callgsubr
          hstemhm
          173 836 hintmask 00000000
          hintmask 11010000
          -78 callgsubr
          hintmask 10110000
          314 -430 vlineto
          endchar
        </CharString>
        <CharString name="racute">
          -42 callgsubr
          130 -35 callgsubr
          173 836 -623 399 hintmask 00000000
          hintmask 11001000
          -78 callgsubr
          hintmask 10101000
          314 -430 vlineto
          hintmask 00010100
          213 130 -81 callsubr
        </CharString>
        <CharString name="radical">
          -183 0 -21 608 80 hstem
          97 1004 vstem
          489 68 rmoveto
          -67 23 29 -22 40 hhcurveto
          37 29 25 64 18 hvcurveto
          373 1287 11 36 13 37 13 33 rlinecurve
          12 33 14 31 24 vvcurveto
          28 -19 16 -27 -39 -20 -41 -82 -22 vhcurveto
          -396 -1389 -188 542 rlineto
          28 -11 -22 16 -42 hhcurveto
          -151 hlineto
          -47 -20 -17 -26 -22 16 -24 52 17 22 2 2 26 hvcurveto
          14 1 33 3 27 1 rrcurveto
          endchar
        </CharString>
        <CharString name="rcaron">
          -42 callgsubr
          235 70 hstemhm
          38 760 -625 836 hintmask 00000000
          hintmask 11000100
          -78 callgsubr
          hintmask 10100100
          314 -430 vlineto
          hintmask 00011000
          127 235 -105 callgsubr
        </CharString>
        <CharString name="rcommaaccent">
          -42 callgsubr
          hstemhm
          173 836 hintmask 00000000
          hintmask 11010000
          -78 callgsubr
          hintmask 10110000
          314 -430 vlineto
          hintmask 00000000
          257 -1215 -104 callgsubr
        </CharString>
        <CharString name="registered">
          -102 441 74 737 64 157 73 hstem
          85 81 244 214 237 78 197 -64 callsubr
          -241 205 rmoveto
          214 531 hlineto
          9 11 0 1 11 hvcurveto
          129 4 77 -52 -96 vvcurveto
          -77 -41 -54 -89 -16 vhcurveto
          -39 -6 -10 -18 -20 vvcurveto
          -34 75 -77 50 -43 vhcurveto
          -42 45 25 -11 22 hhcurveto
          20 13 14 13 18 -14 12 -24 17 hvcurveto
          -53 37 -34 32 -37 49 rrcurveto
          103 24 66 87 98 vvcurveto
          140 -106 65 -199 vhcurveto
          -224 hlineto
          endchar
        </CharString>
        <CharString name="ring">
          -911 1183 2 callgsubr
          1183 -85 callgsubr
        </CharString>
        <CharString name="ring.cap">
          -911 1530 2 callgsubr
          1530 -85 callgsubr
        </CharString>
        <CharString name="s">
          -34 callsubr
          hstem
          95 860 vstem
          -102 callsubr
          endchar
        </CharString>
        <CharString name="sacute">
          -34 callsubr
          112 -35 callgsubr
          95 860 -486 399 hintmask 11010000
          -102 callsubr
          hintmask 00101000
          374 1064 -81 callsubr
        </CharString>
        <CharString name="scaron">
          -34 callsubr
          -9 callsubr
          95 860 -834 760 hintmask 11010000
          -102 callsubr
          hintmask 00101000
          288 1068 -105 callgsubr
        </CharString>
        <CharString name="scedilla">
          -382 -16 callsubr
          50 69 969 67 hstemhm
          95 860 -447 78 140 76 hintmask 11111000
          95 134 rmoveto
          -28 25 -28 52 -29 vhcurveto
          -43 74 121 -25 102 hhcurveto
          hintmask 11110110
          13 -28 callgsubr
          -69 -75 callsubr
          -26 -14 -18 -18 0 callgsubr
          hvcurveto
          -59 callsubr
          59 vlineto
          hintmask 11111000
          229 33 140 136 179 vvcurveto
          137 -68 100 -276 204 vhcurveto
          -138 100 -30 50 31 vvcurveto
          31 28 28 78 73 96 -20 -50 75 vhcurveto
          -23 31 14 -17 21 hhcurveto
          23 11 19 17 37 -46 35 -72 29 hvcurveto
          24 -60 -96 16 -81 hhcurveto
          -261 -169 -138 -165 -130 73 -110 300 -234 hvcurveto
          146 -114 22 -26 -39 vvcurveto
          -38 -51 -42 -121 -110 -116 34 57 -65 vhcurveto
          17 -18 -14 16 -18 hhcurveto
          -26 -15 -20 -20 hvcurveto
          endchar
        </CharString>
        <CharString name="scircumflex">
          -34 callsubr
          327 70 hstemhm
          95 860 -765 760 hintmask 11010000
          -102 callsubr
          hintmask 00101000
          134 1057 -107 callgsubr
        </CharString>
        <CharString name="scommaaccent">
          -34 callsubr
          hstemhm
          95 860 vstemhm
          -102 callsubr
          450 -281 -104 callgsubr
        </CharString>
        <CharString name="section">
          -196 -148 73 1545 73 hstem
          188 863 vstem
          263 -5 rmoveto
          -62 171 -81 151 260 187 151 160 116 -67 88 -171 106 vhcurveto
          166 68 91 107 126 vvcurveto
          126 -62 88 -316 172 vhcurveto
          -151 82 -59 64 70 vvcurveto
          51 52 43 134 92 76 -30 -52 61 vhcurveto
          -17 18 14 -11 17 hhcurveto
          26 16 21 19 58 -155 85 -159 -256 -192 -142 -145 -117 36 -86 205 -130 hvcurveto
          -168 -68 -92 -108 -125 vvcurveto
          -120 77 -104 219 -119 vhcurveto
          266 -145 26 -50 -56 vvcurveto
          -50 -64 -53 -121 -92 -86 29 53 -59 vhcurveto
          17 -20 -13 11 -18 hhcurveto
          -26 -14 -20 -20 hvcurveto
          451 525 rmoveto
          -250 140 -35 62 53 vvcurveto
          32 28 37 73 29 vhcurveto
          40 -22 rlineto
          213 -120 28 -40 -64 vvcurveto
          -40 -24 -38 -73 -29 vhcurveto
          endchar
        </CharString>
        <CharString name="semicolon">
          -720 2 -21 hstemhm
          97 467 -117 -31 callgsubr
          328 579 rmoveto
          -74 callgsubr
          -128 83 -88 -10 callsubr
          -230 -398 rmoveto
          -98 81 -102 137 vhcurveto
          hintmask 10100000
          -88 callgsubr
          endchar
        </CharString>
        <CharString name="seven">
          -181 21 -21 1344 70 hstem
          103 77 vstem
          335 hmoveto
          565 hlineto
          -3 49 -1 49 48 vvcurveto
          534 149 511 119 223 vhcurveto
          -1013 hlineto
          -25 -23 -13 -26 -59 -32 -89 -4 -18 hvcurveto
          -8 -33 18 -25 25 -5 28 -7 18 16 7 25 4 15 4 32 3 22 3 17 8 30 3 46 rrcurveto
          2 28 44 0 52 78 95 -1 86 hhcurveto
          28 hlineto
          -129 -227 -132 -568 -414 vvcurveto
          -47 1 -45 4 -42 vhcurveto
          endchar
        </CharString>
        <CharString name="six">
          -9 -19 70 798 70 447 67 hstem
          1226 78 vstem
          669 55 rmoveto
          1297 vlineto
          8 34 42 6 50 hhcurveto
          136 105 -33 -77 61 hvcurveto
          -16 15 15 -23 29 hhcurveto
          25 13 10 22 33 -30 42 -64 37 hvcurveto
          44 -77 -108 28 -113 hhcurveto
          -364 -302 -271 -487 -484 277 -210 325 293 273 183 321 304 -180 130 -216 -16 -17 -1 -1 -17 hvcurveto
          -68 -6 -76 -7 9 -49 5 -29 16 -4 31 3 38 3 7 15 45 4 rrcurveto
          1 13 -28 callgsubr
          194 128 -134 -220 -238 -175 -206 -323 -21 -19 1 3 -19 hvcurveto
          endchar
        </CharString>
        <CharString name="slash">
          -725 -12 callsubr
          82 517 vstem
          82 29 rmoveto
          -34 18 -14 23 37 16 23 144 42 vhcurveto
          322 1091 11 36 20 46 9 21 rlinecurve
          10 19 9 20 15 vvcurveto
          26 -19 11 -19 -36 -21 -20 -134 -40 vhcurveto
          -307 -1052 -20 -66 -16 -42 -13 -26 rlinecurve
          -16 -23 -10 -22 -19 vvcurveto
          endchar
        </CharString>
        <CharString name="space">
          -949 endchar
        </CharString>
        <CharString name="sterling">
          -30 -19 74 244 73 316 75 595 75 hstem
          15 78 vstem
          15 178 rmoveto
          -111 84 -86 163 135 124 51 86 100 vhcurveto
          -108 186 90 -29 116 hhcurveto
          76 72 19 35 53 hvcurveto
          58 38 39 59 41 vvcurveto
          27 -19 14 -19 -22 -10 -9 -38 -20 vhcurveto
          -73 -36 -89 -39 -79 hhcurveto
          -74 -89 18 100 -177 hvcurveto
          116 129 73 182 3 204 rrcurveto
          113 hlineto
          32 25 -1 -2 21 hvcurveto
          -2 23 20 -2 22 hhcurveto
          40 -17 callgsubr
          28 -21 17 -35 -23 -16 -2 -2 -20 hvcurveto
          -2 -22 -37 -1 -43 hhcurveto
          -100 595 hlineto
          115 -8 96 -39 48 -44 rrcurveto
          -16 18 19 -8 14 hhcurveto
          23 12 20 19 68 -191 83 -178 -315 -172 -166 -209 hvcurveto
          -295 vlineto
          -29 -25 1 -20 callgsubr
          2 -17 hhcurveto
          -35 -22 -17 -28 -24 25 -21 32 28 21 3 2 25 hvcurveto
          1 19 21 2 24 hhcurveto
          -345 vlineto
          22 -55 -41 7 -41 hhcurveto
          -115 -91 -83 -111 hvcurveto
          78 3 rmoveto
          70 47 48 77 44 43 -10 -24 54 vhcurveto
          -19 vlineto
          -132 -40 -59 -92 -66 -67 50 76 vhcurveto
          endchar
        </CharString>
        <CharString name="summation">
          -209 0 80 1411 81 hstem
          97 978 vstem
          97 54 rmoveto
          -30 24 -24 34 vhcurveto
          734 13 callgsubr
          17 5 callgsubr
          -10 -38 -69 -1 -192 hhcurveto
          -487 hlineto
          589 658 rlineto
          42 46 8 19 16 vvcurveto
          27 -14 20 -43 45 vhcurveto
          -574 580 rlineto
          680 13 callgsubr
          18 5 callgsubr
          -9 -38 -69 -2 -192 hhcurveto
          -533 hlineto
          -33 -25 -23 -29 -32 31 -38 54 -55 hvcurveto
          569 -578 -556 -615 rlineto
          -86 -94 -12 -26 -28 vvcurveto
          endchar
        </CharString>
        <CharString name="t">
          9 callgsubr
          hstem
          22 944 vstem
          -98 callsubr
          endchar
        </CharString>
        <CharString name="tbar">
          -442 -19 74 473 72 395 73 hstemhm
          22 944 -905 721 hintmask 11110000
          192 339 rmoveto
          -223 115 -135 277 91 75 19 32 59 vhcurveto
          103 58 54 82 43 vvcurveto
          28 -18 20 -23 -22 -16 -13 -49 -17 vhcurveto
          -11 -29 -20 -31 -24 -19 -55 -47 -59 -19 -81 -1 rrcurveto
          472 vlineto
          13 12 -2 -1 12 hvcurveto
          -2 24 19 -2 22 hhcurveto
          hintmask 11101000
          -68 callsubr
          -21 -18 -39 callsubr
          -48 -3 rlineto
          394 110 vlineto
          35 21 -1 -1 17 hvcurveto
          -1 19 13 -2 19 hhcurveto
          28 26 15 25 28 -25 14 -34 -11 -10 -1 -1 -20 hvcurveto
          -1 -16 -18 -1 -20 hhcurveto
          -134 347 hlineto
          -429 -192 rlineto
          -155 -15 vlineto
          -22 -17 -3 callgsubr
          -21 -11 1 -10 hhcurveto
          hintmask 11110000
          -36 -22 -14 -28 -25 24 -15 30 18 13 2 1 20 hvcurveto
          1 14 21 1 29 hhcurveto
          -392 vlineto
          -4 -5 0 1 -4 hvcurveto
          2 -23 -19 2 -18 hhcurveto
          hintmask 11101000
          -65 callgsubr
          28 21 3 2 24 hvcurveto
          endchar
        </CharString>
        <CharString name="tcaron">
          -46 -19 74 940 73 366 -20 hstemhm
          22 944 241 105 hintmask 11010000
          -98 callsubr
          hintmask 00101000
          924 -178 -91 callgsubr
        </CharString>
        <CharString name="tcommaaccent">
          9 callgsubr
          hstemhm
          22 944 vstemhm
          -98 callsubr
          283 -1142 -104 callgsubr
        </CharString>
        <CharString name="thorn">
          106 -4 callsubr
          958 73 hstem
          173 1255 vstem
          173 -320 rmoveto
          410 364 hlineto
          -43 88 99 -20 91 hhcurveto
          351 216 251 311 312 -225 231 -346 -82 -99 -21 -52 -93 hvcurveto
          402 -410 vlineto
          410 -1287 rmoveto
          804 vlineto
          56 82 95 25 88 hhcurveto
          24 29 -2 -4 25 hvcurveto
          -950 vlineto
          -1 -14 -16 -1 -20 hhcurveto
          -84 -108 17 56 -101 hvcurveto
          endchar
        </CharString>
        <CharString name="three">
          -107 -19 74 695 74 537 72 hstem
          610 73 vstem
          135 116 rmoveto
          -69 92 134 -66 194 hhcurveto
          382 226 173 252 180 -132 141 -193 61 hvcurveto
          188 62 85 128 118 vvcurveto
          191 -167 146 -361 -82 -124 -16 -23 -75 vhcurveto
          -93 -31 -77 -45 2 -43 1 -27 21 -10 23 2 30 1 23 19 15 17 rrcurveto
          46 40 114 38 146 hhcurveto
          13 14 0 -1 14 hvcurveto
          22 -2 rlineto
          -532 vlineto
          -1 -14 -16 -1 -16 hhcurveto
          -28 -30 2 1 -25 hvcurveto
          1 -27 -40 3 -15 hhcurveto
          -46 -20 -20 -28 -27 27 -12 42 15 35 0 5 35 hvcurveto
          1 12 13 0 14 hhcurveto
          28 32 -1 -3 24 hvcurveto
          -691 -92 vlineto
          -182 -148 94 84 -43 hvcurveto
          -11 21 -18 27 -31 4 -22 2 -14 -14 -2 -27 -2 -32 36 -58 54 -40 rrcurveto
          548 1230 rmoveto
          27 -6 19 -6 0 vvcurveto
          endchar
        </CharString>
        <CharString name="threequarters">
          404 0 220 -218 -21 175 64 413 -6 callgsubr
          510 342 10 callsubr
          hintmask 0111111010000000
          393 24 rmoveto
          -25 17 -18 22 38 15 22 161 103 vhcurveto
          627 986 72 112 19 29 25 34 rlinecurve
          21 29 10 19 23 vvcurveto
          23 -18 14 -23 -30 -14 -21 -29 -15 vhcurveto
          -13 -27 -19 -39 -25 -41 -666 -1037 rcurveline
          -34 -54 -36 -48 -24 -27 rrcurveto
          -41 -45 -11 -18 -23 vvcurveto
          -278 675 4 callgsubr
          hintmask 0111110110000000
          -56 callgsubr
          hintmask 0111111010000000
          -43 callgsubr
          hintmask 0111110110000000
          -51 callsubr
          hintmask 0111111010000000
          -19 callsubr
          453 -1169 rmoveto
          -19 19 -16 34 vhcurveto
          293 hlineto
          hintmask 1001111010000000
          -156 342 vlineto
          hintmask 0111111010000000
          156 6 vlineto
          36 36 1 2 17 hvcurveto
          30 3 25 10 25 vvcurveto
          19 -14 11 -27 -8 -18 -2 -1 -7 vhcurveto
          -2 -14 -17 -2 -45 12 callsubr
          -38 -59 -7 -14 -20 vvcurveto
          92 34 rmoveto
          5 2 4 6 8 vhcurveto
          246 389 rlineto
          -411 -241 vlineto
          -9 -4 1 4 hvcurveto
          endchar
        </CharString>
        <CharString name="threesuperior">
          -570 633 -6 callgsubr
          hintmask 00000000
          hintmask 11110000
          115 699 4 callgsubr
          hintmask 11101000
          -56 callgsubr
          hintmask 11110000
          -43 callgsubr
          hintmask 11101000
          -51 callsubr
          hintmask 11110000
          -19 callsubr
          endchar
        </CharString>
        <CharString name="tilde">
          -518 1182 -45 callgsubr
          -9 -20 hstemhm
          91 706 10 callgsubr
          130 1192 rmoveto
          hintmask 11010000
          -75 callgsubr
          hintmask 10110000
          -96 callsubr
          hintmask 11010000
          -82 callgsubr
          hvcurveto
          hintmask 10110000
          -25 callgsubr
          vhcurveto
          endchar
        </CharString>
        <CharString name="tilde.cap">
          -518 1530 -45 callgsubr
          hstemhm
          91 706 hintmask 00000000
          hintmask 01100000
          130 1540 rmoveto
          -75 callgsubr
          hintmask 11100000
          -96 callsubr
          hintmask 01100000
          -82 callgsubr
          -25 callgsubr
          hvcurveto
          endchar
        </CharString>
        <CharString name="trademark">
          246 1491 81 hstem
          291 240 vstem
          742 902 rmoveto
          25 19 19 42 8 hvcurveto
          35 147 22 91 194 -309 176 304 82 -285 rlineto
          227 hlineto
          -171 692 -242 -395 -249 395 -126 -502 -8 -34 -11 -31 -9 -27 rlinecurve
          -8 -28 -7 -22 -13 vvcurveto
          -24 18 -20 25 vhcurveto
          -451 9 rmoveto
          240 580 130 hlineto
          41 18 23 22 28 -28 17 -22 -3 -25 -2 -2 -11 hvcurveto
          -2 -12 -23 -3 -14 hhcurveto
          -420 hlineto
          -41 -19 -21 -23 -29 27 -16 22 4 24 2 2 12 hvcurveto
          2 11 24 2 13 hhcurveto
          52 hlineto
          endchar
        </CharString>
        <CharString name="two">
          -157 0 72 1294 67 hstem
          38 1073 vstem
          38 hmoveto
          972 hlineto
          82 19 24 26 20 -15 22 -34 -12 -12 -1 -5 -26 hvcurveto
          -7 -36 -50 -7 -46 hhcurveto
          -293 hlineto
          57 142 77 115 169 247 rrcurveto
          190 278 25 85 119 vvcurveto
          211 -208 164 -348 -129 -136 -36 -61 -96 vhcurveto
          -58 -38 -38 -44 -34 vvcurveto
          -27 15 -16 22 31 17 24 18 12 vhcurveto
          79 47 155 68 139 hhcurveto
          150 72 -62 -86 -53 -21 -44 -226 -304 hvcurveto
          -349 -468 -98 -190 -20 -159 rrcurveto
          endchar
        </CharString>
        <CharString name="twosuperior">
          -600 652 68 647 66 hstem
          73 641 vstem
          73 652 -73 callsubr
        </CharString>
        <CharString name="u">
          -60 callgsubr
          endchar
        </CharString>
        <CharString name="uacute">
          -36 callgsubr
          1299 284 -48 callgsubr
          -663 399 -94 callsubr
          505 231 -81 callsubr
        </CharString>
        <CharString name="ubreve">
          -36 callgsubr
          1232 73 -48 callgsubr
          -854 531 -94 callsubr
          581 164 -102 callgsubr
        </CharString>
        <CharString name="ucircumflex">
          -36 callgsubr
          1514 70 -48 callgsubr
          -942 760 -94 callsubr
          265 224 -107 callgsubr
        </CharString>
        <CharString name="udieresis">
          -36 callgsubr
          1303 253 -48 callgsubr
          -1017 855 -94 callsubr
          828 235 -104 callsubr
        </CharString>
        <CharString name="ugrave">
          -60 callgsubr
          hintmask 00000000
          620 127 -83 callsubr
        </CharString>
        <CharString name="uhungarumlaut">
          -36 callgsubr
          1232 284 -48 callgsubr
          -955 723 -94 callsubr
          587 164 -80 callsubr
        </CharString>
        <CharString name="umacron">
          -36 callgsubr
          1258 72 -48 callgsubr
          -946 721 -94 callsubr
          279 181 rmoveto
          28 22 3 2 24 hvcurveto
          3 22 25 1 29 hhcurveto
          311 hlineto
          32 24 -1 -3 22 hvcurveto
          -2 24 19 -2 22 hhcurveto
          -68 callsubr
          -21 -18 -39 callsubr
          -2 -22 -37 -2 -42 hhcurveto
          -307 hlineto
          -30 -28 2 -11 callsubr
          -19 2 -18 hhcurveto
          -65 callgsubr
          hvcurveto
          endchar
        </CharString>
        <CharString name="underscore">
          -529 -182 75 hstem
          -63 992 vstem
          99 -107 rmoveto
          -111 -51 -2 -36 -35 47 -2 101 hvcurveto
          705 hlineto
          99 40 2 35 36 -42 2 -110 hvcurveto
          endchar
        </CharString>
        <CharString name="uni0001">
          endchar
        </CharString>
        <CharString name="uni0002">
          endchar
        </CharString>
        <CharString name="uni0003">
          endchar
        </CharString>
        <CharString name="uni0004">
          endchar
        </CharString>
        <CharString name="uni0005">
          endchar
        </CharString>
        <CharString name="uni0006">
          endchar
        </CharString>
        <CharString name="uni0007">
          endchar
        </CharString>
        <CharString name="uni0008">
          endchar
        </CharString>
        <CharString name="uni0009">
          endchar
        </CharString>
        <CharString name="uni0010">
          endchar
        </CharString>
        <CharString name="uni0011">
          endchar
        </CharString>
        <CharString name="uni0012">
          endchar
        </CharString>
        <CharString name="uni0013">
          endchar
        </CharString>
        <CharString name="uni0014">
          endchar
        </CharString>
        <CharString name="uni0015">
          endchar
        </CharString>
        <CharString name="uni0016">
          endchar
        </CharString>
        <CharString name="uni0017">
          endchar
        </CharString>
        <CharString name="uni0018">
          endchar
        </CharString>
        <CharString name="uni0019">
          endchar
        </CharString>
        <CharString name="uni00AD">
          -176 endchar
        </CharString>
        <CharString name="uni1E02">
          98 0 74 771 72 426 72 94 345 hstemhm
          475 467 157 84 166 86 hintmask 11100110
          -80 callgsubr
          hintmask 00011000
          -92 1435 -93 callsubr
        </CharString>
        <CharString name="uni1E03">
          16 callgsubr
          -18 callsubr
          173 1256 -692 454 hintmask 00000000
          hintmask 01101000
          173 hmoveto
          411 hlineto
          hintmask 10101000
          -61 callgsubr
          hintmask 00010100
          377 1114 rmoveto
          -96 callgsubr
          endchar
        </CharString>
        <CharString name="uni1E0A">
          -5 callsubr
          94 345 hstemhm
          519 467 419 85 hintmask 11001000
          -86 callsubr
          510 -1332 rmoveto
          1256 vlineto
          173 -3 116 -20 88 -37 rrcurveto
          219 -90 122 -222 -243 vvcurveto
          -405 -318 -237 -348 -12 -19 0 1 -21 vhcurveto
          hintmask 00110000
          63 1426 -93 callsubr
        </CharString>
        <CharString name="uni1E0B">
          91 -37 callgsubr
          -18 callsubr
          84 1258 -1056 454 -69 callgsubr
          -77 1182 rmoveto
          -96 callgsubr
          endchar
        </CharString>
        <CharString name="uni1E1E">
          18 callsubr
          94 345 hstemhm
          177 986 -688 467 hintmask 11101000
          -65 callsubr
          hintmask 00010100
          529 94 -93 callsubr
        </CharString>
        <CharString name="uni1E1F">
          -570 -31 callsubr
          108 323 hstemhm
          4 956 -777 454 hintmask 11101000
          173 hmoveto
          -106 callgsubr
          hintmask 00010100
          233 546 rmoveto
          -96 callgsubr
          endchar
        </CharString>
        <CharString name="uni1E40">
          7 callgsubr
          50 345 hstemhm
          12 1886 -1187 467 hintmask 00000000
          hintmask 01010100
          -33 callgsubr
          hintmask 10110100
          -48 callsubr
          hintmask 01010100
          -17 -32 -5 -13 -2 -21 rrcurveto
          hintmask 00001010
          929 1472 -93 callsubr
        </CharString>
        <CharString name="uni1E41">
          812 -21 callsubr
          -18 callsubr
          173 1890 -1182 454 hintmask 11010000
          -72 callsubr
          hintmask 00101000
          932 175 rmoveto
          -96 callgsubr
          endchar
        </CharString>
        <CharString name="uni1E56">
          18 callgsubr
          94 345 hstemhm
          484 467 431 81 hintmask 11100100
          -71 callgsubr
          hintmask 00011000
          538 94 -93 callsubr
        </CharString>
        <CharString name="uni1E57">
          107 -4 callsubr
          876 137 -55 73 -18 callsubr
          173 1256 -784 454 hintmask 00000000
          hintmask 11010100
          173 -320 rmoveto
          411 364 hlineto
          -59 callgsubr
          -21 -52 -93 hvcurveto
          hintmask 11100100
          5 callsubr
          hintmask 11010100
          -56 callsubr
          hintmask 11100100
          -86 -107 19 59 -101 hvcurveto
          hintmask 00001010
          285 1110 rmoveto
          -96 callgsubr
          endchar
        </CharString>
        <CharString name="uni1E60">
          -40 callgsubr
          76 345 hstemhm
          91 1007 -729 467 hintmask 11010000
          -103 callgsubr
          hintmask 00101000
          423 1437 -93 callsubr
        </CharString>
        <CharString name="uni1E61">
          -34 callsubr
          -18 callsubr
          95 860 -634 454 hintmask 11010000
          -102 callsubr
          hintmask 00101000
          450 1109 rmoveto
          -96 callgsubr
          endchar
        </CharString>
        <CharString name="uni1E6A">
          -32 callgsubr
          81 345 -1 callsubr
          -817 467 -60 callsubr
          255 166 -93 callsubr
        </CharString>
        <CharString name="uni1E6B">
          9 callgsubr
          431 323 hstemhm
          22 944 -774 454 hintmask 11010000
          -98 callsubr
          hintmask 00101000
          225 504 rmoveto
          -96 callgsubr
          endchar
        </CharString>
        <CharString name="uogonek">
          89 -361 74 268 103 -63 -21 -48 callgsubr
          -376 88 hintmask 11010000
          172 324 rmoveto
          -228 113 -115 238 134 140 54 119 113 vhcurveto
          hintmask 10101000
          -154 150 vlineto
          -53 -40 -43 -63 -86 vvcurveto
          -94 71 -78 118 vhcurveto
          hintmask 11010000
          112 75 67 46 19 -13 17 -19 -19 -7 -5 -30 -27 hvcurveto
          -29 -25 -30 -11 -42 hhcurveto
          hintmask 10101000
          -76 -30 49 54 73 46 68 58 43 hvcurveto
          hintmask 10110000
          184 1068 -430 -804 hlineto
          hintmask 11010000
          -81 callgsubr
          endchar
        </CharString>
        <CharString name="uring">
          -36 callgsubr
          1183 72 157 74 -48 callgsubr
          -746 76 161 75 hintmask 00000000
          hintmask 10001000
          172 324 rmoveto
          -228 113 -115 238 134 140 54 119 113 vhcurveto
          hintmask 01001000
          -154 -54 callsubr
          -804 vlineto
          hintmask 10001000
          -81 callgsubr
          hintmask 00110110
          578 115 -85 callgsubr
        </CharString>
        <CharString name="utilde">
          -36 callgsubr
          1182 -45 callgsubr
          -9 -20 -48 callgsubr
          -946 706 hintmask 00000000
          hintmask 10000100
          172 324 rmoveto
          -228 113 -115 238 134 140 54 119 113 vhcurveto
          hintmask 01000100
          -154 -54 callsubr
          -804 vlineto
          hintmask 10000100
          -81 callgsubr
          hintmask 00000000
          261 124 rmoveto
          hintmask 00101010
          -75 callgsubr
          hintmask 00110010
          -96 callsubr
          hintmask 00101010
          -82 callgsubr
          hvcurveto
          hintmask 00110010
          -25 callgsubr
          vhcurveto
          endchar
        </CharString>
        <CharString name="v">
          -336 -24 -21 hstem
          4 1064 vstem
          553 -45 rmoveto
          440 889 rlineto
          67 138 8 37 24 vvcurveto
          23 -15 20 -27 -25 -19 -15 -37 -9 vhcurveto
          -10 -43 -24 -66 -39 -78 -171 -340 rcurveline
          -272 561 rlineto
          -453 hlineto
          endchar
        </CharString>
        <CharString name="w">
          -30 callgsubr
          hstem
          4 1631 vstem
          -90 callsubr
          endchar
        </CharString>
        <CharString name="wacute">
          -30 callgsubr
          104 -35 callgsubr
          4 1631 -861 399 hintmask 11010000
          -90 callsubr
          hintmask 00101000
          770 130 -81 callsubr
        </CharString>
        <CharString name="wcircumflex">
          -30 callgsubr
          319 70 hstemhm
          4 1631 -1140 760 hintmask 11010000
          -90 callsubr
          hintmask 00101000
          530 123 -107 callgsubr
        </CharString>
        <CharString name="wdieresis">
          -30 callgsubr
          108 253 hstemhm
          4 1631 -1215 855 hintmask 11010000
          -90 callsubr
          hintmask 00101000
          1093 134 -104 callsubr
        </CharString>
        <CharString name="wgrave">
          -30 callgsubr
          hstemhm
          4 1631 vstemhm
          -90 callsubr
          859 127 -83 callsubr
        </CharString>
        <CharString name="x">
          -318 2 -21 40 -21 hstemhm
          10 1097 hintmask 00000000
          hintmask 10100000
          25 24 rmoveto
          -27 18 -16 25 27 23 15 77 60 vhcurveto
          244 307 rlineto
          hintmask 01100000
          228 -380 rlineto
          457 hlineto
          -385 640 169 215 rlineto
          89 112 26 52 26 vvcurveto
          27 -20 14 -21 -20 -18 -12 -41 -19 vhcurveto
          -8 -24 -34 -51 -28 -36 -161 -207 rcurveline
          -212 353 rlineto
          -455 hlineto
          368 -615 -236 -288 rlineto
          hintmask 10100000
          -31 -42 -15 -16 -35 -28 rrcurveto
          -27 -20 -9 -20 -15 vvcurveto
          endchar
        </CharString>
        <CharString name="y">
          -2 callgsubr
          hstem
          4 1064 vstem
          -95 callgsubr
          endchar
        </CharString>
        <CharString name="yacute">
          -2 callgsubr
          1637 -35 callgsubr
          4 1064 -566 399 hintmask 10100000
          -95 callgsubr
          hintmask 01010000
          202 1595 -81 callsubr
        </CharString>
        <CharString name="ycircumflex">
          -2 callgsubr
          1751 70 hstemhm
          4 1064 -845 760 hintmask 10100000
          -95 callgsubr
          hintmask 01010000
          -38 1487 -107 callgsubr
        </CharString>
        <CharString name="ydieresis">
          -2 callgsubr
          1641 253 hstemhm
          4 1064 -920 855 hintmask 10100000
          -95 callgsubr
          hintmask 01010000
          525 1599 -104 callsubr
        </CharString>
        <CharString name="yen">
          -83 10 -21 391 73 192 73 708 -20 hstem
          31 1259 vstem
          229 374 rmoveto
          8 callgsubr
          266 hlineto
          -81 -145 -38 -66 -33 -45 -22 -25 rlinecurve
          -25 -30 -6 -19 -17 vvcurveto
          -26 21 -18 24 38 18 26 29 13 vhcurveto
          8 16 27 56 26 47 122 217 rcurveline
          266 -8 callsubr
          20 24 27 -21 17 -35 -23 -16 -1 -2 -20 hvcurveto
          -3 -21 -37 -3 -43 hhcurveto
          -212 hlineto
          108 192 rlineto
          117 -8 callsubr
          19 24 29 -21 15 -35 -23 -16 -1 -2 -20 hvcurveto
          -2 -21 -37 -3 -43 hhcurveto
          -63 hlineto
          312 555 rlineto
          40 71 11 20 25 vvcurveto
          24 -18 13 -24 -25 -15 -16 -37 -15 vhcurveto
          -15 -39 -42 -82 -20 -35 -200 -355 rcurveline
          -336 553 rlineto
          -549 hlineto
          435 -697 rlineto
          -95 hlineto
          -29 -27 3 2 14 callsubr
          -15 -29 -24 25 -19 32 8 callgsubr
          133 hlineto
          120 -192 rlineto
          -261 hlineto
          -29 -27 3 3 14 callsubr
          -17 -27 -24 25 -20 32 hvcurveto
          endchar
        </CharString>
        <CharString name="ygrave">
          -2 callgsubr
          hstemhm
          4 1064 vstemhm
          -95 callgsubr
          279 1491 -83 callsubr
        </CharString>
        <CharString name="z">
          -13 callgsubr
          hstem
          41 1041 vstem
          -84 callsubr
          endchar
        </CharString>
        <CharString name="zacute">
          -13 callgsubr
          130 -35 callgsubr
          41 1041 -571 399 hintmask 11010000
          -84 callsubr
          hintmask 00101000
          -122 203 -81 callsubr
        </CharString>
        <CharString name="zcaron">
          -13 callgsubr
          134 70 hstemhm
          41 1041 -919 760 hintmask 11010000
          -84 callsubr
          hintmask 00101000
          -208 207 -105 callgsubr
        </CharString>
        <CharString name="zdotaccent">
          -13 callgsubr
          175 323 hstemhm
          41 1041 -719 454 hintmask 11010000
          -84 callsubr
          hintmask 00101000
          -46 248 rmoveto
          -96 callgsubr
          endchar
        </CharString>
        <CharString name="zero">
          -57 -19 69 1318 65 hstem
          1182 78 vstem
          668 -19 rmoveto
          368 224 249 492 454 -201 257 -372 -384 -215 -257 -440 -506 219 -249 361 hvcurveto
          6 69 rmoveto
          1318 11 vlineto
          290 207 -179 -467 -483 -220 -189 -285 hvcurveto
          endchar
        </CharString>
      <CharString index="0">
        rmoveto
        17 13 13 24 23 hvcurveto
        6 5 6 7 58 62 110 111 rcurveline
        180 -214 rlineto
        308 hlineto
        -263 284 rlineto
        -255 hlineto
        -110 -110 -51 -51 -22 -18 -18 -17 rlinecurve
        -35 -29 -6 -14 -17 vvcurveto
        -20 15 -16 24 vhcurveto
        endchar
      </CharString>
      <CharString index="1">
        430 995 111 hlineto
        22 27 -1 -1 16 hvcurveto
        -1 20 11 -1 11 hhcurveto
        33 24 15 27 25 -25 14 -29 -17 -14 -1 4 callsubr
        -1 -17 -32 -1 -35 hhcurveto
        -87 286 hlineto
        3 22 24 3 20 hhcurveto
        63 30 -5 -25 46 hvcurveto
        -20 40 32 -38 35 hhcurveto
        29 16 18 26 51 -105 66 -182 -263 -203 -114 -251 -30 hvcurveto
        -32 -21 -3 callgsubr
        -20 -13 1 -18 hhcurveto
        -29 -25 -14 -25 -27 23 -15 36 9 11 1 1 21 hvcurveto
        1 14 18 1 22 hhcurveto
        16 hlineto
        return
      </CharString>
      <CharString index="2">
        rmoveto
        256 hlineto
        110 111 52 50 21 19 19 16 rlinecurve
        33 27 7 15 17 -15 callsubr
        15 -24 -16 -14 -12 -26 -23 vhcurveto
        -6 -5 -5 -7 -60 -61 -108 -111 rcurveline
        -180 214 rlineto
        -309 hlineto
        endchar
      </CharString>
      <CharString index="3">
        rmoveto
        -129 -96 -61 -89 -80 82 -68 137 46 63 18 18 42 hvcurveto
        -21 -51 -62 -47 -34 -25 -29 -21 -27 -14 1 -21 1 -27 20 -11 31 5 22 4 19 11 22 18 rrcurveto
        86 74 66 64 125 vvcurveto
        114 -86 64 -7 callsubr
        endchar
      </CharString>
      <CharString index="4">
        177 72 rmoveto
        -57 98 134 -34 143 hhcurveto
        317 229 179 260 158 -45 128 -380 307 hvcurveto
        -193 158 -19 42 49 vvcurveto
        57 45 41 89 133 115 -43 -50 52 vhcurveto
        -19 22 12 -6 18 hhcurveto
        23 15 17 23 37 -41 35 -109 42 hvcurveto
        23 -64 -80 14 -77 hhcurveto
        -317 -170 -170 -205 -169 77 -126 242 -187 hvcurveto
        334 -256 30 -45 -74 vvcurveto
        -85 -92 -61 -153 -149 -139 48 73 -83 vhcurveto
        26 -28 -11 7 -23 hhcurveto
        -26 -15 -18 -22 -44 39 -26 47 -27 hvcurveto
        return
      </CharString>
      <CharString index="5">
        rmoveto
        158 106 112 130 31 -15 20 -28 -27 -14 -21 -41 -3 hvcurveto
        -95 -4 -73 -63 -99 hhcurveto
        -91 -75 64 88 -11 hvcurveto
        48 -5 -17 20 -25 hhcurveto
        -26 -18 -20 -31 -136 110 -106 157 hvcurveto
        endchar
      </CharString>
      <CharString index="6">
        hintmask 00000000
        hintmask 10011010
        96 382 rmoveto
        -258 191 -143 271 100 93 24 61 91 vhcurveto
        hintmask 00111010
        -66 428 627 vlineto
        -100 callgsubr
        hintmask 10011010
        -91 callsubr
        hintmask 01011010
        -482 vlineto
        hintmask 10011010
        -69 -92 -90 -28 -84 hhcurveto
        -8 -8 0 1 -7 hvcurveto
        hintmask 00000101
        return
      </CharString>
      <CharString index="7">
        210 -71 108 -145 72 vhcurveto
        42 -86 -137 27 -145 hhcurveto
        -120 -114 -19 -35 -93 hvcurveto
        -103 -40 -22 -29 -30 vvcurveto
        -22 17 -18 28 14 20 9 17 19 vhcurveto
        62 66 135 32 126 hhcurveto
        59 68 -10 -16 56 hvcurveto
        -275 vlineto
        37 -85 -97 18 -88 hhcurveto
        return
      </CharString>
      <CharString index="8">
        95 123 rmoveto
        -129 124 -100 309 -15 vhcurveto
        347 -15 14 -40 -37 vvcurveto
        -28 -93 -44 -197 -131 -131 26 40 -93 vhcurveto
        -20 10 -21 13 -16 9 rrcurveto
        11 -18 -14 8 -18 hhcurveto
        -18 -21 -14 -23 -27 16 -20 47 -23 hvcurveto
        -59 128 142 -21 174 hhcurveto
        365 167 138 162 121 -100 118 -365 11 hvcurveto
        -322 9 -48 27 36 vvcurveto
        20 41 25 48 14 vhcurveto
        63 -20 70 -11 73 1 rrcurveto
        253 1 244 157 234 vvcurveto
        return
      </CharString>
      <CharString index="9">
        44 33 18 24 24 vvcurveto
        22 -18 12 -12 -21 -13 -8 -24 -28 vhcurveto
        -63 -72 -118 -42 -121 hhcurveto
        -25 -37 3 6 -35 hvcurveto
        941 vlineto
        5 27 28 3 34 hhcurveto
        82 55 -12 -24 64 hvcurveto
        38 -15 35 -20 26 -25 rrcurveto
        -16 23 14 -7 17 hhcurveto
        19 18 15 26 39 -46 28 -56 24 hvcurveto
        41 -91 -100 19 -88 hhcurveto
        -335 -256 -225 -317 hvcurveto
        return
      </CharString>
      <CharString index="10">
        177 35 rmoveto
        -26 19 -20 27 25 22 20 34 10 -1 20 -1 26 vhcurveto
        -1 27 0 33 34 vvcurveto
        605 vlineto
        1087 -853 rlineto
        1254 vlineto
        66 2 30 1 24 vhcurveto
        1 18 0 13 24 vvcurveto
        37 -26 15 -22 -24 -19 -16 -34 -21 2 -9 2 -25 vhcurveto
        3 -21 2 -30 -57 vvcurveto
        -596 vlineto
        -1087 862 rlineto
        -1244 vlineto
        -72 -1 -51 -4 -23 vhcurveto
        -3 -21 -4 -18 -15 vvcurveto
        return
      </CharString>
      <CharString index="11">
        130 100 69 86 81 -80 87 -144 -135 -95 -74 -82 -99 81 -68 143 hvcurveto
        return
      </CharString>
      <CharString index="12">
        300 -296 rmoveto
        -30 28 -12 25 38 44 16 47 42 vhcurveto
        45 47 48 83 49 115 378 874 rcurveline
        61 142 10 33 30 vvcurveto
        17 -15 20 -27 -25 -19 -15 -37 -9 vhcurveto
        -10 -43 -21 -65 -35 -79 -164 -383 rcurveline
        -284 604 rlineto
        -455 hlineto
        545 -1058 -23 -53 -61 -134 -20 -31 -86 -28 rlinecurve
        -45 -15 -14 -20 -25 vvcurveto
        return
      </CharString>
      <CharString index="13">
        -20 -47 -16 -30 -13 -21 rrcurveto
        -18 -25 -11 -19 -13 vvcurveto
        192 229 rmoveto
        215 531 250 -539 rlineto
        -293 hlineto
        -38 -71 3 5 -63 hvcurveto
        return
      </CharString>
</ttFont>
